<svg xmlns="http://www.w3.org/2000/svg" width="96" height="95.905" viewBox="0 0 96 95.905">
  <g fill="#543c7a">
 <path d="M41.633 95.836C29.17 94.126 17.21 87.01 9.558 76.75-3.935 58.655-2.956 33.4 11.893 16.56 19.24 8.23 28.035 3.118 39.09.754c4.063-.87 14.134-.87 18.198 0C72.665 4.04 85.03 13.624 91.648 27.38c3.303 6.867 4.485 12.323 4.485 20.7 0 8.377-1.182 13.833-4.485 20.7-6.585 13.687-19.03 23.37-34.155 26.57-3.268.692-12.332.97-15.86.486zm11.66-16.703c13.52-2.358 23.59-12.428 25.948-25.95.66-3.732.66-6.474 0-10.207-2.35-13.52-12.42-23.59-25.94-25.95-3.732-.65-6.475-.65-10.21 0-13.52 2.36-23.59 12.43-25.946 25.95-.94 5.385-.437 10.53 1.568 16.073 5.067 14 19.943 22.63 34.59 20.08zm-15.14-18.295c-5.487-5.98-10.025-11.022-10.086-11.203-.067-.196 1.952-.367 5.002-.424l5.11-.09.17-12.25.17-12.243h19.67l.173 12.076.172 12.075 5.113.097c4.13.08 5.09.19 5 .57-.135.584-19.85 22.278-20.247 22.278-.154 0-4.77-4.893-10.254-10.874z"/>
    <path d="M41.633 95.146c-3.2-.44-8.22-1.79-11.496-3.095-10.85-4.32-21.597-15.06-25.914-25.9C.07 55.72-.34 44.09 3.06 33.26 7.347 19.6 19.727 7.23 33.397 2.94 38.95 1.198 41.547.826 48.187.826c6.642 0 9.24.372 14.793 2.116 13.686 4.3 26.05 16.663 30.347 30.348 1.745 5.555 2.116 8.152 2.116 14.792 0 4.662-.154 6.93-.618 9.1-1.884 8.81-5.2 15.52-10.81 21.862-7.45 8.43-15.81 13.352-26.522 15.618-3.268.692-12.332.97-15.86.486zM53.36 79.81c11.673-2.034 20.77-9.52 24.884-20.478 2.846-7.575 2.846-14.93 0-22.504-3.396-9.042-9.76-15.407-18.802-18.803-7.575-2.845-14.928-2.845-22.504 0-9.042 3.396-15.406 9.76-18.802 18.803-2.846 7.575-2.846 14.93 0 22.504 3.4 9.052 9.76 15.406 18.827 18.812 5.607 2.106 10.836 2.637 16.4 1.667zM38.74 60.415L29.32 50.15l4.41-.097c2.53-.056 4.602-.258 4.862-.474.36-.3.454-2.89.454-12.41V25.13h18.63v11.86c0 9.385.096 11.94.455 12.238.27.22 2.37.418 4.99.474l4.538.097-9.49 10.436c-5.22 5.74-9.606 10.437-9.747 10.437-.142 0-4.495-4.618-9.675-10.263zM.195 48.08c0-2.467.054-3.52.12-2.343.068 1.178.07 3.196.002 4.485-.066 1.29-.12.325-.122-2.142z"/>
  </g>
</svg>
