<?xml version="1.0" encoding="UTF-8" standalone="no"?>
<svg id="svg2816" xmlns:rdf="http://www.w3.org/1999/02/22-rdf-syntax-ns#" xmlns="http://www.w3.org/2000/svg" viewBox="0 0 640 327" version="1.1" xmlns:cc="http://creativecommons.org/ns#" xmlns:dc="http://purl.org/dc/elements/1.1/">
 <metadata id="metadata2822">
  <rdf:RDF>
   <cc:Work rdf:about="">
    <dc:format>image/svg+xml</dc:format>
    <dc:type rdf:resource="http://purl.org/dc/dcmitype/StillImage"/>
    <dc:title/>
   </cc:Work>
  </rdf:RDF>
 </metadata>
 <defs id="defs2820"></defs>
 <path id="path2926" fill="#FFF" d="m615.61,324.44c-24.45-6.1907-52.986-18.869-73.579-32.692-39.115-26.254-71.214-61.956-90.903-101.11-9.475-18.841-10.579-22.544-11.242-37.697-1.0955-25.07,3.9013-37.144,18.415-44.498,5.2185-2.6442,6.7717-2.9424,15.308-2.939,7.7712,0.003,10.428,0.42305,14.599,2.3081,20.346,9.1952,25.45,38.139,9.5326,54.057-10.017,10.017-27.423,12.615-40.349,6.0206l-3.7664-1.9214,1.9606,4.974c11.727,29.751,36.725,61.565,68.002,86.542,22.224,17.748,36.574,25.701,61.242,33.941,14.043,4.6912,28.155,7.7815,43.73,9.5763,5.1984,0.59906,10.066,1.5987,10.816,2.2214,4.3766,3.6322,5.4908,12.202,2.2728,17.479-4.135,6.7816-10.438,7.6858-26.04,3.7352zm-484-45.892c0-0.25033,1.8218-4.595,4.0484-9.6548l4.0484-9.1997-7.5484-15.448c-4.1516-8.4963-7.5484-15.852-7.5484-16.345,0-0.49355,1.2527-0.89737,2.7837-0.89737,2.5953,0,3.1875,0.87799,8.75,12.973,3.2814,7.1354,6.1913,12.976,6.4663,12.978,0.275,0.003,2.9204-5.8354,5.8787-12.973,5.1924-12.528,5.4819-12.978,8.357-12.978,2.1352,0,2.8269,0.39441,2.4436,1.3934-0.29409,0.76638-5.4047,12.465-11.357,25.997-10.357,23.546-10.941,24.604-13.572,24.607-1.5125,0.002-2.75-0.20207-2.75-0.4524zm315.5-4.4989c-3.4862-1.442-6.6467-5.7178-7.168-9.6977-0.68603-5.2372,2.758-10.334,8.2843-12.26,3.6786-1.2821,4.411-1.2361,7.9674,0.5,2.6168,1.2774,4.5508,3.2114,5.8282,5.8282,1.7361,3.5564,1.7821,4.2888,0.5,7.9674-2.3107,6.6301-9.3936,10.151-15.412,7.6622zm29.814-0.9962c-11.371-6.9331-3.8798-24.53,8.9358-20.991,9.9929,2.7592,11.678,16.008,2.7105,21.306-3.6743,2.1705-7.7513,2.0603-11.646-0.31469zm-58.869-6.1284c-9.7623-2.8041-11.243-16.871-2.2652-21.514,9.6076-4.9683,20.739,5.0848,16.049,14.495-2.9231,5.865-8.2896,8.598-13.784,7.0197zm-87.022-6.5032c-9.3294-3.1938-11.336-13.775-3.8573-20.342,6.8913-6.0506,16.874-3.0161,19.559,5.9455,2.7627,9.221-6.3672,17.592-15.702,14.396zm10.122-4.8727c4.4798-4.4798,3.0938-12.21-2.6131-14.573-9.4157-3.9001-17.008,8.0637-9.3777,14.778,3.5148,3.093,8.7831,3.0031,11.991-0.20455zm-11.545-6.4721,0-7.0733,3.8776,0c4.4259,0,6.6285,1.9569,5.794,5.1479-0.31046,1.1872,0.0685,3.3826,0.84209,4.8785,0.77361,1.496,1.1245,3.002,0.77978,3.3468-1.357,1.357-3.3917,0.50532-4.4754-1.8732-1.4124-3.1-2.5789-3.2012-2.9985-0.26022-0.17575,1.2319-1.107,2.3899-2.0696,2.5733-1.5332,0.29221-1.75-0.54289-1.75-6.7398zm6-2.5733c0-0.825-0.45-1.5-1-1.5s-1,0.675-1,1.5,0.45,1.5,1,1.5,1-0.675,1-1.5zm-237.59,12.609c-3.5694-2.1766-7.6203-6.9821-7.1287-8.4567,0.18506-0.55518,1.0294-1.4465,1.8762-1.9807,1.1793-0.74388,2.3439-0.0938,4.9748,2.7771,2.7372,2.9868,4.3517,3.8516,7.9468,4.2569,3.856,0.43463,4.9773,0.11673,7.7156-2.1874,2.6769-2.2525,3.204-3.3929,3.204-6.9328,0-5.0701-1.7837-7.0037-10.5-11.382-10.897-5.4739-14.538-11.943-10.798-19.183,4.5659-8.838,16.624-10.733,24.048-3.779,2.6257,2.4596,2.6515,2.6443,0.72549,5.1902-1.4352,1.8971-1.5023,1.8923-3.8081-0.27388-5.4245-5.0961-13.427-4.5652-15.751,1.0449-1.9678,4.7507,0.22114,7.5426,10.034,12.798,10.183,5.4534,12.435,8.17,12.435,15,0,5.6402-1.9943,9.0883-7.3744,12.75-4.3052,2.9301-13.089,3.1093-17.599,0.35905zm66.903-0.0593c-4.2692-2.6031-5.7655-5.43-3.7566-7.0972,1.2535-1.0403,1.9838-0.81877,4.229,1.2826,3.7916,3.5488,6.8009,4.2654,9.7628,2.3247,1.689-1.1067,2.451-2.5276,2.451-4.5704,0-2.6626-0.69975-3.3168-6.8734-6.4258-3.7804-1.9038-7.1554-4.1962-7.5-5.0944-2.2488-5.8604,1.2387-11.791,7.6402-12.992,5.6288-1.056,12.9,3.7558,10.023,6.6328-0.63488,0.63488-2.012,0.38166-3.939-0.72427-3.584-2.0569-7.9363-1.2665-8.8483,1.607-0.90477,2.8507,0.0894,3.936,5.9994,6.5497,9.8466,4.3546,12.205,10.951,6.0985,17.057-2.8266,2.8266-4.1337,3.3994-7.75,3.3963-2.5414-0.002-5.6747-0.81149-7.5362-1.9465zm27.395,1.3258c-0.38987-0.38985-0.70885-6.9338-0.70885-14.542,0-13.167-0.0964-13.833-2-13.833-1.3631,0-2-0.66667-2-2.0936,0-1.2526,0.8034-2.3037,2-2.6166,1.6876-0.44131,2-1.364,2-5.9064,0-5.3149,0.0382-5.3834,3-5.3834,2.9652,0,3,0.0629,3,5.4336,0,5.1842,0.12623,5.4481,2.75,5.75,1.969,0.22656,2.8408,0.95541,3.0696,2.5664,0.2713,1.9103-0.13976,2.25-2.7225,2.25h-3.0421l-0.27745,14.25c-0.26242,13.478-0.38809,14.266-2.3186,14.542-1.1226,0.1607-2.3601-0.0268-2.75-0.41666zm20.68-1.2803c-4.5371-2.7666-7.3947-7.3512-8.0545-12.922-0.79013-6.6714,1.0074-11.453,5.8696-15.615,5.6345-4.8229,11.164-5.5881,17.483-2.4194,5.8863,2.9517,8.3874,6.335,9.0538,12.248l0.52009,4.6143h-13.63c-12.316,0-13.63,0.16875-13.626,1.75,0.008,3.5573,3.793,8.0999,7.6333,9.1602,4.8755,1.3462,8.1548,0.50373,11.942-3.068,2.4462-2.3068,3.5458-2.7315,5.347-2.0651l2.2676,0.83883-2.7161,3.228c-1.4939,1.7754-3.9902,3.8868-5.5474,4.692-4.0706,2.105-12.746,1.8739-16.542-0.44069zm18.46-21.101c-1.503-4.3114-5.3704-6.994-10.083-6.994-3.176,0-4.6418,0.67663-7.3651,3.4-5.8612,5.8612-5.0163,6.6,7.548,6.6h10.948l-1.0479-3.006zm12.861,22.382c-0.38987-0.38985-0.70885-8.0588-0.70885-17.042v-16.333h3c2.1249,0,3,0.48278,3,1.655,0,1.5248,0.14758,1.5214,1.876-0.0427,3.3212-3.0056,8.1629-3.0942,12.374-0.22633l3.75,2.5538,3.75-2.5538c2.8464-1.9384,4.5586-2.4241,7.1058-2.0156,8.4446,1.3545,10.357,5.7568,9.9272,22.859l-0.28295,11.271h-2.5-2.5l-0.5-13.332c-0.43901-11.706-0.73678-13.505-2.4411-14.75-2.6785-1.956-5.8978-1.7734-8.6981,0.49351-2.2256,1.8017-2.3808,2.6604-2.7112,15-0.34306,12.814-0.39788,13.089-2.6063,13.089-2.1988,0-2.2692-0.32981-2.7849-13.045-0.4287-10.57-0.86475-13.416-2.2987-15-2.2426-2.4781-5.5702-2.4957-8.5989-0.0456-2.2036,1.7827-2.3941,2.7647-2.8608,14.75-0.46621,11.972-0.63795,12.86-2.5412,13.132-1.1226,0.1607-2.3601-0.0268-2.75-0.41666zm52.826-2.4791c-1.9441-1.707-3.5348-3.6838-3.5348-4.393,0-2.0772,3.2554-2.7983,4.2897-0.95028,1.4714,2.6292,7.1966,4.5927,10.135,3.4757,3.019-1.1478,4.3814-5.3531,2.4774-7.6473-0.72691-0.87587-3.6401-2.6178-6.4737-3.871-8.4774-3.7491-10.562-8.8214-5.901-14.36,3.0234-3.5931,7.2268-4.7166,11.89-3.1778,4.8466,1.5995,6.3781,3.6615,4.2787,5.7609-1.5106,1.5106-1.7723,1.5069-3.4928-0.0502-3.6523-3.3053-9.2024-1.5881-9.2024,2.8473,0,1.6258,1.599,2.9405,6.75,5.55,8.0389,4.0725,10.019,7.0585,8.2458,12.432-1.6633,5.0398-5.2903,7.4872-11.096,7.4872-3.9769,0-5.4549-0.54834-8.3651-3.1036zm94.763-5.5958c-1.2111-0.23489-3.5736-1.9893-5.25-3.8986-8.8416-10.07,3.2779-24.777,14.385-17.456,8.2786,5.4573,7.1412,16.827-2.0684,20.675-1.815,0.75835-3.6519,1.3175-4.0821,1.2426-0.43017-0.0749-1.773-0.32837-2.9841-0.56326zm143.46-1.866c-6.0889-3.3038-7.6472-12.323-3.0126-17.438,5.1321-5.6632,12.861-5.6252,17.667,0.0869,8.1304,9.6625-3.4828,23.412-14.655,17.351zm-166.32-18.89c-4.7077-2.0127-7.4152-6.0925-7.4152-11.173,0-11.492,15.026-15.547,21.114-5.6966,5.7689,9.3343-3.7902,21.106-13.699,16.87zm186.94-0.60018c-8.2617-5.293-6.2809-18.225,3.1922-20.841,4.7551-1.313,8.0941-0.28105,11.447,3.5377,5.2017,5.9244,3.7828,14.342-3.0096,17.855-3.9391,2.037-7.8811,1.85-11.63-0.55155zm-203.03-24.076c-6.8191-1.921-10.41-10.507-6.98-16.688,5.8824-10.6,21.647-6.384,21.647,5.7897,0,3.207-0.67638,4.7554-3.25,7.4399-3.6599,3.8176-6.7836,4.7638-11.417,3.4586zm223.74,0.31916c-3.9461-0.62205-6.8012-3.0597-8.4707-7.2322-1.308-3.2691-1.3634-4.5338-0.33479-7.654,2.2952-6.9627,10.59-10.28,16.692-6.6754,11.187,6.6084,4.9758,23.589-7.8868,21.562zm4.3267-30.597c-7.6724-7.6724-2.1039-19.6,9.1503-19.6,2.8173,0,4.4251,0.77546,7.0497,3.4,2.9021,2.9021,3.4,4.0882,3.4,8.1s-0.49787,5.1979-3.4,8.1-4.0882,3.4-8.1,3.4-5.1979-0.49787-8.1-3.4zm-466.67-5.6338c-9.8146-2.4536-18.692-10.459-22.234-20.051-2.9952-8.1095-2.7216-19.704,0.63617-26.961,3.4881-7.5383,7.9666-12.368,14.376-15.504,11.177-5.4682,24.126-4.042,32.825,3.6152l4.6628,4.1044v-5.1398-5.1398l4.75,0.30479,4.75,0.30479,0.26405,31.75,0.26404,31.75h-5.014-5.014v-5.0333-5.0333l-3.6606,3.6606c-6.4722,6.4722-17.728,9.5913-26.605,7.3722zm14.762-9.0869c2.3504-0.65251,5.7103-2.8231,8.1567-5.2695,10.554-10.554,9.2577-30.806-2.5011-39.07-5.8514-4.1126-15.889-4.8134-22.576-1.5763-11.72,5.6734-15.855,22.309-8.7895,35.36,5.0908,9.4038,15.082,13.506,25.71,10.556zm128.85,9.1264c-15.993-3.3456-26.69-19.092-24.857-36.593,0.75853-7.2437,4.4149-15.635,8.8238-20.252,10.639-11.139,29.649-12.11,41.026-2.0951l4.6628,4.1044v-27.585-27.585h5,5v54.5,54.5h-5-5v-5.1667-5.1667l-3.6067,3.6067c-6.6569,6.6569-16.799,9.6674-26.05,7.7324zm14.252-9.4783c8.4592-2.5121,14.214-10.337,15.144-20.59,0.69555-7.6707-0.19645-11.774-3.7136-17.084-3.6452-5.5032-9.3938-8.8288-16.536-9.5659-13.852-1.4297-23.83,8.5228-23.75,23.69,0.0602,11.373,6.1133,20.634,15.375,23.522,5.7357,1.7887,7.5403,1.7925,13.48,0.0285zm62.748,9.485c-9.3904-1.9794-18.375-9.3685-22.509-18.512-3.4199-7.5644-3.2952-20.953,0.26596-28.546,5.4698-11.662,14.276-17.819,26.763-18.712,10.598-0.7583,17.128,1.5719,24.043,8.5803,6.0109,6.0914,8.5039,11.475,9.6912,20.928l0.6594,5.25h-27.24-27.24l0.69478,3.7035c2.1951,11.701,11.189,19.323,22.746,19.275,6.786-0.0282,12.299-2.5746,17.099-7.8984,3.5878-3.9792,4.0524-4.1931,7.75-3.5684,2.1634,0.36549,3.9334,1.2325,3.9334,1.9266,0,2.478-6.1619,9.7088-10.757,12.623-7.492,4.7513-17.643,6.6921-25.9,4.9518zm27.656-39.816c0-3.0857-5.0364-12.086-7.9068-14.13-3.8844-2.7659-11.312-4.4106-16.443-3.6412-8.377,1.2562-16.092,8.3587-17.324,15.949l-0.58846,3.6263h21.131c19.697,0,21.131-0.12235,21.131-1.8037zm-355-10.68v-49.5h14.951c8.2229,0,17.335,0.49729,20.25,1.1051,18.188,3.7928,32.49,17.744,37.269,36.355,6.8989,26.867-10.339,54.819-37.269,60.435-2.9146,0.60779-12.027,1.1051-20.25,1.1051h-14.951v-49.5zm41.023,35.807c12.181-6.0047,18.874-15.314,21.038-29.264,2.8749-18.529-5.0412-34.464-21.038-42.35-6.0032-2.9593-7.3562-3.2181-18.5-3.5387l-12.023-0.34595v39.692,39.692l12.023-0.34595c11.144-0.32064,12.497-0.57945,18.5-3.5387zm121.98-18.307,0-32,5,0,5,0,0,4.1164,0,4.1164,3.9292-3.5498c4.272-3.8595,9.2659-5.6686,15.672-5.6773,8.4095-0.0114,14.596,3.7864,18.725,11.494,1.9917,3.7186,2.1675,5.7413,2.498,28.75l0.3555,24.75h-5.5896-5.5895v-23.032c0-24.728-0.55781-28.144-5.1169-31.337-1.4558-1.0197-4.355-1.6307-7.7376-1.6307-7.0389,0-11.277,2.5999-14.325,8.7877-2.167,4.3997-2.3432,6.1221-2.6569,25.962l-0.33593,21.25h-4.9141-4.9141v-32zm216-22.5,0-54.5,5,0,5,0,0,54.5,0,54.5-5,0-5,0,0-54.5zm30.236,22.75,0.26405-31.75,4.5,0,4.5,0,0.26405,31.75,0.26404,31.75-5.0281,0-5.0281,0,0.26404-31.75zm102.76-0.30479,0-32.055,4.75,0.30479c4.7184,0.30276,4.7521,0.33013,5.0639,4.1135l0.31387,3.8087,3.8654-3.4921c8.4651-7.6477,23.44-7.4007,30.709,0.50652,4.86,5.2865,5.2977,8.1239,5.2977,34.336v24.532h-5-5l-0.006-22.25c-0.003-12.238-0.45559-23.87-1.0056-25.85-1.5194-5.4699-4.1371-7.2529-11.295-7.6937-8.2329-0.50698-12.255,2.0588-15.413,9.8307-2.035,5.0094-2.2218,7.1446-2.25,25.713l-0.0303,20.25h-5-5v-32.055zm68.418,12.086c-1.1449-0.46315-3.3305-2.3264-4.8571-4.1406-7.4328-8.8334,3.2585-22.392,13.736-17.42,4.5215,2.1456,6.9752,5.8437,6.9752,10.513,0,4.711-1.6345,7.6562-5.5866,10.066-3.3603,2.0489-6.8131,2.3789-10.268,0.98138zm-3.9184-29.985c-3.4862-1.442-6.6467-5.7178-7.168-9.6977-0.95938-7.324,6.507-14.058,14-12.625,3.5666,0.6818,8.3297,5.458,9.145,9.1701,1.8467,8.408-7.9497,16.473-15.977,13.153zm-234.09-27.945c-3.8701-2.36-5.8629-7-5.0795-11.827,0.87823-5.4119,4.4334-8.463,10.545-9.0503,4.7459-0.45602,5.2857-0.26508,8.589,3.0382,3.0332,3.0332,3.5248,4.1804,3.5248,8.2248,0,4.0118-0.49787,5.1979-3.4,8.1-4.0105,4.0105-9.181,4.5628-14.18,1.5145zm224.1,0.3323c-4.1013-1.41-4.8755-2.191-7.0817-7.1442-1.9881-4.4636-0.11256-9.9413,4.4566-13.016,5.8961-3.9677,12.536-2.5573,16.249,3.4518,5.7325,9.2754-3.2396,20.279-13.624,16.708zm-156.82-2.227c-0.93439-1.0325-1.6989-3.294-1.6989-5.0255,0-6.671,8.5224-8.081,11.949-1.9769,1.3927,2.4814,1.3485,2.9088-0.56793,5.4868-2.5871,3.4803-7.244,4.2093-9.6817,1.5156zm-49.384-21.683c-6.064-2.6374-8.2864-11.76-4.1468-17.023,5.0232-6.3859,13.1-6.5493,18.299-0.3702,4.4413,5.2782,2.6784,14.178-3.4345,17.34-3.5881,1.8555-6.5406,1.8701-10.718,0.0533zm189.1-0.95775c-6.6815-2.9091-9.2473-10.135-5.8983-16.611,3.9943-7.7241,15.972-7.7241,19.966,0,3.3993,6.5736,0.7502,13.784-6.1188,16.654-3.9621,1.6555-4.0501,1.655-7.949-0.0426zm-167.22-19.203c-8.4305-4.2798-8.2177-16.766,0.35508-20.834,5.0377-2.3905,9.5032-1.3806,13.37,3.024,4.3386,4.9413,4.2781,10.162-0.17361,14.984-3.9554,4.2839-8.7227,5.2784-13.552,2.8268zm142.8-1.5727c-2.2263-1.5067-4.0138-3.8429-4.9118-6.4197-1.2821-3.6786-1.2361-4.411,0.5-7.9674,2.6378-5.4034,8.1397-8.1141,13.319-6.5622,5.8113,1.7411,8.5924,5.3686,8.5924,11.207,0,4.1442-0.47724,5.3774-3.0934,7.9936-4.2851,4.2851-9.6894,4.941-14.407,1.7485zm-115.58-13.224c-11.651-5.073-8.4844-22.579,4.0848-22.579,12.808,0,15.819,17.626,3.8642,22.621-3.9621,1.6555-4.0501,1.655-7.949-0.04259zm89.458-1.2623c-8.7464-5.4282-7.0327-18.521,2.7787-21.231,6.0983-1.6838,11.355,0.97364,13.746,6.9493,1.308,3.2691,1.3634,4.5338,0.33479,7.654-2.2985,6.9726-10.872,10.343-16.859,6.6272zm-60.68-6.99c-3.926-1.9348-6.1981-5.8911-6.1981-10.792,0-2.6642,0.86452-4.5077,3.4232-7.2997,3.0135-3.2883,3.9801-3.7353,8.0768-3.7353s5.0634,0.44706,8.0768,3.7353c2.5586,2.792,3.4232,4.6355,3.4232,7.2997,0,4.9748-2.3096,8.9095-6.3571,10.83-4.2854,2.0336-6.256,2.0264-10.445-0.03797zm30.802-0.52372c-2.2263-1.5067-4.0138-3.8429-4.9118-6.4197-1.2821-3.6786-1.2361-4.411,0.5-7.9674,2.6378-5.4034,8.1397-8.1141,13.319-6.5622,5.8113,1.7411,8.5924,5.3686,8.5924,11.207,0,4.1442-0.47724,5.3774-3.0934,7.9936-4.2851,4.2851-9.6894,4.941-14.407,1.7485z"/>
</svg>