<svg xmlns="http://www.w3.org/2000/svg" width="640" height="311.98" viewBox="0 10 640 271.98">	
  <path d="M491.355 271.747c-1.787-.404-3.807-1.5-4.926-2.67-.42-.44-1.19-1.698-1.7-2.8-.78-1.664-.94-2.34-.94-4.004s.16-2.34.94-4.005c1.1-2.356 1.96-3.325 3.9-4.415 4.52-2.53 9.99-1.165 12.98 3.244 1.01 1.49 1.43 3.25 1.33 5.605-.13 3.08-.56 4.11-2.53 6.118-2.62 2.663-5.76 3.677-9.07 2.927zm49.414-6.193c-2.16-.54-4.47-1.948-5.51-3.357-3-4.074-2.99-8.87.04-12.323 1.91-2.19 4.15-3.245 7.13-3.356 2.64-.098 3.76.21 5.78 1.582 2.53 1.73 4.12 4.793 4.16 8.026.02 1.508-.15 2.216-.85 3.72-1.22 2.602-2.13 3.554-4.49 4.708-2.24 1.096-4.47 1.45-6.27 1zm-98.33-7.61c-1.07-.206-2.85-1.084-4.19-2.056-2.49-1.813-4.29-6.434-3.56-9.132.96-3.57 2.72-5.784 5.7-7.184 1.36-.64 1.99-.753 4.18-.75 2.47.006 2.64.05 4.35 1.088 4.64 2.828 6.28 7.75 4.11 12.376-1.58 3.384-4.5 5.454-8 5.675-1.05.07-2.23.06-2.62-.01zm-206.17-4.65c-.29-.184-.12-.816.77-2.84.63-1.43 1.27-2.834 1.42-3.12.15-.284.56-1.225.9-2.09.34-.866 1.04-2.475 1.55-3.576.51-1.1 1.29-2.88 1.73-3.955l.81-1.952-1.83-3.76c-1.87-3.85-4.18-8.62-7.97-16.49-1.18-2.44-2.63-5.41-3.23-6.61-.6-1.2-1.1-2.45-1.1-2.79 0-.56.15-.61 2.12-.61 2.43 0 2.65.16 3.85 2.88.38.86 1.12 2.46 1.64 3.56 3.1 6.49 5.24 11.05 5.24 11.17 0 .39 3.49 7.29 3.68 7.29.12 0 2.39-5.11 5.04-11.37 2.64-6.25 5.04-11.85 5.34-12.44l.53-1.07h2.15c2.5 0 2.76.26 1.92 1.92-.76 1.5-1.51 3.17-2.94 6.52-.67 1.58-1.63 3.77-2.14 4.87s-1.47 3.29-2.15 4.86c-.68 1.58-1.64 3.76-2.15 4.86s-1.21 2.71-1.57 3.58c-.36.87-1.06 2.48-1.57 3.58s-1.47 3.29-2.15 4.87c-.67 1.57-1.64 3.76-2.14 4.86-.5 1.1-1.41 3.16-2.01 4.58-1.5 3.49-1.58 3.58-3.69 3.57-.96 0-1.91-.11-2.12-.24zm349.65-13.217c-1.65-.408-4.4-1.957-5.25-2.96-.41-.486-1.14-1.72-1.62-2.743-1.27-2.69-1.24-5.074.1-7.96 1.22-2.65 2.77-4.07 5.39-4.948 3.59-1.205 6.82-.64 9.43 1.645 5.59 4.9 4.12 13.85-2.69 16.4-1.89.71-3.94.93-5.38.57zm-373.18-3.786c-2.28-.79-4.23-2.14-5.58-3.88-1.54-1.97-1.59-2.54-.28-3.67.6-.52 1.18-.94 1.3-.94.11 0 .68.63 1.27 1.39 2.24 2.94 5.15 4.31 8.35 3.93 3.74-.44 6.08-4.51 4.36-7.58-.77-1.37-2.61-2.57-6.13-4.03-1.58-.64-3.4-1.49-4.06-1.87-1.67-.97-3.17-2.82-3.73-4.61-1.25-3.96 1.43-8.42 5.84-9.7 2.25-.65 6.06-.45 7.85.42 1.5.73 3.95 2.78 3.95 3.3 0 .42-2.05 2.47-2.46 2.47-.16 0-.67-.4-1.13-.89-1.87-1.99-5.63-2.64-7.57-1.32-1.6 1.09-2.14 2.07-2.14 3.85 0 1.48.07 1.64 1.1 2.54.61.52 2.09 1.35 3.29 1.85 4.5 1.84 6.32 2.83 7.71 4.19 2.02 1.99 2.45 2.96 2.44 5.53-.03 3.9-2.14 7.14-5.72 8.78-2.29 1.05-6.15 1.18-8.7.29zm56.88.13c-2.09-.68-3.22-1.41-4.85-3.1-1.6-1.66-2.26-2.62-2.26-3.26 0-.26.52-.9 1.16-1.41l1.16-.92 1.72 1.92c2.14 2.37 3.95 3.35 6.53 3.54 1.5.11 2.1.02 3-.44 3.7-1.89 4.4-6.48 1.36-8.81-.55-.42-2.6-1.45-4.55-2.29-3.97-1.71-4.71-2.12-6.08-3.38-2.12-1.94-2.7-4.4-1.77-7.4 1.15-3.68 3.87-5.63 8.19-5.86 3.53-.18 5.61.5 8.07 2.65 1.27 1.11 1.29 1.47.16 2.72-.58.64-1.17 1.16-1.32 1.16-.15 0-.68-.4-1.18-.9-2-1.99-5.7-2.63-7.66-1.3-1.97 1.33-2.75 3.42-1.93 5.21.3.68 2.8 2.72 3.32 2.72.32 0 4.57 1.82 6.33 2.71 2.23 1.13 3.89 2.97 4.47 4.96 1.29 4.43-1.02 9.08-5.54 11.16-2.18 1.01-5.99 1.18-8.39.39zm47.38.4c-.16-.05-1.21-.37-2.34-.72-2.36-.72-5.43-2.78-6.92-4.65-2.39-2.97-3.64-7.25-3.37-11.51.29-4.69 1.7-7.8 4.98-11.02 2.82-2.75 6-3.99 10.26-3.99 7.37 0 12.15 3.45 14.42 10.41.78 2.39 1.03 5.38.48 5.83-.31.26-3.65.37-12.98.42l-12.56.08.06 1.26c.18 3.96 2.38 7.22 6.23 9.25 1.6.84 1.91.91 4.72.92 2.83.02 3.12-.04 4.9-.91 1.34-.65 2.46-1.52 3.8-2.95l1.9-2.02 1.58.33c.87.18 1.65.51 1.74.73.24.65-1.14 2.71-3.02 4.5-1.9 1.81-4.82 3.34-7.42 3.89-1.37.29-5.78.41-6.49.19zm13.08-18.61c.23-.23-.49-2.77-1.2-4.24-.95-1.94-2.68-3.72-4.37-4.49-1.3-.58-1.97-.68-4.66-.68-2.88 0-3.3.07-4.95.83-1.15.53-2.24 1.32-2.98 2.15-1.82 2.05-3.32 5.71-2.61 6.42.23.23 20.52.26 20.75.03zm65.72 18.49c-.4-.14-1.04-.33-1.43-.41-2.14-.46-6.58-4.55-6.58-6.05 0-.74 1.41-2.13 2.16-2.13.4 0 .9.41 1.42 1.16 2.84 4.1 8.6 5.26 11.64 2.35 1.04-1 1.79-3.36 1.52-4.82-.28-1.52-2.73-3.86-4.72-4.51-2.25-.73-5.52-2.3-6.91-3.3-2.58-1.86-3.53-4.34-2.85-7.42.46-2.06.85-2.8 2.2-4.1 1.92-1.85 3.48-2.37 7.1-2.37 3.47 0 4.38.31 6.95 2.37 1.06.85 1.21 1.1 1.05 1.74-.2.79-1.49 2.32-1.95 2.32-.15 0-.78-.46-1.41-1.03-1.5-1.35-2.71-1.83-4.68-1.83-2.89 0-4.98 1.9-4.98 4.52 0 2 1.1 2.89 6.44 5.2 3.5 1.52 4.53 2.09 5.77 3.23 1.95 1.79 2.38 2.98 2.25 6.15-.09 2.2-.23 2.85-.9 4.08-1 1.84-2.6 3.29-4.63 4.22-1.24.57-2.15.75-4.18.82-1.43.06-2.93-.02-3.32-.16zm-103.37-.76c-.1-.25-.18-6.23-.18-13.3v-12.85h-1.52c-.84 0-1.67-.15-1.86-.34-.19-.19-.34-1-.34-1.8s.15-1.61.34-1.8c.19-.19 1.02-.34 1.86-.34h1.51v-4.93c0-2.71.11-5.1.24-5.3.16-.26.82-.34 2.21-.28l1.97.09.14 5.15.14 5.15 2.57.15 2.57.14v4l-2.57.15-2.58.15-.08 12.85c-.05 8.91-.17 12.97-.4 13.23-.48.58-3.85.53-4.08-.07zm48.87.11c-.08-.2-.11-7.12-.07-15.38l.07-15.01h4.29l.08 1.5c.04.83.16 1.5.24 1.5s.86-.64 1.71-1.42c1.04-.95 2.03-1.56 3.02-1.86 2.62-.78 5.91-.48 8.34.76.61.31 2.69 2.39 3.48 3.48l.44.62.48-.67c1.34-1.85 2.54-2.96 4.01-3.68 1.49-.73 1.88-.79 4.91-.78 2.86.01 3.46.1 4.58.68 2.54 1.31 3.82 3.21 4.73 7.04.59 2.51.6 22.8.01 23.29-.25.21-1.17.3-2.36.25l-1.96-.08-.15-11.582c-.14-11.26-.16-11.62-.77-12.77-1.28-2.39-3.47-3.47-6.38-3.13-2.9.34-4.937 2.18-5.8 5.27-.168.58-.377 5.81-.47 11.63l-.17 10.584h-4.29l-.16-11.3c-.17-12.1-.18-12.16-1.73-14.34-.79-1.12-2.82-1.97-4.7-1.97-3.055 0-5.25 1.88-6.51 5.568-.176.508-.37 5.31-.467 11.458l-.164 10.58-2.074.09c-1.5.06-2.12-.02-2.22-.283zm275.75-40.75c-3.28-1-5.66-3.69-6.71-7.56-.46-1.71-.02-4.02 1.21-6.35 2.19-4.14 7.24-6.07 11.58-4.42 2.61 1 4.12 2.39 5.4 4.97.92 1.88 1.07 2.44 1.05 4.08-.04 3.93-2.04 7.02-5.67 8.77-2.37 1.14-4.37 1.29-6.88.53zm-393.51-8.26c-.1-.1-1.89-.16-3.99-.14-8.69.08-38.54-.99-55.87-2-8.41-.49-29.81-1.98-32.89-2.29-4.86-.49-7.56-1.12-10.16-2.35-4.46-2.12-7.15-5.7-7.15-9.5 0-1.78.44-3.03 1.78-5.05.59-.89 1.08-1.75 1.08-1.89 0-.43 1.7-1.59 4-2.71 4.2-2.05 9.31-2.84 13.3-2.05 5.38 1.06 25.01 3.97 31.75 4.71 1.73.19 4.75.52 6.72.74 1.96.22 5.57.6 8.01.85 2.43.24 5.52.63 6.86.86 1.33.23 3.26.54 4.29.69 1.02.15 3.96.6 6.54 1.007 4.18.656 7.03 1.05 13.62 1.885 1.1.14 3.03.39 4.29.56 15.51 2.034 40.55 4.064 54.77 4.44 3.54.093 6.61.23 6.83.305.63.22 36.86.076 47.09-.19 9.97-.255 31.11-1.22 36.89-1.68 10.13-.8 14.68-1.2 18.16-1.57 2.12-.23 5.34-.558 7.15-.72 4.29-.4 16.98-1.97 18.45-2.288.63-.136 3.46-.52 6.29-.855 2.83-.337 7.21-.87 9.72-1.19 2.51-.31 5.65-.7 6.98-.85 2.54-.29 8.64-1.23 11.04-1.7l6.58-1.28c2.83-.55 6.43-1.31 8.01-1.69 1.57-.38 4.02-.96 5.43-1.29 1.42-.33 3.48-.86 4.58-1.17 1.1-.312 2.45-.69 3-.83 3.16-.813 13.14-3.97 13.59-4.29.15-.113 1.25-.5 2.43-.85 2.53-.76 3.88-1.404 3.53-1.702-.14-.12-.96-.51-1.82-.86-4.41-1.815-9.53-5.62-12.45-9.26-1.74-2.17-4.437-6.375-4.437-6.92 0-.13-.33-.925-.728-1.77-.4-.84-1.138-3.1-1.64-5.03-.89-3.4-.918-3.67-.917-9.51 0-6.48.1-7.12 1.91-12.58 3.726-11.22 13.1-19.353 25.455-22.07 3.202-.71 13.42-.73 16.25-.035 4.24 1.04 5.44 1.455 8.47 2.934 8.74 4.26 14.343 11.08 17.52 21.32 1.183 3.83 1.63 9.95 1.065 14.72-1.5 12.73-8.33 22.37-19.65 27.72-4.09 1.933-9.85 3.304-13.9 3.31-.82 0-1.85.15-2.29.33-1.776.722-2.885 1.21-4.57 2-.975.456-2.65 1.16-3.72 1.56-1.07.4-2.62 1.04-3.433 1.42-.812.387-1.63.7-1.802.7-.18 0-1.03.32-1.89.715-.86.39-1.68.71-1.83.71-.15 0-.69.19-1.21.42-1.9.835-4.765 1.87-6.404 2.32-4.13 1.12-15.27 3.94-18.99 4.81-4.27.997-10.08 2.29-13.16 2.92-1.81.37-4.19.874-5.29 1.12-1.1.244-3.09.64-4.43.886-4.234.775-8.38 1.54-10.01 1.85-1.67.32-4.574.805-10.15 1.69l-6.3 1c-1.57.25-3.76.576-4.86.72s-4.26.586-7.01.978c-2.76.39-6.68.916-8.73 1.16-9.64 1.165-12.63 1.507-16.308 1.87l-8.862.875c-17.42 1.72-45.842 3.43-65.212 3.92-10.39.27-71.2.43-71.43.19zM116.42 152.6c-4.51-.63-9.65-2.68-13.64-5.44-4.49-3.1-9.02-8.745-11.03-13.727-2.686-6.655-3.288-10.095-3.078-17.57.13-4.575.245-5.562 1.03-8.587.915-3.526 3.45-9.205 5.087-11.4 3.71-4.98 6.92-7.72 11.96-10.223 4.65-2.31 7.92-3.138 13.19-3.34 4.91-.19 7.68.17 11.8 1.543 3.55 1.19 4.01 1.41 7.03 3.38 2.43 1.584 5.04 3.98 6.46 5.95.47.66.95 1.2 1.06 1.2.11 0 .26-2.38.34-5.29l.14-5.293h10.01v67.5h-10l-.08-5.505c-.05-3.03-.19-5.507-.32-5.507s-.61.55-1.05 1.22c-2.19 3.31-5.82 6.29-10.22 8.37-4.27 2.02-7.53 2.76-12.66 2.87-2.36.05-5.1-.02-6.08-.15zm13.35-9.15c6.674-1.85 12.303-7.257 15.185-14.594 2.75-7 2.84-16.086.23-22.884-2.543-6.612-9.028-12.5-15.825-14.367-3.02-.83-8.764-1-12.022-.357-10.945 2.16-18.37 11.75-18.93 24.45-.27 6.11.762 11 3.294 15.576 3.23 5.845 7.51 9.636 13.333 11.81 3.69 1.38 10.46 1.55 14.736.366zm139.28 9.01c-3.156-.53-6.023-1.47-8.98-2.947-4.14-2.063-8.222-5.467-11.03-9.194-3.11-4.14-5.84-10.82-6.72-16.47-.635-4.1-.43-11.71.41-15.16 1-4.1 1.14-4.55 2.035-6.72 2.4-5.81 6.55-11.01 11.41-14.29 2.167-1.47 6.525-3.57 8.33-4.03 4.71-1.2 5.09-1.25 10.01-1.27 3.285-.01 5.597.12 6.723.37 7.32 1.68 13.136 5.15 17.413 10.4.61.74 1.22 1.36 1.36 1.36.14 0 .28-12.91.33-29.54l.08-29.53h10.01V151.3h-10.01l-.08-5.57c-.04-3.06-.19-5.68-.33-5.82-.14-.144-.67.398-1.24 1.28-1.95 3.014-6.89 7.16-10.36 8.7l-2.29 1.02c-.63.285-2.65.84-4.5 1.24-3.82.826-8.73.944-12.55.3zm13.045-8.868c6.24-1.375 11.01-5.06 14.946-11.55.52-.846.93-1.64.93-1.765s.27-.85.6-1.61c.9-2.073 1.62-5.146 1.99-8.443 1.32-11.77-4.29-22.44-14.18-27.01-3.15-1.455-4.66-1.802-8.76-2.01-7.53-.383-13.02 1.44-17.78 5.9-3.37 3.16-5.58 6.99-6.92 12.02-.73 2.715-.8 3.46-.81 7.725-.01 6.14.56 8.72 3 13.64 1.44 2.89 2.12 3.91 4.04 5.95 3.16 3.38 5.96 5.22 10.2 6.71 3.28 1.15 8.67 1.34 12.76.43zm70.796 9.008c-1.44-.23-2.35-.43-5.15-1.144-1.78-.456-5.13-1.95-7.42-3.312-5.03-2.99-9.19-7.502-11.84-12.84-3.47-6.986-4.36-11.13-4.1-19.15.19-5.91.9-9.233 2.99-14.076 2.87-6.658 7.59-11.824 14.67-16.05 1.56-.93 5.03-2.244 7.86-2.97 2.29-.588 3.24-.66 8.44-.66 4.78 0 6.24.1 7.87.53 7.39 1.944 11.67 4.27 15.91 8.65 4.69 4.843 7.49 10.75 8.86 18.69.54 3.105.68 7.9.26 8.585-.12.183-10.11.31-28.48.356l-28.3.07.06 2.29c.17 6.25 3.71 13.42 8.63 17.48 1.96 1.61 5.17 3.41 7.76 4.34 3.83 1.38 9.63 1.7 14.02.76 5.8-1.24 11.62-5.39 15.45-11.03.65-.96 1.35-1.8 1.56-1.88s1.13.06 2.05.32c.93.25 2.52.66 3.54.9 2.79.66 2.92.89 1.75 3.04-3.17 5.82-8.86 11.29-14.19 13.66-.79.35-1.68.76-1.98.92-1.05.54-3.76 1.4-6.17 1.97-2.75.64-11.27.97-14.01.53zm28.41-40.83c.25-.44-1.2-5.736-2.25-8.222-3.04-7.203-8.8-11.755-16.44-12.995-2.59-.42-6.92-.376-9.28.097-2.3.46-6.09 1.76-6.72 2.306-.23.205-.82.57-1.3.81-1.35.684-4.88 4.094-6.3 6.08-.7.986-1.77 2.867-2.37 4.18-1.11 2.423-2.23 6.784-1.93 7.544.14.36 3.27.418 23.32.418 12.74 0 23.22-.093 23.29-.212zM.09 151.098c-.08-.21-.11-24-.07-52.87L.092 45.74l13.873-.087c17.314-.11 19.45.063 27.876 2.254 1.68.436 6.99 2.55 7.18 2.86.09.145.36.265.6.265.62 0 5.49 2.844 8.18 4.78 6.3 4.534 12.27 11.664 15.41 18.39.19.392.52 1.066.75 1.496.84 1.598 1.97 4.83 3.09 8.8.65 2.318 1.52 8.027 1.71 11.298.66 11.052-2.69 23.438-8.84 32.608-5.68 8.487-12.64 14.207-22.74 18.715-3.03 1.35-9.12 3.02-13.73 3.76-3.31.53-33.13.72-33.33.21zm32.926-10.21c9.065-1.67 16.663-5.5 22.542-11.368 2.977-2.97 5.78-6.85 7.325-10.13l1.01-2.15c.493-1.05 1.4-3.89 2.103-6.58 1.032-3.95 1.315-6.73 1.295-12.73-.01-5.24-.1-6.26-.79-9.587-.43-2.046-1.24-4.94-1.8-6.437-.56-1.494-1.2-3.208-1.42-3.808-.22-.6-.63-1.438-.91-1.86-.28-.424-1.27-1.928-2.19-3.344-4.89-7.49-14.01-13.777-23.44-16.15-4.48-1.126-6.63-1.298-16.31-1.298h-9.44l-.07 42.77c-.04 23.52 0 42.94.08 43.15.25.664 17.91.265 22.05-.497zm142.06 10.353c-.512-.2-.526-66.74-.015-67.26.24-.23 1.76-.34 4.98-.34 3.96 0 4.66.06 4.81.45.1.25.18 2.44.18 4.86 0 2.61.11 4.41.28 4.41.15 0 .5-.48.78-1.06.77-1.61 4.83-5.54 7.11-6.87 2.36-1.38 5.61-2.51 8.51-2.96 2.33-.36 9.32-.2 10.66.25.47.16 1.44.45 2.15.66 2.74.78 5.23 2.32 7.58 4.69 2.42 2.44 3.74 4.56 4.77 7.66 1.52 4.6 1.47 3.49 1.58 29.83.06 13.53.04 24.89-.05 25.25-.16.65-.18.65-4.88.57l-4.72-.07-.08-20.31c-.09-21.09-.3-26.11-1.29-29.93-1.41-5.46-4.58-8.81-9.47-9.99-2.54-.61-7.21-.5-9.59.24-5.31 1.65-9.21 5.95-11.56 12.73-1.43 4.15-1.5 5.21-1.62 26.39-.06 10.86-.18 20.03-.25 20.38-.14.64-.19.64-4.782.62-2.55-.01-4.8-.08-5-.16zm231.75-.16c-.077-.2-.106-26.3-.065-58l.08-57.63h10.01v115.84l-4.94.08c-3.79.06-4.97 0-5.08-.28zm32.036 0c-.077-.2-.106-15.42-.065-33.83l.073-33.46h10.01v67.51l-4.94.08c-3.794.06-4.97 0-5.077-.28zm110.28-.2c-.455-.85-.41-66.44.047-66.89.23-.24 1.75-.34 4.97-.34 3.96 0 4.65.06 4.8.45.09.25.17 2.44.17 4.86 0 2.61.11 4.41.27 4.41.15 0 .47-.42.72-.93 1.19-2.48 5.16-6.01 8.79-7.8 3.28-1.62 5.57-2.16 10.01-2.34 8.18-.33 13.48 1.55 17.89 6.36 1.95 2.13 3.12 4.2 4.2 7.41 1.58 4.75 1.6 5.07 1.57 30.82-.02 13.05-.1 23.91-.18 24.13-.13.34-1.03.41-4.82.41-3.99 0-4.69-.06-4.83-.45-.1-.25-.18-9.22-.18-19.95-.01-25.61-.29-29.43-2.43-33.67-1.57-3.09-4.62-5.45-8.15-6.3-2.54-.62-7.22-.5-9.6.24-6.3 1.95-10.67 7.67-12.5 16.38-.54 2.53-.58 4.1-.69 22.6-.07 10.94-.19 20.17-.26 20.53-.14.64-.2.64-4.85.64-4.36 0-4.72-.04-5-.55zm79.146-1.46c-3.842-.96-6.365-3.44-7.526-7.41-1.135-3.88 1.286-8.85 5.255-10.79 1.42-.7 1.968-.8 4.206-.8 2.333 0 2.735.08 4.29.9 1.548.81 2.415 1.56 3.954 3.42.277.33.767 1.54 1.09 2.68.527 1.86.55 2.26.232 3.97-.41 2.19-1.64 4.55-2.95 5.65-2.26 1.91-6.14 2.99-8.56 2.38zm-10.22-50.84c-2.724-.94-4.386-2.51-5.82-5.51-.934-1.94-.85-5.29.19-7.55 1.122-2.44 3.35-4.48 5.678-5.19 4.643-1.42 8.988.26 11.536 4.46 1.317 2.17 1.62 4.71.87 7.29-.84 2.89-2.4 4.7-5.3 6.16-1.643.83-5.248 1-7.156.35zm-30.92-45.91c-2.137-.86-3.52-1.96-4.7-3.75-3.207-4.84-1.784-10.68 3.375-13.83 1.71-1.04 1.877-1.08 4.353-1.09 2.204 0 2.812.11 4.23.78 4.096 1.92 6.408 6.44 5.506 10.76-.897 4.3-4.53 7.38-9.02 7.65-1.762.11-2.433.01-3.745-.51zm-145.68-18.83c-1.65-.41-4.395-1.96-5.244-2.96-1.38-1.63-2.46-4.36-2.486-6.29-.062-4.72 2.575-8.18 7.356-9.65 2.105-.65 3.148-.6 5.75.25 1.967.64 5.128 3.77 5.62 5.56.513 1.86.556 5.31.084 6.66-1.548 4.43-6.818 7.49-11.08 6.43zm99.685-8.27c-1.81-.54-2.156-.75-3.996-2.42-3.206-2.91-3.783-8.67-1.235-12.34 1.815-2.61 4.803-4.17 8.095-4.2 1.64-.02 2.193.13 4.055 1.05 2.462 1.22 3.36 2.15 4.593 4.78.715 1.52.875 2.23.876 3.87 0 1.72-.14 2.33-1.03 4.2-.82 1.73-1.33 2.41-2.42 3.21-2.88 2.12-5.98 2.78-8.92 1.89zm-49.473-6.49c-1.095-.23-3.942-2.03-4.756-2.99-1.097-1.3-2.042-3.3-2.413-5.11-.36-1.75.04-3.91 1.15-6.21 1.24-2.58 5.02-4.77 8.26-4.78 3.95-.01 6.91 1.81 8.72 5.36 1 1.96 1.13 2.45 1.12 4.14-.03 3.76-2.03 7.01-5.36 8.7-1.42.73-2.15.91-3.89.97-1.18.04-2.44.01-2.81-.07z" fill="#FFF"/>
</svg>
