<?xml version="1.0" encoding="UTF-8" standalone="no"?>
<svg id="svg2" xmlns:rdf="http://www.w3.org/1999/02/22-rdf-syntax-ns#" xmlns="http://www.w3.org/2000/svg" viewBox="0 0 170 169.06" version="1.1" xmlns:cc="http://creativecommons.org/ns#" xmlns:dc="http://purl.org/dc/elements/1.1/">
 <defs id="defs4"></defs>
 <metadata id="metadata7">
  <rdf:RDF>
   <cc:Work rdf:about="">
    <dc:format>image/svg+xml</dc:format>
    <dc:type rdf:resource="http://purl.org/dc/dcmitype/StillImage"/>
    <dc:title/>
   </cc:Work>
  </rdf:RDF>
 </metadata>
 <g id="layer1" transform="translate(-345.84199,-114.51728)">
  <path id="path2830" d="m514.37,283.44c0.0223-0.1167,0.1335-0.1404,0.74961-0.1596,0.683-0.021,0.7234-0.014,0.7234,0.1371,0,0.1494-0.0476,0.1595-0.74961,0.1595-0.67169,0-0.74689-0.014-0.7234-0.137zm-91.393-1.3105c-1.15-0.2297-2.6506-0.9091-3.0929-1.4004-0.1292-0.1435-0.32983-0.3102-0.44585-0.3704-0.11601-0.06-0.40241-0.3499-0.63643-0.6436s-0.49629-0.5836-0.58282-0.6442c-0.13114-0.092-0.91924-1.5729-1.123-2.1104-0.15015-0.3961-0.30514-1.6489-0.30514-2.4665s0.15499-2.0704,0.30514-2.4665c0.21085-0.5562,0.99556-2.0228,1.1454-2.1406,0.0993-0.078,0.36204-0.3684,0.58386-0.6451,0.22183-0.2766,0.50253-0.5558,0.62378-0.6204,0.12126-0.065,0.31136-0.2266,0.42245-0.3599,0.22349-0.2682,1.8377-1.1279,2.1179-1.1279,0.0953,0,0.20679-0.033,0.2477-0.072,0.14894-0.1452,1.405-0.319,2.306-0.319,0.90097,0,2.157,0.1738,2.306,0.319,0.0409,0.04,0.15238,0.072,0.2477,0.072,0.28017,0,1.8944,0.8597,2.1179,1.1279,0.11109,0.1333,0.30151,0.2953,0.42315,0.3599,0.12164,0.065,0.4126,0.3577,0.64658,0.6515,0.23398,0.2937,0.49513,0.5828,0.58032,0.6425,0.17024,0.1192,0.89251,1.473,1.0719,2.009,0.36019,1.0764,0.46196,2.878,0.23582,4.1748-0.1466,0.8406-0.12543,0.7816-0.69477,1.9397-0.24924,0.507-0.52395,0.9714-0.61048,1.032-0.0865,0.061-0.3488,0.3505-0.58282,0.6442s-0.52042,0.5834-0.63644,0.6436c-0.11601,0.06-0.31664,0.2269-0.44584,0.3704s-0.54676,0.4232-0.92791,0.6216c-1.2757,0.664-2.2808,0.8991-3.7967,0.8878-0.5453,0-1.2205-0.053-1.5004-0.109zm29.598-3.7585c-1.15-0.2297-2.6506-0.9091-3.0929-1.4004-0.1292-0.1435-0.32983-0.3102-0.44584-0.3704-0.11602-0.06-0.40242-0.3498-0.63644-0.6436-0.23402-0.2937-0.49628-0.5836-0.58282-0.6442-0.13114-0.092-0.91923-1.5729-1.123-2.1104-0.15016-0.3961-0.30515-1.6489-0.30515-2.4665s0.15499-2.0704,0.30515-2.4665c0.20376-0.5375,0.99185-2.0185,1.123-2.1104,0.0865-0.061,0.3488-0.3505,0.58282-0.6442,0.23402-0.2938,0.52042-0.5834,0.63644-0.6436,0.11601-0.06,0.31664-0.2269,0.44584-0.3704,0.26753-0.2971,1.3896-0.9064,2.0967-1.1385,1.5593-0.5119,3.5651-0.5119,5.1244,0,0.70718,0.2321,1.8292,0.8414,2.0967,1.1385,0.12919,0.1435,0.32951,0.3102,0.44514,0.3704,0.11564,0.06,0.39177,0.3359,0.61363,0.6126,0.22187,0.2766,0.48463,0.5669,0.58393,0.645,0.14984,0.1179,0.93454,1.5844,1.1454,2.1406,0.15016,0.3961,0.30515,1.6489,0.30515,2.4665s-0.15499,2.0704-0.30515,2.4665c-0.1602,0.4226-0.97215,1.9967-1.0299,1.9967-0.0363,0-0.29947,0.2907-0.58478,0.646s-0.61318,0.6953-0.7286,0.7555c-0.11543,0.06-0.31558,0.2269-0.44477,0.3704-0.1292,0.1435-0.54676,0.4232-0.92791,0.6216-1.2757,0.664-2.2808,0.8991-3.7967,0.8878-0.5453,0-1.2205-0.053-1.5004-0.109zm-58.883-5.0113c-1.15-0.2297-2.6505-0.9091-3.0929-1.4004-0.1292-0.1435-0.32983-0.3102-0.44585-0.3704-0.11601-0.06-0.40241-0.3499-0.63643-0.6436s-0.49629-0.5836-0.58282-0.6442c-0.13114-0.092-0.91923-1.5729-1.123-2.1104-0.15015-0.3961-0.30514-1.6489-0.30514-2.4665s0.15499-2.0704,0.30514-2.4665c0.20377-0.5375,0.99186-2.0185,1.123-2.1104,0.0865-0.061,0.3488-0.3505,0.58282-0.6442,0.23402-0.2938,0.52042-0.5834,0.63643-0.6436,0.11602-0.06,0.31665-0.2269,0.44585-0.3704,0.26753-0.2971,1.3896-0.9064,2.0967-1.1385,1.5593-0.5119,3.5652-0.5119,5.1244,0,0.70717,0.2321,1.8292,0.8414,2.0967,1.1385,0.1292,0.1435,0.32951,0.3101,0.44514,0.3704,0.11563,0.06,0.39177,0.3359,0.61363,0.6125,0.22187,0.2767,0.48463,0.567,0.58393,0.6451,0.14983,0.1178,0.93455,1.5844,1.1454,2.1406,0.15016,0.3961,0.30514,1.6489,0.30514,2.4665s-0.15498,2.0704-0.30514,2.4665c-0.1602,0.4226-0.97215,1.9967-1.0299,1.9967-0.0363,0-0.29948,0.2907-0.58478,0.646s-0.61318,0.6953-0.7286,0.7555c-0.11543,0.06-0.31557,0.2269-0.44477,0.3704s-0.54676,0.4232-0.92791,0.6216c-1.2757,0.664-2.2808,0.8991-3.7967,0.8878-0.5453,0-1.2205-0.053-1.5004-0.109zm86.21-10.336c-1.15-0.2297-2.6506-0.9091-3.0929-1.4003-0.1292-0.1435-0.32983-0.3102-0.44584-0.3704-0.11602-0.06-0.40242-0.3499-0.63644-0.6436s-0.49628-0.5836-0.58281-0.6443c-0.0865-0.061-0.36125-0.525-0.61048-1.0319-0.56934-1.1582-0.54818-1.0991-0.69478-1.9398-0.22614-1.2968-0.12437-3.0983,0.23583-4.1747,0.17935-0.536,0.90162-1.8898,1.0718-2.009,0.0852-0.06,0.34637-0.3489,0.58039-0.6426s0.52042-0.5833,0.63644-0.6436c0.11601-0.06,0.31664-0.2269,0.44584-0.3704,0.26753-0.2971,1.3896-0.9063,2.0967-1.1385,1.5593-0.5119,3.5652-0.5119,5.1244,0,0.70717,0.2322,1.8292,0.8414,2.0967,1.1385,0.1292,0.1435,0.32983,0.3102,0.44585,0.3704,0.11602,0.06,0.40241,0.3499,0.63643,0.6436s0.4952,0.5829,0.58039,0.6426c0.17024,0.1192,0.89251,1.473,1.0719,2.009,0.3602,1.0764,0.46196,2.8779,0.23582,4.1747-0.1466,0.8407-0.12543,0.7816-0.69477,1.9398-0.24924,0.5069-0.52395,0.9713-0.61048,1.0319-0.0865,0.061-0.3488,0.3506-0.58282,0.6443s-0.52041,0.5833-0.63643,0.6436c-0.11602,0.06-0.31665,0.2269-0.44585,0.3704-0.12919,0.1434-0.54675,0.4231-0.9279,0.6216-1.2757,0.664-2.2808,0.899-3.7967,0.8878-0.5453,0-1.2205-0.053-1.5004-0.1091zm-132.37-15.55c-0.63898-0.3187-1.2211-1.0361-1.5329-1.8889-0.20092-0.5497-0.21233-1.996-0.0204-2.5931,0.15819-0.4923,0.53688-1.098,0.90517-1.4478,0.24957-0.2371,0.34009-0.2675,1.0864-0.3644,0.4478-0.058,1.1313-0.1294,1.5189-0.1582,0.98447-0.073,3.6741-0.3518,5.6377-0.5839,0.3876-0.046,1.0042-0.1186,1.3703-0.1618,0.36606-0.043,0.98268-0.1138,1.3703-0.157,0.38759-0.043,0.95136-0.1121,1.2528-0.1533,0.30146-0.041,1.0062-0.1301,1.566-0.1976,2.2052-0.2659,10.061-1.3165,11.119-1.487,0.38759-0.062,1.0923-0.1706,1.566-0.2404,1.5156-0.2231,2.251-0.334,3.0929-0.4662,0.45219-0.071,1.0512-0.1627,1.3311-0.2037,1.6159-0.2371,6.5268-1.0589,8.6132-1.4414,0.32299-0.059,1.1158-0.2002,1.7618-0.3134,0.64599-0.1131,1.5269-0.2726,1.9575-0.3543,3.4375-0.6522,4.4699-0.8535,6.8123-1.328,3.0009-0.608,5.0878-1.0515,6.8123-1.4475,0.64599-0.1484,1.6502-0.3774,2.2316-0.5089,3.4133-0.7722,8.7813-2.1076,11.863-2.9511,0.55986-0.1532,1.1514-0.3144,1.3146-0.3582,0.1632-0.044,0.28545-0.1134,0.27168-0.1547-0.0138-0.041-0.58775-0.2776-1.2755-0.525-3.9746-1.4297-7.3968-3.3796-10.647-6.0663-1.2062-0.9972-3.4738-3.2647-4.471-4.471-4.4593-5.394-7.075-11.581-7.9119-18.714-0.1939-1.6526-0.1939-5.6295,0-7.2821,0.83691-7.1332,3.4526-13.32,7.9119-18.714,0.99722-1.2063,3.2647-3.4738,4.471-4.471,5.394-4.4593,11.581-7.075,18.714-7.9119,1.6526-0.1939,5.6294-0.1939,7.2821,0,7.1332,0.8369,13.32,3.4526,18.714,7.9119,1.2063,0.9972,3.4738,3.2647,4.471,4.471,4.4593,5.394,7.075,11.581,7.9119,18.714,0.1939,1.6526,0.1939,5.6295,0,7.2821-0.74736,6.37-2.8906,11.927-6.5383,16.952-1.9762,2.7227-4.8837,5.6301-7.6063,7.6064-4.3994,3.1933-9.4396,5.323-14.721,6.22-1.3242,0.225-2.731,0.5695-3.0962,0.7584-0.42173,0.218-5.5068,1.9246-7.9835,2.6793-0.51679,0.1575-1.0277,0.3178-1.1354,0.3563-0.17012,0.061-5.255,1.5509-5.6769,1.6636-0.0861,0.023-1.2665,0.3455-2.6231,0.7167-2.8815,0.7885-9.4612,2.4319-12.215,3.0509-1.0551,0.2372-2.2355,0.5028-2.6231,0.5902-2.611,0.5888-6.2143,1.3254-11.706,2.3927-1.3508,0.2625-5.4607,1.0027-7.1646,1.2903-0.77519,0.1308-1.6032,0.2723-1.8401,0.3143-0.23686,0.042-0.88873,0.1484-1.4486,0.2364-0.55986,0.088-1.2117,0.1928-1.4486,0.233-0.79047,0.134-0.97063,0.1631-2.4665,0.3989-0.81826,0.129-1.8401,0.2857-2.2708,0.3484-0.43066,0.063-1.2587,0.1848-1.8401,0.2715-3.8312,0.5712-10.998,1.5324-14.016,1.8797-0.36606,0.042-1.247,0.1475-1.9576,0.2341-1.2668,0.1543-3.0654,0.3666-5.0113,0.5914-1.2374,0.143-1.3048,0.1411-1.6831-0.048zm82.463-26.68c3.2758-0.4666,5.8829-1.2589,8.68-2.6377,2.4962-1.2305,4.6477-2.7663,6.58-4.697,4.1529-4.1493,6.5654-9.1079,7.4526-15.318,0.19902-1.3931,0.19844-5.8741-0.00094-7.2344-0.30045-2.0498-0.67125-3.6112-1.2791-5.3861-2.0609-6.0174-6.1186-10.898-11.62-13.976-2.6847-1.5022-5.826-2.5903-8.9626-3.1045-1.894-0.3104-2.1581-0.319-9.8269-0.319h-7.4778l-0.02,26.348c-0.011,14.492-0.003,26.395,0.0188,26.451,0.0316,0.083,1.4439,0.097,7.6545,0.072,7.295-0.028,7.6656-0.037,8.8017-0.1985zm-8.4684-8.3279c-0.0219-0.058-0.0308-8.1562-0.0198-17.997l0.0201-17.892,3.2887,0.01c4.335,0.012,6.0206,0.1862,8.1942,0.8457,5.9427,1.8029,10.032,6.117,11.49,12.121,0.45893,1.89,0.51778,2.465,0.51523,5.0338-0.002,2.0954-0.0219,2.4627-0.1839,3.4014-0.67407,3.9066-2.2836,7.1534-4.7657,9.6132-2.0558,2.0373-4.9566,3.6269-7.9689,4.3668-1.9512,0.4793-2.5612,0.5309-6.7132,0.5684-3.1404,0.028-3.8241,0.016-3.8569-0.071zm77.48,25.344c-1.15-0.2298-2.6506-0.9091-3.0929-1.4004-0.1292-0.1435-0.32983-0.3102-0.44584-0.3704-0.11602-0.06-0.40242-0.3499-0.63644-0.6436s-0.49628-0.5836-0.58282-0.6442c-0.13114-0.092-0.91924-1.5729-1.123-2.1104-0.15016-0.3961-0.30515-1.6489-0.30515-2.4665,0-0.8177,0.15499-2.0704,0.30515-2.4665,0.20375-0.5376,0.99185-2.0186,1.123-2.1104,0.0865-0.061,0.3488-0.3505,0.58282-0.6443,0.23402-0.2937,0.52042-0.5833,0.63644-0.6435,0.11601-0.06,0.31664-0.227,0.44584-0.3704,0.26753-0.2971,1.3896-0.9064,2.0967-1.1386,1.5593-0.5119,3.5652-0.5119,5.1244,0,0.70718,0.2322,1.8292,0.8415,2.0967,1.1386,0.1292,0.1434,0.32984,0.3101,0.44585,0.3704,0.11602,0.06,0.40241,0.3498,0.63643,0.6435,0.23403,0.2938,0.49629,0.5837,0.58282,0.6443,0.13115,0.092,0.91924,1.5728,1.123,2.1104,0.15016,0.3961,0.30515,1.6488,0.30515,2.4665,0,0.8176-0.15499,2.0704-0.30515,2.4665-0.20376,0.5375-0.99185,2.0185-1.123,2.1104-0.0865,0.061-0.34879,0.3505-0.58282,0.6442-0.23402,0.2937-0.52041,0.5833-0.63643,0.6436-0.11601,0.06-0.31665,0.2269-0.44585,0.3704-0.12919,0.1434-0.54675,0.4232-0.9279,0.6216-1.2757,0.664-2.2808,0.899-3.7967,0.8878-0.5453,0-1.2205-0.053-1.5004-0.109zm6.5774-29.285c-1.15-0.2297-2.6505-0.9091-3.0929-1.4004-0.1292-0.1435-0.32983-0.3102-0.44584-0.3704-0.11602-0.06-0.40242-0.3499-0.63644-0.6436s-0.49628-0.5836-0.58281-0.6442c-0.0865-0.061-0.36125-0.525-0.61048-1.032-0.56934-1.1581-0.54818-1.0991-0.69478-1.9397-0.22614-1.2968-0.12437-3.0984,0.23583-4.1748,0.17935-0.536,0.90162-1.8898,1.0718-2.009,0.0852-0.06,0.34637-0.3488,0.58039-0.6425,0.23402-0.2938,0.52042-0.5834,0.63644-0.6436,0.11601-0.06,0.31664-0.2269,0.44584-0.3704,0.26754-0.2971,1.3896-0.9064,2.0967-1.1385,1.5593-0.5119,3.5651-0.5119,5.1244,0,0.70718,0.2321,1.8292,0.8414,2.0967,1.1385,0.12919,0.1435,0.32983,0.3101,0.44584,0.3704,0.11602,0.06,0.40242,0.3498,0.63644,0.6436,0.23402,0.2937,0.49519,0.5828,0.58039,0.6425,0.17023,0.1192,0.8925,1.473,1.0718,2.009,0.3602,1.0764,0.46197,2.878,0.23582,4.1748-0.14659,0.8406-0.12543,0.7816-0.69477,1.9397-0.24923,0.507-0.52395,0.9714-0.61048,1.032-0.0865,0.061-0.34879,0.3505-0.58281,0.6442s-0.52042,0.5834-0.63644,0.6436c-0.11601,0.06-0.31665,0.2269-0.44584,0.3704-0.1292,0.1435-0.54676,0.4232-0.92791,0.6216-1.2757,0.664-2.2808,0.8991-3.7967,0.8878-0.5453,0-1.2205-0.053-1.5004-0.109zm-5.4811-30.459c-1.15-0.2297-2.6506-0.9091-3.0929-1.4004-0.12919-0.1435-0.32983-0.3102-0.44584-0.3704-0.11602-0.06-0.40241-0.3499-0.63643-0.6436-0.23403-0.2937-0.49629-0.5836-0.58282-0.6442-0.13115-0.092-0.91924-1.5729-1.123-2.1104-0.15016-0.3961-0.30515-1.6489-0.30515-2.4665s0.15499-2.0704,0.30515-2.4665c0.20376-0.5375,0.99185-2.0186,1.123-2.1104,0.0865-0.061,0.34879-0.3505,0.58282-0.6443,0.23402-0.2937,0.52041-0.5833,0.63643-0.6435,0.11601-0.06,0.31665-0.2269,0.44584-0.3704,0.26754-0.2971,1.3896-0.9064,2.0967-1.1385,1.5593-0.5119,3.5651-0.5119,5.1244,0,0.70717,0.2321,1.8292,0.8414,2.0967,1.1385,0.1292,0.1435,0.32983,0.3101,0.44584,0.3704,0.11602,0.06,0.40242,0.3498,0.63644,0.6435,0.23402,0.2938,0.49628,0.5837,0.58282,0.6443,0.21014,0.1472,1.175,2.0898,1.1844,2.3844,0.002,0.065,0.0564,0.3641,0.12071,0.6656,0.21,0.9839,0.10861,3.2179-0.18125,3.9934-0.23028,0.6161-0.94566,1.927-1.1778,2.1582-0.15403,0.1534-0.43861,0.4794-0.63241,0.7244-0.19379,0.2449-0.41912,0.467-0.50072,0.4933-0.0816,0.026-0.2754,0.1833-0.43066,0.3488-0.15527,0.1655-0.59415,0.4641-0.9753,0.6635-1.2706,0.665-2.278,0.9011-3.7967,0.8898-0.54531,0-1.2205-0.053-1.5004-0.109zm-18.323-27.341c-0.32299-0.063-0.62073-0.1479-0.66165-0.1883-0.0409-0.04-0.15237-0.073-0.24769-0.073-0.28017,0-1.8944-0.8596-2.1179-1.1278-0.1111-0.1334-0.3012-0.2953-0.42245-0.3599-0.12126-0.065-0.40196-0.3438-0.62378-0.6205-0.22183-0.2767-0.48456-0.5669-0.58386-0.645-0.14984-0.1179-0.93455-1.5844-1.1454-2.1406-0.15016-0.3961-0.30515-1.6489-0.30515-2.4665,0-0.8177,0.15499-2.0704,0.30515-2.4666,0.20376-0.5375,0.99185-2.0185,1.123-2.1103,0.0865-0.061,0.34879-0.3506,0.58281-0.6443s0.52042-0.5833,0.63644-0.6436c0.11601-0.06,0.31665-0.2269,0.44584-0.3703,0.26754-0.2972,1.3896-0.9064,2.0967-1.1386,1.5593-0.5119,3.5651-0.5119,5.1244,0,0.70718,0.2322,1.8292,0.8414,2.0967,1.1386,0.1292,0.1434,0.32983,0.3101,0.44584,0.3703,0.11602,0.06,0.40242,0.3499,0.63644,0.6436s0.49628,0.5837,0.58281,0.6443c0.0865,0.061,0.36125,0.525,0.61048,1.0319,0.56934,1.1582,0.54818,1.0991,0.69478,1.9398,0.22614,1.2968,0.12437,3.0983-0.23582,4.1747-0.17936,0.5361-0.90163,1.8898-1.0719,2.0091-0.0852,0.06-0.34634,0.3488-0.58032,0.6425s-0.52494,0.5869-0.64659,0.6515c-0.12164,0.065-0.31205,0.2265-0.42315,0.3599-0.22348,0.2682-1.8377,1.1278-2.1179,1.1278-0.0953,0-0.20678,0.033-0.24769,0.073-0.29542,0.288-2.8254,0.4092-3.9503,0.1891zm-89.029-12.045c-1.15-0.2297-2.6506-0.9091-3.0929-1.4004-0.1292-0.1435-0.32983-0.3102-0.44585-0.3704-0.11601-0.06-0.40241-0.3499-0.63643-0.6436s-0.49629-0.5836-0.58282-0.6442c-0.0865-0.061-0.36125-0.525-0.61048-1.032-0.56934-1.1582-0.54818-1.0991-0.69477-1.9397-0.22614-1.2968-0.12438-3.0984,0.23582-4.1748,0.17935-0.536,0.90163-1.8898,1.0719-2.009,0.0852-0.06,0.34634-0.3488,0.58032-0.6426,0.23398-0.2937,0.52494-0.5869,0.64659-0.6515,0.12164-0.065,0.31205-0.2265,0.42315-0.3598,0.22348-0.2682,1.8377-1.1279,2.1179-1.1279,0.0953,0,0.20679-0.033,0.2477-0.073,0.14894-0.1453,1.405-0.319,2.306-0.319,0.90096,0,2.157,0.1737,2.306,0.319,0.0409,0.04,0.15237,0.073,0.24769,0.073,0.28017,0,1.8944,0.8597,2.1179,1.1279,0.11109,0.1333,0.30119,0.2952,0.42245,0.3598,0.12125,0.065,0.40195,0.3439,0.62378,0.6205,0.22183,0.2767,0.48456,0.567,0.58386,0.6451,0.14983,0.1178,0.93454,1.5844,1.1454,2.1406,0.15016,0.3961,0.30514,1.6489,0.30514,2.4665s-0.15498,2.0704-0.30514,2.4665c-0.20376,0.5375-0.99185,2.0185-1.123,2.1104-0.0865,0.061-0.34879,0.3505-0.58282,0.6442-0.23402,0.2937-0.52041,0.5833-0.63643,0.6436-0.11602,0.06-0.31665,0.2269-0.44584,0.3704-0.1292,0.1435-0.54676,0.4232-0.92791,0.6216-1.2757,0.664-2.2808,0.899-3.7967,0.8878-0.5453,0-1.2205-0.053-1.5004-0.109zm62.015-4.4632c-1.1795-0.2356-2.6338-0.9045-3.1403-1.4443-0.15526-0.1655-0.34906-0.3224-0.43066-0.3488-0.0816-0.026-0.30692-0.2484-0.50072-0.4933-0.1938-0.245-0.47838-0.571-0.63241-0.7244-0.23209-0.2312-0.94747-1.5421-1.1778-2.1582-0.15008-0.4016-0.30431-1.6516-0.30431-2.4665,0-0.8176,0.15499-2.0704,0.30515-2.4665,0.20376-0.5375,0.99185-2.0186,1.123-2.1104,0.0865-0.061,0.34876-0.3505,0.58274-0.6443,0.23398-0.2937,0.52494-0.5869,0.64659-0.6515,0.12164-0.065,0.31205-0.2265,0.42315-0.3598,0.22348-0.2682,1.8377-1.1279,2.1179-1.1279,0.0953,0,0.20678-0.033,0.24769-0.072,0.14909-0.1454,1.4051-0.319,2.3078-0.319,0.97072,0,1.7662,0.1175,2.5605,0.3782,0.70718,0.2322,1.8292,0.8415,2.0967,1.1386,0.12919,0.1435,0.32983,0.3101,0.44584,0.3704,0.11602,0.06,0.40242,0.3498,0.63644,0.6435,0.23402,0.2938,0.4998,0.5861,0.59063,0.6498,0.1358,0.095,0.88652,1.5132,1.1143,2.1049,0.15027,0.3903,0.30607,1.6458,0.30607,2.4665,0,0.8176-0.15499,2.0704-0.30515,2.4665-0.20376,0.5375-0.99185,2.0185-1.123,2.1104-0.0865,0.061-0.34879,0.3505-0.58281,0.6442s-0.52042,0.5833-0.63644,0.6436c-0.11601,0.06-0.31665,0.2269-0.44584,0.3704-0.1292,0.1435-0.54676,0.4232-0.92791,0.6216-1.2757,0.664-2.2808,0.899-3.7967,0.8878-0.5453,0-1.2205-0.053-1.5004-0.109zm-31.399-4.3066c-1.15-0.2298-2.6506-0.9091-3.0929-1.4004-0.1292-0.1435-0.32983-0.3102-0.44585-0.3704-0.11601-0.06-0.40241-0.3499-0.63643-0.6436s-0.49629-0.5836-0.58283-0.6442c-0.13114-0.092-0.91923-1.5729-1.123-2.1104-0.15015-0.3961-0.30514-1.6489-0.30514-2.4665s0.15499-2.0704,0.30514-2.4665c0.20376-0.5375,0.99185-2.0186,1.123-2.1104,0.0865-0.061,0.34881-0.3505,0.58283-0.6443,0.23402-0.2937,0.52042-0.5833,0.63643-0.6435,0.11602-0.06,0.31665-0.2269,0.44585-0.3704,0.26752-0.2971,1.3896-0.9064,2.0967-1.1386,1.5593-0.5118,3.5652-0.5118,5.1245,0,0.70717,0.2322,1.8292,0.8415,2.0967,1.1386,0.1292,0.1435,0.32952,0.3101,0.44515,0.3704,0.11563,0.06,0.39176,0.3359,0.61362,0.6125,0.22187,0.2767,0.48464,0.567,0.58393,0.6451,0.14984,0.1178,0.93455,1.5844,1.1454,2.1406,0.15016,0.3961,0.30515,1.6489,0.30515,2.4665s-0.15499,2.0704-0.30515,2.4665c-0.20375,0.5375-0.99185,2.0185-1.123,2.1104-0.0865,0.061-0.3488,0.3505-0.58282,0.6442s-0.52042,0.5833-0.63644,0.6436c-0.11601,0.06-0.31664,0.2269-0.44584,0.3704s-0.54676,0.4232-0.92791,0.6216c-1.2757,0.664-2.2808,0.899-3.7967,0.8878-0.5453,0-1.2205-0.053-1.5004-0.109z" fill="#FFF"/>
 </g>
</svg>