<svg xmlns="http://www.w3.org/2000/svg" width="640" height="292.00" viewBox="0 10 640 272.00">
  <path d="M490.95 271.64c-2.712-.86-4.867-2.732-6.066-5.273-.62-1.317-.735-1.953-.735-4.11 0-2.086.11-2.79.65-3.87.93-1.9 2.6-3.674 4.35-4.627 1.28-.704 1.9-.846 4.1-.944 2.34-.104 2.74-.043 4.31.662 1.93.868 3.86 2.725 4.88 4.702.88 1.703 1.08 5.283.42 7.285-.6 1.79-2.07 3.75-3.65 4.83-2.31 1.586-5.75 2.144-8.28 1.344zm49.308-6.22c-2.694-.89-4.72-2.602-6-5.065-.687-1.32-.78-1.817-.79-4.19-.01-2.38.08-2.877.774-4.29.878-1.786 2.645-3.564 4.5-4.526.936-.49 1.86-.67 3.828-.77 2.323-.11 2.76-.05 4.16.59 1.996.91 3.828 2.6 4.883 4.51.763 1.38.83 1.73.83 4.33 0 2.4-.1 3.04-.662 4.18-.92 1.88-2.89 3.8-4.78 4.67-1.91.87-4.99 1.12-6.74.54zm-98.537-7.736c-2.11-.627-4.69-2.772-5.72-4.76-.8-1.552-.87-1.9-.87-4.533 0-2.41.1-3.03.64-4.04 2.12-3.96 5.72-5.92 9.96-5.41 2.32.28 4.09 1.14 5.76 2.81 1.4 1.4 1.96 2.46 2.61 4.97.35 1.32.35 1.77-.01 3.27-.8 3.47-2.69 5.87-5.67 7.24-1.85.85-4.72 1.05-6.68.47zm5.85-2.197c1.38-.574 3.16-2.283 3.83-3.665.87-1.787.89-5.03.04-6.708-1.66-3.296-4.81-4.9-8.27-4.22-2.96.583-5.28 2.834-6.06 5.87-.44 1.72-.43 1.87.15 3.777 1.08 3.55 4 5.62 7.67 5.43.93-.04 2.13-.26 2.65-.48zm-7.14-2.495c-.43-.432-.47-8.517-.05-9.313.26-.48.61-.55 2.7-.55 2.47 0 3.92.38 4.62 1.22.63.75.52 2.35-.22 3.35-.52.71-.59.99-.34 1.35.18.25.72 1.2 1.2 2.11.98 1.85.86 2.25-.59 2.11-.79-.08-1.07-.34-1.95-1.79-.88-1.47-1.14-1.7-1.87-1.7-.82 0-.84.04-.93 1.55-.05.85-.24 1.65-.42 1.77-.52.33-1.74.26-2.12-.12zm4.94-6.363c.22-.87-.42-1.52-1.49-1.52-.82 0-.99.3-.77 1.39.16.77.29.88 1.13.88.8 0 .98-.13 1.14-.76zm-209.15 7.01c-.16-.27.93-3.08 2.41-6.19.46-.97.84-1.84.84-1.93 0-.09.46-1.15 1.02-2.35 1.51-3.23 2.95-6.77 2.95-7.27 0-.24-.43-1.37-.96-2.5-2.05-4.4-3.91-8.26-6.97-14.52-5.28-10.81-6.25-12.92-6.08-13.2.09-.15 1.09-.26 2.23-.26 2.42 0 2.48.05 3.84 2.97l3.7 7.93c5.73 12.29 6.49 13.79 6.97 13.69.43-.09 1.92-3.45 8.64-19.49 1.08-2.56 2.12-4.76 2.31-4.89.65-.41 4.19-.29 4.36.15.08.21-.48 1.77-1.25 3.47-1.75 3.83-5.71 12.85-5.71 13 0 .06-.72 1.67-1.59 3.59-1.61 3.53-4.4 9.87-6.96 15.81-.77 1.79-1.79 4.08-2.26 5.1-.48 1.01-1.3 2.86-1.84 4.11-.53 1.24-1.17 2.42-1.43 2.62-.53.4-3.93.48-4.17.1zm349.05-13.74c-1.68-.56-2.96-1.41-4.33-2.9-1.81-1.97-2.39-3.49-2.4-6.36-.01-2.06.1-2.66.79-4.11 1.03-2.19 3.12-4.17 5.25-4.97 2.18-.82 5.82-.72 7.73.22 1.66.81 3.77 2.92 4.59 4.58.54 1.09.64 1.75.64 4.27 0 2.77-.06 3.08-.84 4.49-.98 1.78-2.9 3.57-4.65 4.36-1.6.72-5.12.92-6.74.39zm-371.61-3.39c-2.7-.81-3.81-1.5-5.76-3.6-2.17-2.35-2.23-2.68-.74-4.07l1.22-1.13.6.77c2.34 3.03 4.56 4.53 7.26 4.88 1.99.26 4.28-.72 5.53-2.36.9-1.18.99-1.47.99-3.17 0-3.09-.9-3.95-6.69-6.42-5.16-2.2-6.71-3.53-7.67-6.57-.41-1.31-.42-1.69-.1-2.99.78-3.1 2.14-4.76 4.93-6.04 1.43-.65 2.05-.76 4.41-.77 2.37-.01 2.97.08 4.3.7 1.84.86 3.95 2.63 3.95 3.31 0 .53-1.67 2.3-2.17 2.3-.16 0-.48-.22-.69-.48-.21-.26-.96-.83-1.65-1.28-1.12-.71-1.52-.8-3.54-.8-2.52 0-3.46.4-4.44 1.88-.81 1.23-.74 3.76.14 4.71.78.83 3.08 2.04 6.04 3.16 4.17 1.57 6.8 3.85 7.59 6.57.56 1.91.54 2.52-.13 4.68-1.06 3.45-3.47 5.73-7.1 6.74-2.62.73-3.55.71-6.23-.08zm56.63-.02c-2.52-.75-4-1.69-5.81-3.7-2.09-2.33-2.13-2.59-.65-3.91l1.27-1.12.58.71c.32.39.99 1.22 1.5 1.85 1.32 1.62 4.22 3.01 6.29 2.99 2.15-.02 3.99-.89 5.1-2.41.76-1.05.87-1.44.87-3.03 0-1.23-.16-2.1-.5-2.67-.61-1.03-2.43-2.23-5.04-3.31-6-2.49-8.19-4.26-8.9-7.23-.96-4.04 2.08-8.45 6.48-9.4.53-.12 2-.22 3.28-.22 1.9-.01 2.58.11 3.85.7 1.75.81 3.95 2.61 3.95 3.22 0 .22-.44.88-.98 1.47-.73.79-1.07.98-1.37.77-.22-.16-.94-.7-1.62-1.2-1.51-1.14-3.12-1.6-4.9-1.39-2.69.32-4.16 1.88-4.16 4.44 0 2.19 1.08 3.13 5.95 5.19 4.21 1.78 6.09 2.99 7.36 4.74 2.26 3.11 1.6 7.76-1.53 10.9-1.45 1.45-2.82 2.19-5.16 2.8-2.26.59-3.18.55-5.81-.23zm46.46.24c-3.89-.78-7.72-3.39-9.67-6.59-2.63-4.33-3.29-9.54-1.81-14.23 2.23-7.07 7.85-11.09 15.19-10.89 7.68.21 12.56 4.43 14.22 12.28.68 3.22.69 3.54.12 4.11-.39.39-1.96.44-13 .44-10.71 0-12.58.06-12.71.41-.22.59.87 4.34 1.66 5.69.83 1.42 2.83 3.29 4.34 4.06.62.31 2.07.79 3.21 1.05 1.8.41 2.34.42 3.93.11 1.02-.2 2.42-.63 3.12-.95 1.25-.58 3.99-3.05 4.91-4.41.45-.66.51-.68 1.96-.35 2.34.53 2.42.63 1.54 2.11-1.45 2.47-4.65 5.17-7.34 6.2-1.88.71-5.08 1.36-6.53 1.33-.65-.02-2.05-.2-3.1-.41zm13.33-19.79c-.18-1.59-1.3-4.04-2.46-5.36-.5-.57-1.69-1.43-2.64-1.9-1.61-.81-1.93-.87-4.87-.87-2.87 0-3.29.07-4.86.81-.94.45-2.18 1.22-2.75 1.72-1.25 1.1-3.04 4.54-3.04 5.86v.95h20.76l-.14-1.24zm66.1 19.8c-.86-.19-2.12-.64-2.82-.99-1.56-.8-4.27-3.36-4.99-4.71l-.54-1.01 1.26-1.18 1.26-1.18.59.84c1.84 2.61 4.82 4.55 7.41 4.82 1.89.19 4.15-.76 5.34-2.24.77-.95.89-1.34.98-3.21l.11-2.13-1.39-1.34c-1.1-1.06-2.17-1.67-5.21-2.95-4.49-1.91-6.32-3.24-7.35-5.39-1.4-2.91-.6-6.46 1.98-8.78 1.85-1.66 3.69-2.27 6.93-2.27 2.21 0 2.85.1 4.15.71 1.84.86 3.95 2.62 3.95 3.3 0 .53-1.68 2.3-2.18 2.3-.17 0-.48-.21-.69-.47-.21-.26-.96-.84-1.65-1.28-1.11-.71-1.52-.8-3.54-.8-3.59 0-4.97 1.21-4.97 4.34 0 2.34.86 3.03 6.95 5.55 4.54 1.88 6.43 3.59 7.41 6.72.46 1.43.46 1.64-.01 3.62-.96 4.08-3.62 6.66-7.88 7.67-2.06.48-2.89.49-5.04.01zm-103.8-.9c-.11-.11-.2-5.98-.2-13.05v-12.84h-1.2c-.66 0-1.37-.11-1.57-.24-.44-.29-.65-3.42-.25-3.94.15-.2.88-.36 1.65-.36h1.38l.08-5.03.08-5.03h4.53l.08 5.03.08 5.03h2.66c3 0 3 0 3 2.22-.01 2.01-.19 2.15-3.03 2.31l-2.49.14-.14 12.89-.14 12.89-2.14.08c-1.17.04-2.23-.01-2.34-.12zm49.02-.01c-.1-.11-.19-6.86-.19-15.01 0-16.98-.26-15.51 2.77-15.35l1.63.08.15 1.47c.08.81.24 1.56.35 1.67.11.11.94-.49 1.85-1.33 1.95-1.8 3.75-2.44 6.62-2.36 3.06.09 4.61.76 6.79 2.97 1.04 1.05 2.01 1.83 2.16 1.73.15-.1.63-.66 1.06-1.24.97-1.29 3-2.67 4.55-3.09 1.34-.37 4.96-.43 6.39-.11 1.57.34 2.93 1.14 4.04 2.37 2.51 2.77 2.64 3.68 2.54 17.26l-.08 11.13-2.18-.08-2.18-.09-.03-10.2c-.02-6.05-.16-10.86-.34-11.82-.57-3.02-1.56-4.15-4.27-4.94-3.03-.89-6.2.39-7.54 3.04-1.16 2.29-1.33 4.03-1.37 14.29l-.04 9.63-2.18.08-2.19.08-.11-10.14c-.06-5.58-.25-10.87-.41-11.76-.69-3.75-2.44-5.31-5.96-5.32-2.33-.01-3.54.41-4.65 1.59-2.13 2.27-2.78 6.39-2.78 17.73V236h-2.08c-1.14 0-2.16-.08-2.26-.19zm276.05-40.43c-2.55-.72-4.87-2.81-6.1-5.5-.84-1.84-.96-5.18-.25-7.1 1.01-2.73 3.66-5.26 6.3-6.02 1.84-.53 5.39-.25 7.05.57 1.89.92 3.71 2.8 4.64 4.77 1.01 2.14 1.07 5.7.13 7.77-.84 1.85-2.97 4.04-4.81 4.94-1.84.9-4.88 1.15-6.94.57zm-399.58-15.35c-.11-.12-5.53-.27-12.04-.33-6.51-.07-14.26-.17-17.22-.23-12.95-.28-31.95-.82-39.53-1.12-4.25-.17-10.64-.43-14.59-.59-1.87-.08-4.8-.21-6.51-.29l-5.81-.27c-1.48-.07-4.22-.2-6.09-.3s-4.55-.23-5.95-.28c-1.4-.06-3.44-.17-4.53-.26-1.09-.09-3.45-.23-5.24-.31s-4.53-.23-6.09-.32-3.66-.2-4.67-.22c-1.01-.02-2.41-.13-3.11-.24-.7-.11-2.34-.26-3.64-.33-3.93-.21-6.27-1.9-6.27-4.52 0-1 .18-1.32 1.37-2.46 1.6-1.55 3.41-2.08 5.66-1.66.74.13 1.91.23 2.61.21.71-.02 2.49.05 3.97.15 1.48.1 3.52.23 4.54.29 1.01.05 3.82.22 6.24.36s4.97.27 5.67.3c.7.02 2.428.11 3.83.2s3.89.21 5.527.29c1.63.07 4.12.19 5.52.26 5.117.26 9.975.49 12.33.58 1.32.05 4 .17 5.95.27 3.34.17 7.54.33 15.02.58 1.79.06 5.425.18 8.075.28 2.65.09 6.92.23 9.49.29l10.06.28c18.008.5 81.17.7 97.77.3 4.52-.1 10.45-.24 13.18-.3 4.58-.1 7.57-.2 17.43-.59 2.02-.08 5.08-.2 6.8-.26 7.41-.27 20.13-.89 23.94-1.17 3.03-.22 4.83-.34 8.22-.51 2.94-.15 4.916-.28 9.07-.61 1.17-.09 2.38-.17 2.69-.17.31-.01 2.097-.14 3.967-.3 4.246-.35 5.146-.43 7.79-.62 1.17-.09 2.956-.23 3.97-.32l3.257-.29c.78-.07 2.12-.2 2.98-.29.86-.09 2.13-.2 2.838-.26 3.9-.29 6.21-.5 9.78-.89 3.75-.41 4.86-.54 7.23-.83.54-.07 1.82-.197 2.83-.28 1.57-.13 9.67-1.08 11.9-1.39.39-.058 1.41-.187 2.27-.29 4.78-.57 12.968-1.66 15.3-2.04 1.48-.24 3.14-.49 3.68-.56 1.28-.17 6.21-.92 6.95-1.06.31-.06 1.21-.2 1.99-.3 7.75-1.056 35.68-6.44 36.26-7 .37-.35-.19-.84-2.23-1.94-4.73-2.546-9.226-6.67-12.125-11.126-5.246-8.065-7.08-19.085-4.77-28.68 3.14-13.14 12.13-22.3 25.13-25.62 3.35-.85 4.59-.98 9.72-.97 5.143 0 6.39.13 9.713.98 6.37 1.63 11.144 4.34 15.65 8.89 4.475 4.52 7.125 9.24 8.794 15.67.94 3.59 1.06 4.8 1.05 10.28-.01 4.103-.106 5.06-.78 7.795-2.094 8.543-6.19 14.923-12.813 19.97-2.57 1.96-9.15 5.14-12.82 6.2-8.37 2.416-17.86 4.825-27.49 6.98-7.76 1.74-12.54 2.69-29.05 5.806-1.28.24-11.81 1.88-13.88 2.16-.46.066-4.04.57-7.93 1.13-3.9.56-7.53 1.07-8.08 1.14-.54.07-1.94.26-3.11.42-3.063.436-3.23.456-6.66.8-1.713.174-3.41.38-3.765.465-.357.08-1.44.21-2.41.29-.966.08-2.84.27-4.167.43s-5.41.605-9.07.987-7.3.77-8.08.85c-.78.09-2.05.21-2.83.27-.78.07-2.18.2-3.12.29-.93.1-1.95.18-2.266.19-.31.01-1.78.13-3.26.28-1.48.15-3.775.32-5.1.4-1.324.08-2.855.22-3.4.32-.546.1-1.757.22-2.69.27-.937.05-2.47.16-3.4.25-1.87.17-4.396.35-8.08.55-1.324.08-3.49.21-4.816.3-5.98.4-8.925.57-14.31.84-1.87.1-4.356.23-5.525.3-1.17.063-3.59.19-5.38.27-1.79.08-4.6.22-6.235.3-6.24.32-11.26.495-22.53.8-14.92.403-22.09.56-27.2.6-3.12.02-14.98.144-26.36.27-11.38.125-20.78.13-20.9.01zm-100.45-27.34c-18.25-2.58-30.27-19-28.63-39.11.52-6.33 3.19-13.65 6.7-18.38 1.88-2.53 5.67-6.15 8.16-7.78 3.55-2.33 7.29-3.84 11.73-4.72 3.62-.72 10.34-.6 13.79.26 6.49 1.61 12.08 5.01 15.69 9.56.79.99 1.54 1.8 1.68 1.8.14 0 .29-2.33.33-5.17l.08-5.17h10.2l.07 33.29c.04 20.68-.03 33.45-.2 33.72-.22.35-1.1.42-4.96.42s-4.74-.08-4.96-.43c-.14-.24-.27-2.69-.27-5.46s-.11-5.03-.25-5.03-.79.7-1.45 1.56c-5 6.49-13.33 10.49-22.38 10.76-1.95.06-4.33 0-5.3-.14zm11.11-8.92c7.83-1.61 14.3-7.77 17.11-16.32 1.25-3.78 1.61-6.82 1.43-11.89-.2-5.45-.57-7.1-2.52-11.19-2.71-5.68-6.08-9.04-11.64-11.58-3.34-1.53-5.23-1.88-10.19-1.87-6.54.01-9.8 1.01-14.29 4.4-2.57 1.94-4.04 3.5-5.6 5.94-3 4.69-4.23 9.38-4.21 16.07.03 7.05 1.83 12.67 5.72 17.85 3.43 4.55 9.11 7.89 15.15 8.91 2.14.36 6.52.2 9.07-.32zm143.81 9.11c-.08-.09-.91-.24-1.84-.35-3.48-.41-8.54-2.05-11.47-3.74-5.52-3.17-10.58-8.72-13.29-14.59-2.51-5.44-3.49-9.99-3.51-16.24-.01-5.37.18-7.29 1.12-10.9 2.6-10.03 8.34-17.34 16.96-21.57 4.9-2.41 8.04-3.14 13.89-3.23 6.45-.11 10.39.76 15.59 3.43 3.43 1.76 7.73 5.36 9.33 7.82.57.87 1.15 1.01 1.41.33.1-.25.17-13.5.17-29.44 0-26.18.04-29.01.45-29.17.25-.1 2.34-.18 4.66-.18 3.45 0 4.29.08 4.65.44.4.4.45 6.03.44 57.74 0 35.53-.1 57.45-.27 57.72-.21.34-1.11.44-4.42.51-2.28.05-4.46.01-4.83-.08l-.67-.17v-5.31c0-6.06-.17-6.69-1.35-5.17-1.51 1.95-5.05 5.46-6.72 6.65-4.55 3.24-10.46 5.19-16.58 5.44-1.94.08-3.6.08-3.68 0zm10.4-9.41c2.61-.58 6.46-2.51 8.8-4.4 3.51-2.84 7.03-8.55 8.29-13.46 3.48-13.5-1.34-26.41-11.89-31.85-4.3-2.22-5.38-2.45-11.76-2.43-5.38.01-5.78.05-7.94.77-7.7 2.58-12.94 8.51-15.17 17.16-.29 1.14-.58 2.61-.65 3.26-.06.65-.21 2.11-.33 3.25-.3 2.92.73 8.82 2.19 12.5 3.16 7.97 9.12 13.32 17.01 15.28 2.49.62 8.49.56 11.48-.1zm71.92 9.32c-4.56-.68-9.43-2.14-12.19-3.66-8.98-4.95-14.49-12.28-17.01-22.65-.59-2.46-1.11-7.16-1.05-9.52.32-11.32 5.08-21.49 12.95-27.67 3.07-2.41 5.2-3.66 8.18-4.82 7.02-2.73 14.6-3.16 22.14-1.26 10.25 2.59 17.79 9.37 21.55 19.37.92 2.44 2.08 7.32 2.31 9.7.2 2.09.16 6.36-.07 6.72-.08.12-12.87.21-28.44.21H334.7l-.088 1.2c-.107 1.45.66 5.71 1.414 7.87 2.778 7.93 8.92 13.56 17.03 15.6 2.11.53 2.946.59 7.368.47 5.324-.14 6.743-.44 10.084-2.11 3.455-1.74 7.428-5.34 10.18-9.22.743-1.06 1.5-1.92 1.682-1.92.18 0 1.54.32 3.02.72l3.756 1c1.312.35 1.333.71.163 2.78-1.66 2.94-2.99 4.69-5.38 7.12-6.36 6.44-14.41 9.79-24.19 10.04-2.34.06-4.64.05-5.1-.02zm26.78-41.88c0-2.84-3.04-10.16-5.51-13.28-2.74-3.46-7.39-6.16-12.05-7.03-2.53-.47-8.48-.41-10.96.11-6.76 1.41-12.34 5.75-15.54 12.08-1.19 2.34-2.13 5.31-2.32 7.29l-.17 1.77h46.56v-.96zM.49 151.3c-.47-.284-.497-3.103-.497-52.817 0-44.79.058-52.57.398-52.85.3-.25 3.97-.3 14.38-.19 7.7.07 14.56.19 15.26.26 3.54.34 4.93.55 7.79 1.18 7.76 1.68 15.16 5.13 21.25 9.91 2.49 1.95 7.49 6.9 9.04 8.95 4.43 5.844 7.53 12.55 9.37 20.3.77 3.212.88 3.94 1.23 7.74 1.28 14.1-3.22 28.67-12.05 39.022-9.32 10.925-21.5 17.047-36.6 18.4-3.62.323-29.02.4-29.54.09zm27.426-9.757c20.18-1.34 35-14.02 38.7-33.11.747-3.85.844-4.99.857-10.12.02-6.98-1.037-12.72-3.41-18.528-2.013-4.93-4.495-8.61-8.528-12.644-2.897-2.9-5.18-4.56-9.148-6.66-5.604-2.97-10.72-4.42-18.057-5.14-2.272-.22-15.922-.44-16.614-.26l-.673.17v43.19c0 34.27.073 43.22.354 43.35.336.16 13.457-.04 16.518-.24zm147.7 9.85c-.273-.07-.563-.407-.645-.747-.08-.34-.11-15.478-.07-33.63l.08-33.02 5.03-.078 5.03-.078.01 4.18c.01 3.99.24 5.38.78 4.75.14-.16.93-1.14 1.76-2.19 2.9-3.65 7.13-6.39 11.77-7.62 3.23-.86 9.53-.97 12.97-.24 6.35 1.36 11.38 5.407 13.96 11.225.92 2.06 2.11 6.71 2.32 9 .09.95.21 12.07.27 24.72.11 20.8.08 23.04-.33 23.45-.38.375-1.19.45-4.75.45-2.36 0-4.45-.1-4.64-.22-.25-.166-.37-5.47-.48-21.748-.08-11.84-.2-22.295-.27-23.23-.56-7.4-2.74-11.87-6.89-14.105-1.56-.84-5.95-1.91-7.85-1.91-1.33 0-4.61.65-6.3 1.24-6.09 2.15-10.56 9.15-11.75 18.39-.22 1.71-.37 9.3-.44 21.93l-.11 19.31-.63.16c-.72.195-8.02.178-8.77-.02zm232.09.01c-.47-.13-.496-3.138-.496-58.04 0-52.535.04-57.915.448-58.07.246-.096 2.34-.173 4.655-.173 3.447 0 4.288.08 4.653.445.402.4.445 6.027.44 57.737-.002 35.535-.105 57.457-.272 57.72-.217.346-1.094.436-4.6.475-2.383.02-4.556-.02-4.828-.1zm32.022-.01c-.47-.123-.496-1.973-.496-33.838v-33.7l4.888.075 4.888.078.073 33.44c.07 31.187.04 33.46-.4 33.794-.47.344-7.74.473-8.94.16zm110.09.01c-.28-.113-.355-7.15-.355-33.848v-33.7l5.03.075 5.03.07.08 4.32c.042 2.38.185 4.32.318 4.32s.78-.69 1.43-1.54c1.52-1.97 3.41-3.725 5.55-5.158 7.69-5.15 19.96-5.147 27.19.012 4.19 2.98 6.63 6.97 8.07 13.14.61 2.592.62 2.994.61 27.315 0 13.58-.08 24.76-.17 24.86-.09.09-2.26.17-4.83.17-3.83 0-4.71-.08-4.93-.43-.16-.26-.26-9.08-.26-22.98.01-14.93-.09-23.27-.3-24.66-1.1-7.46-4.51-11.33-11.07-12.56-3.5-.66-4.93-.57-8.91.55-1.76.49-5.34 2.79-6.62 4.24-2.89 3.29-4.96 8.16-5.7 13.41-.2 1.4-.3 9.17-.29 21.9.02 17.74-.02 19.79-.43 20.19-.38.38-1.17.45-4.75.44-2.36-.01-4.46-.09-4.65-.17zm78.283-2.043c-2.86-.75-5.65-3.217-6.66-5.903-.9-2.41-.72-5.86.42-7.96.94-1.72 2.66-3.41 4.44-4.36 1.07-.57 1.64-.66 4.21-.66s3.15.09 4.21.66c1.88 1 3.63 2.77 4.5 4.54.7 1.41.79 1.91.78 4.29-.01 2.37-.1 2.87-.79 4.19-1.69 3.26-4.67 5.19-8.25 5.34-1.1.04-2.38-.02-2.85-.14zm-9.22-50.58c-2.53-.684-5.13-2.95-6.32-5.515-.88-1.92-.85-5.873.07-7.764.92-1.9 2.56-3.65 4.32-4.63 1.41-.78 1.73-.84 4.5-.84 2.52 0 3.18.1 4.27.64 1.67.82 3.75 2.91 4.56 4.57.93 1.91 1.06 5.57.27 7.68-1.74 4.64-6.78 7.17-11.66 5.85zM588.43 53c-4.67-1.165-7.94-5.807-7.39-10.487 1.16-9.886 14.506-11.807 18.636-2.682.935 2.07.896 5.38-.087 7.49-.4.86-1.08 1.98-1.52 2.49-2.26 2.68-6.33 4.02-9.65 3.19zm-147.5-19.35c-4.678-1.327-7.782-6.37-6.813-11.065.468-2.262 1.217-3.67 2.74-5.15 1.853-1.802 3.517-2.515 6.162-2.642 2.82-.135 4.36.3 6.38 1.8 2.02 1.503 3.37 3.695 3.79 6.17.72 4.2-1.74 8.726-5.68 10.47-1.57.695-4.88.905-6.59.418zm99.962-8.258c-1.588-.566-3.12-1.663-4.25-3.044-1.543-1.887-2.042-3.397-2.042-6.182 0-2.06.114-2.64.788-4.014 3.78-7.695 14.79-7.31 17.803.625.69 1.793.72 5.038.07 6.95-.65 1.938-3.66 4.946-5.6 5.6-1.69.573-5.24.607-6.76.065zm-49.415-6.5c-5.6-1.83-8.41-8.244-5.88-13.42.904-1.85 2.81-3.785 4.566-4.635 1.858-.9 5.52-1.095 7.392-.396 6.51 2.44 8.59 10.55 3.99 15.58-1.94 2.12-3.916 3.06-6.72 3.18-1.31.06-2.633-.06-3.348-.29z" fill="#FFF"/>
</svg>
