<svg xmlns="http://www.w3.org/2000/svg" width="640" height="291.66" viewBox="0 10 640 271.66">
  <path d="M490.477 271.258c-4.005-1.687-6.095-4.844-6.095-9.21 0-3.594 2.13-6.817 5.624-8.51 2.004-.97 5.557-.904 7.746.146 5.986 2.87 7.372 10.255 2.86 15.248-1.65 1.828-3.44 2.577-6.45 2.7-1.937.08-2.824-.01-3.685-.374zm49.25-6.26c-1.863-.736-3.72-2.32-4.818-4.11-.92-1.485-1.01-1.855-1.14-4.322-.14-2.593-.11-2.77.75-4.518 2.12-4.313 6.29-6.296 10.82-5.145 3.38.86 6.11 3.45 6.92 6.568.52 2.02.53 2.96.04 4.8-.83 3.09-2.42 5.05-5.25 6.42-1.75.86-5.57 1.02-7.34.32zm-98.853-7.872c-2.058-.875-3.513-2.242-4.64-4.36-1.525-2.86-1.485-5.897.12-9.102 1.834-3.666 6.135-5.43 10.738-4.406 1.873.416 2.33.653 3.715 1.918 2.212 2.022 3.004 3.708 3.18 6.762.13 2.28.082 2.552-.734 4.262-1.71 3.58-4.443 5.392-8.384 5.553-1.96.08-2.55-.012-4-.627zm-204.53-4.107c0-.16.397-1.15.882-2.2 1.022-2.22 1.698-3.73 2.387-5.32.948-2.19 1.487-3.42 2.058-4.68 1.12-2.46 1.7-3.84 1.88-4.42.2-.66-.41-2.13-3.57-8.62-1.1-2.26-2.95-6.09-4.12-8.51-1.16-2.42-3.12-6.38-4.35-8.81-1.71-3.39-2.15-4.49-1.89-4.75.19-.19 1.12-.34 2.1-.34 2.08 0 2.43.26 3.44 2.54.38.86 1.21 2.64 1.84 3.97.64 1.32 1.57 3.3 2.07 4.39 5.81 12.54 6.47 13.86 7.02 13.97.26.05.65-.48 1.05-1.42.71-1.64 1.87-4.29 2.28-5.19.14-.31.51-1.21.81-1.99.3-.78.89-2.18 1.3-3.12 1.63-3.68 2.06-4.67 2.67-6.24.3-.78.89-2.18 1.31-3.12 1.74-3.91 1.77-3.94 4.28-3.78 1.34.08 1.4.12 1.34.89-.03.44-.3 1.33-.6 1.98-1.48 3.18-2.03 4.42-2.03 4.56 0 .09-.39 1.02-.88 2.07-1.1 2.4-2.59 5.72-3.52 7.86-.67 1.54-1.43 3.28-2.15 4.89-1.2 2.69-1.62 3.63-2.1 4.75-.64 1.48-1.38 3.15-3.26 7.37-.27.62-.72 1.64-.99 2.27-.81 1.87-1.44 3.31-2.25 5.1l-1.29 2.86-.98 2.19-.47 1.06h-2.11c-1.22 0-2.11-.12-2.11-.29zm347.96-13.84c-3.45-1.69-5.527-4.84-5.527-8.4 0-3.93 1.698-6.84 5.013-8.6 2.092-1.11 3.828-1.37 6.19-.93 5.828 1.1 8.98 6.76 7.155 12.86-.464 1.55-2.766 3.96-4.675 4.89-1.27.62-2.082.8-4.023.88-2.224.09-2.578.03-4.133-.73zm-367.81-2.31c-.23-.13-1.083-.31-1.896-.41-1.58-.2-3.62-1.04-5.105-2.1-1.303-.93-2.88-2.95-3.078-3.93-.145-.73-.027-.95.85-1.62l1.02-.78 2.053 2.1c1.573 1.61 2.42 2.23 3.615 2.68 2.156.79 4.638.67 6.314-.31 1.547-.91 1.688-1.09 2.438-3.12.73-1.98.502-3.32-.818-4.83-.69-.79-3.525-2.4-5.81-3.31-4.446-1.76-7.047-3.85-7.383-5.92-.092-.57-.265-1.28-.385-1.59-.12-.31-.12-.88.01-1.28.12-.4.3-1.18.38-1.73.34-2.28 3.16-4.79 6.05-5.39 4.16-.87 7.6.01 10.11 2.57l1.11 1.14-1.21 1.2c-1.06 1.05-1.26 1.14-1.55.75-.66-.86-2.74-2.17-4.03-2.53-2.92-.82-5.9.85-6.67 3.72-.27.99-.25 1.37.12 2.13.46.97 2.71 2.78 3.8 3.06.8.2 3.33 1.31 5.68 2.49 2.32 1.16 4.48 3.41 4.73 4.92.1.6.3 1.39.44 1.75.17.42.16.84-.02 1.18-.16.29-.29.84-.29 1.22 0 1.18-1.34 3.68-2.61 4.88-1.64 1.54-3.3 2.38-5.11 2.59-.83.09-1.7.26-1.93.39-.24.12-.62.12-.85-.01zm56.694 0c-.23-.13-1.08-.3-1.892-.39-2.982-.34-6.445-2.71-7.93-5.44l-.618-1.14 1.107-.93 1.108-.93 2.203 2.21c1.834 1.84 2.463 2.29 3.762 2.67 4.205 1.25 7.464-.26 8.804-4.07.428-1.22.085-2.79-.877-4.01-.668-.85-2.75-2.31-3.72-2.62-.72-.23-1.904-.73-4.774-2.05-2.19-1.01-4-2.52-4.64-3.86-.65-1.38-.61-5.06.08-6.57.79-1.74 3.16-3.66 5.23-4.24 4.08-1.15 7.86-.32 10.41 2.28l1.25 1.27-1.17 1.16-1.16 1.17-1.23-1.19c-3.33-3.2-8.75-2.21-9.87 1.8-.29 1.06-.27 1.34.24 2.33.66 1.29 2.11 2.49 3.67 3.04 1.2.42 3.08 1.24 5.39 2.36 1.85.88 4.18 2.93 4.7 4.14.78 1.76 1.07 3.27.76 3.85-.16.3-.29.86-.29 1.24 0 1.18-1.34 3.68-2.61 4.88-1.64 1.54-3.3 2.39-5.1 2.59-.82.09-1.69.27-1.93.39-.23.12-.62.12-.85 0zm46.213.02c-.23-.14-1.19-.33-2.12-.42-3.31-.34-6.05-1.8-8.59-4.58-2.7-2.97-3.8-6.12-3.79-10.92.01-5.09 1.17-8.21 4.25-11.4 4.53-4.69 11.8-5.9 17.93-2.98 1.88.89 5.39 4.05 5.39 4.84 0 .21.18.53.39.71.56.46 1.55 3.78 1.84 6.12.14 1.09.29 2.17.36 2.41.1.37-1.47.43-12.7.5-12.76.07-12.82.07-13.14.67-.87 1.63 1.32 6.73 3.79 8.84 2.24 1.91 4.61 2.7 7.78 2.59 3.88-.13 6.97-1.73 8.99-4.65.43-.62.93-1.18 1.11-1.25.18-.07.97.08 1.75.33 1.12.36 1.4.57 1.33.99-.2 1.17-2.66 4.05-4.44 5.21-2.57 1.67-3.96 2.2-6.68 2.58-1 .14-2.08.32-2.39.42-.31.09-.76.05-.99-.08zm11.04-18.58c.44-.52-.83-4.32-1.96-5.88-2.83-3.92-8.19-5.28-12.7-3.22-3.42 1.56-4.85 3.14-6.2 6.86-.51 1.42-.59 1.94-.34 2.24.49.59 20.73.58 21.22-.01zm68.04 18.53c-.22-.15-.92-.27-1.54-.28-1.43-.02-4.36-1.32-5.94-2.64-1.09-.92-2.98-3.39-2.98-3.91 0-.12.51-.62 1.13-1.11l1.13-.9 2.06 2.11c2.47 2.52 4.18 3.32 6.94 3.2 2.6-.11 4.05-1.07 5.22-3.45.88-1.78.91-1.93.57-3.19-.58-2.19-2.38-3.58-7-5.39-4.79-1.88-6.85-3.68-7.63-6.64-.35-1.34-.33-1.71.11-3.37.85-3.17 3.07-5.28 6.22-5.94 4.18-.88 7.76.11 10.39 2.85l.83.87-1.17 1.17-1.17 1.17-1.31-1.15c-1.27-1.12-3.32-2.05-4.52-2.05-1.11 0-2.7.59-3.56 1.32-1 .84-1.98 2.6-1.98 3.55 0 1.82 2.19 3.64 6.3 5.22 3.67 1.41 4.63 1.95 6.26 3.46 1.85 1.72 2.19 2.59 2.19 5.63 0 2.13-.1 2.69-.74 3.9-1.52 2.9-4.14 4.83-7 5.15-.8.09-1.66.27-1.9.39s-.62.11-.85-.04zm-105.71-13.85c0-10.11-.08-13.08-.35-13.25-.19-.13-1.05-.29-1.91-.37l-1.56-.15-.08-1.46c-.11-1.96.37-2.44 2.32-2.32l1.45.08.08-5.17.08-5.18h3.96l.01 4.89c.01 2.69.1 5.02.21 5.18.12.17 1.25.29 2.59.28 2.91-.02 3.2.19 3.09 2.22l-.08 1.45-2.53.08c-1.39.04-2.7.22-2.9.39-.29.24-.37 2.97-.37 13.31V236h-3.97v-13.02zm48.66 12.83c-.1-.11-.19-6.79-.19-14.86 0-16.68-.16-15.57 2.36-15.56.81 0 1.61.1 1.79.21.18.11.38.88.46 1.7.08.82.21 1.56.29 1.64.08.08.85-.55 1.71-1.41 1.23-1.23 1.91-1.66 3.21-2.04 2.57-.75 5.96-.51 8.03.56.83.43 3.54 3.18 3.79 3.85.12.3.61-.08 1.76-1.34 1.73-1.9 2.59-2.45 4.98-3.18 2.17-.66 5.78-.33 7.87.72 2.48 1.25 3.53 2.95 4.5 7.32.14.62.21 5.95.17 11.84l-.08 10.71-2.19-.09-2.19-.08-.01-11.2-.02-11.19-.83-1.69c-.71-1.43-1.06-1.8-2.34-2.47-1.3-.68-1.77-.78-3.47-.7-2.73.13-4.41 1.02-5.44 2.88-1.36 2.46-1.42 3.03-1.45 14.02l-.03 10.35h-4.53l-.03-10.78c-.02-9.44-.09-10.97-.52-12.27-.97-2.92-2.56-4.08-5.68-4.15-3.51-.08-5.61 1.53-6.83 5.24-.44 1.34-.52 2.92-.61 11.83l-.11 10.27h-2.06c-1.13 0-2.14-.08-2.25-.19zm276-40.76c-1.71-.54-3.01-1.42-4.45-3.03-3.13-3.49-2.61-10.14 1.03-13.09 1.62-1.31 2.59-1.78 4.6-2.19 4.25-.88 8.39 1.24 10.43 5.34.54 1.08.66 1.77.66 3.86 0 2.16-.11 2.79-.74 4.11-.96 2.02-2.52 3.56-4.64 4.57-1.39.66-2.06.81-3.68.79-1.09-.01-2.52-.19-3.17-.39zm-415.59-15.55c-.42-.13-4.02-.24-8-.26-8.9-.05-22.1-.35-33.02-.75-2.34-.09-6.16-.22-8.5-.3-2.34-.08-5.91-.2-7.93-.28-2.02-.08-5.21-.2-7.08-.27s-4.8-.2-6.52-.29c-3.87-.2-8.44-.42-12.33-.58-4.37-.19-8.87-.42-16.58-.86-1.4-.08-3.7-.2-5.1-.27-1.4-.07-3.57-.19-4.82-.27-1.24-.08-3.35-.2-4.67-.27-7.91-.4-10.49-1.48-10.49-4.4 0-1.77 1.14-3.34 2.9-4 .8-.3 6.98-.17 13.55.29 3.89.27 7.07.44 9.55.52 1.28.04 2.56.14 2.84.23.28.09 2.87.25 5.76.36 5.05.19 6.46.25 13.6.6 4.08.2 8.5.39 12.9.57l6.8.27c5.51.22 10.77.42 15.31.56 2.34.08 6.23.21 8.65.3 18.37.68 37.53.94 70.87.94 32.09 0 41.59-.13 66.76-.94 6.14-.2 14.67-.55 20.7-.86l5.53-.28c5.3-.27 13.55-.76 19.56-1.16 1.17-.08 2.76-.16 3.54-.18.78-.02 3.46-.22 5.95-.44s5.36-.46 6.37-.53c1.02-.07 2.67-.19 3.69-.28 1.01-.09 2.2-.17 2.64-.18 1.56-.03 19.92-1.74 20.61-1.92.39-.1.91-.16 1.16-.13.74.09 22.62-2.43 31.44-3.63 3.5-.48 12.21-1.72 14.03-2 3.99-.63 12.76-2.07 19.84-3.27 3.7-.63 23.69-4.66 23.97-4.83.56-.35.19-.7-1.79-1.68-2.31-1.15-2.61-1.32-4.6-2.68-2.47-1.69-4.69-3.78-6.64-6.26-1.04-1.33-1.99-2.6-2.1-2.84-.11-.24-.46-.81-.77-1.28s-.76-1.3-1.01-1.84c-.24-.55-.67-1.51-.96-2.13-.68-1.51-1.6-4.7-1.96-6.81-.16-.94-.36-2.09-.44-2.55-.08-.47-.15-2.9-.15-5.39-.01-6.71.87-10.96 3.29-15.87 2.1-4.27 3.73-6.53 6.95-9.67 5.11-4.98 11.56-8.05 19.23-9.17 2.57-.38 8.99-.37 11.91.01 4.92.64 10.4 2.69 14.6 5.47 3.39 2.24 7.8 7 9.88 10.66.676 1.18 1 1.85 2.01 4.11 1.016 2.26 2.38 7.85 2.568 10.49.57 8.18-.57 14.382-3.84 20.9-1.76 3.485-3.16 5.4-6.21 8.45-5.65 5.64-10.5 7.83-26.38 11.94-8.91 2.3-13.25 3.32-20.84 4.92-2.65.56-14.47 2.91-17.15 3.41-1.323.25-2.98.57-3.682.71-1.54.32-5.41.96-10.2 1.7-1.95.3-3.81.61-4.14.68-.32.073-1.92.33-3.54.56l-8.9 1.29c-10.43 1.51-36.61 4.68-42.95 5.195-.7.053-2.426.19-3.83.293-1.4.11-3.57.32-4.82.46-2.39.28-3.28.36-8.08.68-1.635.11-4.06.31-5.38.45s-3.99.33-5.93.43c-1.94.1-3.61.23-3.72.3-.11.07-1.97.19-4.13.28s-4.17.223-4.45.31c-.29.084-1.44.19-2.55.235-1.12.04-3.12.14-4.44.22-9.58.54-15.25.83-27.93 1.41-8.484.39-25.05.87-37.275 1.09-14.18.25-72.31.39-73.07.17zm-82.27-26.85c-.23-.16-.93-.28-1.56-.27-1.22.03-5.51-.86-7.4-1.54-4.54-1.63-9.28-4.76-12.47-8.24-6.19-6.75-9.2-15.07-9.19-25.4.01-12.8 4.44-22.01 14.14-29.4 1.22-.93 5.63-3.17 7.46-3.78 1.45-.49 3.97-1.06 6.89-1.55 1.95-.33 7.6-.19 10.1.26 2.76.49 6.27 1.6 8.35 2.64 3.34 1.67 7.17 4.84 9.43 7.79.57.74 1.14 1.35 1.26 1.35.13 0 .23-2.29.23-5.09 0-4.28.07-5.16.46-5.54.39-.39 1.14-.44 4.89-.38l4.44.08.08 33.67.07 33.67-4.89-.08-4.89-.08-.08-5.46c-.04-3.18-.19-5.46-.34-5.46-.14 0-.42.28-.6.62-.76 1.43-3.15 4.14-4.83 5.5-2.7 2.18-5.17 3.59-8.32 4.71-3.85 1.38-12.2 2.59-13.18 1.92zm10.73-9.22c6.75-2.14 12.02-7.25 14.93-14.46.75-1.87 1.89-6.4 2.06-8.22.14-1.48.19-5.39.1-7.49-.13-3.21-2.7-9.86-4.97-12.9-3.38-4.53-7.1-7.24-12.07-8.81-6.89-2.18-14.5-1.34-20.2 2.23-7.67 4.79-11.77 12.86-11.87 23.34-.05 5.95 1.52 11.42 4.64 16.14 2.77 4.17 5.68 6.71 10.23 8.89 3.78 1.81 5.57 2.16 10.56 2.08 3.69-.07 4.57-.18 6.62-.83zm142.62 9.25c-.23-.14-1.32-.33-2.42-.43-6.38-.56-13.08-3.79-18.01-8.68-2.85-2.83-4.2-4.74-6.2-8.73-3.5-7.02-4.77-15.31-3.59-23.46.7-4.83 1.57-7.73 3.49-11.69 3.72-7.64 10.52-13.53 18.41-15.93 4.67-1.42 11.61-1.85 16.31-1.02 2.4.42 6.85 1.87 8.78 2.86 2.34 1.19 5.32 3.57 7.89 6.28 2.11 2.21 2.83 2.82 2.96 2.47.1-.25.18-13.59.18-29.64V35.58l5.03.076 5.04.078v115.088l-5.03.077-5.03.07v-5.32c0-5.9-.18-6.7-1.2-5.32-2.56 3.44-5.92 6.59-8.74 8.2-1.15.66-1.72.93-4.09 2-3.15 1.42-12.5 2.9-13.74 2.17zm7.8-8.64c6-.75 12.46-5.19 16.13-11.07 3.52-5.66 5.23-14.64 4-21.06-.57-3.01-1.81-6.67-2.71-8.04-.15-.23-.46-.81-.68-1.28-.61-1.28-3.24-4.5-4.68-5.74-2.32-2-4.68-3.47-6.96-4.35-2.14-.83-5-1.61-6.21-1.7-1.67-.12-5.86-.06-7.18.1-2.58.32-6.86 1.78-8.23 2.81-.37.28-.79.5-.93.5-.54 0-4.19 3.2-5.26 4.62-2.35 3.12-2.96 4.15-3.9 6.64-2.8 7.45-2.83 15.4-.08 22.25 1.73 4.31 3.25 6.64 6.32 9.73 2.5 2.51 3.16 3 5.59 4.16 3.02 1.45 6.54 2.6 7.32 2.4.27-.07.67-.02.88.12.39.26 4.07.19 6.62-.13zm75.55 8.6c-.23-.16-.95-.29-1.6-.29-3.7-.01-10.18-2.05-13.56-4.26-.47-.31-1.04-.64-1.27-.75-2.32-1.06-9.92-8.9-9.92-10.23 0-.15-.27-.62-.6-1.05-1.45-1.85-3.6-8.38-4.21-12.79-.29-2.11-.37-8.98-.13-10.62.55-3.66.8-4.85 1.44-6.9.99-3.13 3.48-8.14 5.2-10.43 1.71-2.28 5.7-6.11 7.89-7.57 2.08-1.38 6.56-3.54 8.55-4.11 6.01-1.73 14.12-1.8 20.41-.19 5.26 1.35 9.46 3.75 13.35 7.63 2.4 2.39 5.25 6.33 6.1 8.43.24.59.61 1.46.82 1.92 1.25 2.79 2.71 9.24 2.71 11.97 0 .68.13 1.49.29 1.79.17.31.22 1.14.11 1.96l-.19 1.42h-28.29c-25.96 0-28.33.04-28.76.47-.31.31-.41.71-.3 1.2.1.4.23 1.38.29 2.18.23 2.77 2.14 8.67 3.29 10.13.3.38.55.78.55.88 0 .1.69 1.04 1.53 2.09 3.61 4.52 8.4 7.46 14.1 8.64 2.6.54 2.56.54 5.57.56 3.54.03 5.16-.23 8.35-1.34 4.63-1.6 8.61-4.68 12.15-9.39 1.36-1.8 2.2-2.68 2.57-2.68.73 0 7.13 1.69 7.42 1.96.29.27-1.53 3.74-2.99 5.69-2.57 3.45-7.35 7.74-9.96 8.94-.48.22-1.07.53-1.3.68-1.66 1.06-6.05 2.58-9.11 3.16-4.66.87-9.78 1.29-10.44.84zm25.42-41c.34-.87-1.16-6.22-2.63-9.4-1.82-3.94-5.38-7.72-9.07-9.64-2.45-1.28-6.67-2.62-8.3-2.65-1.67-.03-5.5-.03-6.26-.01-1.89.05-7.39 1.89-8.75 2.92-.37.28-.79.51-.92.51-.53 0-4.02 2.99-5.46 4.68-.83.97-2.16 3.09-2.96 4.71-1.67 3.37-3.08 8.29-2.55 8.92.26.32 4.33.38 23.54.38 20.94 0 23.24-.04 23.39-.45zm-366.88 39.3l-14.74-.14L0 98.54c-.04-28.756.03-52.384.15-52.507.314-.313 29.76-.252 32.52.067 7.204.834 15.146 3.52 20.977 7.097.623.383 1.494.88 1.935 1.104 1.46.75 6.532 5 8.89 7.46 2.24 2.34 5.554 6.55 6.078 7.72.14.32.504.95.81 1.42.947 1.45 3.31 6.42 4.078 8.58 1.26 3.54 1.816 5.99 2.89 12.74.33 2.1.127 11.66-.312 14.54-1.727 11.37-6.103 20.41-13.788 28.5-3.238 3.41-9.153 7.95-12.14 9.31-.546.25-1.184.58-1.418.73-.557.36-3.064 1.46-5.44 2.4-2.763 1.09-8.126 2.39-11.71 2.83-1.714.21-3.31.44-3.543.5-.235.06-7.06.05-15.167-.03zm14.6-9.46c.86-.1 1.86-.19 2.21-.19 2.66-.01 12.09-3.17 15.09-5.05.55-.35 1.09-.63 1.2-.63.53-.01 5.4-3.73 7.39-5.65 1.94-1.87 5.58-6.25 5.58-6.71 0-.09.45-.84 1-1.67 2.62-3.94 5.81-14.71 5.83-19.64l.01-3.62c.01-1.24-.05-3.16-.13-4.25-.07-1.09-.14-2.28-.16-2.64-.04-1.13-1.64-7.46-2.44-9.69-1.95-5.41-5.28-10.81-8.93-14.46-1.98-1.98-5.99-5.13-7.91-6.21-2.77-1.55-3.83-2.06-6.18-2.97-2.82-1.09-7.45-2.35-9.63-2.61-.74-.09-1.92-.25-2.62-.35-2.39-.34-18.5-.36-18.9-.02-.53.44-.55 85.83-.02 86.36.27.26 2.36.32 8.72.24 4.6-.06 9.07-.19 9.93-.3zm146.06-24.21l.08-33.66h9.36l.07 3.97c.07 4.41.19 5.24.74 5.24.2 0 .77-.63 1.27-1.4 2.01-3.11 7.41-7.01 11.23-8.11 3.25-.94 9.33-1.28 12.9-.73 6.76 1.05 11.75 4.6 14.54 10.34 1.25 2.56 1.78 4.24 2.31 7.28.23 1.34.44 2.55.47 2.69.03.14.04 11 .02 24.13l-.03 23.88h-9.63l-.1-22.61c-.06-12.44-.14-22.87-.18-23.18-.97-8.07-3.86-12.35-9.52-14.11-1.91-.59-2.74-.69-5.51-.64-3.83.06-5.04.36-8.04 1.94-4.56 2.41-7.86 7.45-9.54 14.59-.3 1.3-.57 2.7-.59 3.12-.02.42-.09 9.78-.14 20.81l-.11 20.06h-9.64l.07-33.66zm231.66 33.31c-.07-.2-.1-26.12-.06-57.62l.07-57.26 4.89-.08 4.89-.08v115.39h-4.82c-3.6 0-4.86-.09-4.96-.35zm32.26-33.31l.07-33.67h9.36l.08 33.66.07 33.66h-9.64l.08-33.67zm110.15 33.45c-.05-.12-.02-15.27.06-33.67l.14-33.45h9.36l.14 4.67c.16 5.24.41 5.77 1.7 3.66 1-1.62 4.02-4.61 6.04-5.99 6.25-4.24 17.56-4.92 24.75-1.48 3.2 1.52 6.61 4.97 8.26 8.36 1.34 2.76 2.21 5.69 2.6 8.77.15 1.17.3 2.31.33 2.55.03.23.04 10.85.02 23.6l-.05 23.17h-9.63l-.11-21.48c-.13-25.62-.16-26.2-1.5-30.09-2.17-6.31-6.61-9.1-14.27-8.96-4.96.08-8.34 1.6-11.71 5.24-3.25 3.51-5.77 10.24-6.06 16.16-.08 1.63-.2 11.11-.26 21.04l-.12 18.07h-4.8c-2.64 0-4.84-.1-4.88-.21zm78.43-1.75c-4.45-1.09-7.64-6.3-6.7-10.95.48-2.36 1.08-3.38 3.06-5.2 2.12-1.95 3.49-2.45 6.63-2.43 1.86.01 2.35.13 3.9.96 2.12 1.13 3.56 2.65 4.53 4.76.64 1.41.7 1.81.57 4.22-.13 2.43-.23 2.8-1.14 4.29-1.26 2.05-3.58 3.9-5.4 4.3-1.51.33-4.14.35-5.44.03zM617.76 98c-2.23-1.094-3.71-2.587-4.75-4.81-.79-1.69-.84-1.984-.71-4.277.15-2.755.71-4.147 2.37-5.99 3.96-4.384 11.36-3.92 14.67.916 2.67 3.9 2.33 8.61-.87 12.15-1.65 1.83-3.44 2.59-6.46 2.73-2.37.11-2.68.06-4.26-.72zm-29.52-45.38c-.49-.127-1.46-.56-2.14-.962-4.63-2.717-6.13-8.797-3.28-13.31 1.02-1.606 2.08-2.536 4.03-3.54 1.25-.65 1.81-.75 4-.76 2.36-.01 2.687.06 4.336.95 2.09 1.12 3.27 2.37 4.274 4.53 1.034 2.222 1.03 5.69-.01 7.95-.8 1.73-2.65 3.593-4.52 4.55-1.34.68-5.04 1.002-6.68.58zM440.55 33.07c-2.434-.842-4-2.216-5.38-4.72-.684-1.243-.782-1.73-.794-3.97-.01-2.172.096-2.782.724-4.122 1.017-2.17 2.194-3.416 4.283-4.536 1.646-.882 1.98-.956 4.334-.956 2.36 0 2.69.07 4.34.95 2.09 1.12 3.26 2.36 4.28 4.53.62 1.33.73 1.97.73 4.12 0 2.286-.09 2.707-.82 4.035-1.13 2.03-2.53 3.36-4.6 4.34-2.11 1.01-4.76 1.12-7.11.31zm101.46-7.71c-2.534-.5-5.25-2.76-6.393-5.33-.36-.81-.63-2.16-.71-3.51-.16-2.64.31-4.14 1.99-6.41.91-1.23 1.53-1.71 3.23-2.52 2.01-.954 2.2-.99 4.57-.87 2.92.15 4.74.93 6.38 2.745 2.37 2.63 3.17 5.62 2.35 8.83-.89 3.51-3.39 6.05-6.817 6.93-1.836.47-2.77.5-4.61.14zm-50.932-6.95c-2.495-.91-5.16-3.85-5.87-6.463-.48-1.778-.17-4.61.72-6.6 1.27-2.828 3.6-4.637 6.69-5.197 4.208-.76 8.37 1.23 10.264 4.92.816 1.59.895 1.98.9 4.44.008 2.44-.07 2.836-.806 4.18-1.117 2.037-2.543 3.404-4.555 4.365-1.45.696-2.03.81-3.97.795-1.24-.01-2.76-.206-3.37-.43z" fill="#FFF"/>
</svg>
