<svg xmlns="http://www.w3.org/2000/svg" width="640" height="328.07" viewBox="0 10 640 308.55">
  <path d="M488.337 300.07c-5.332-1.882-8.09-8.097-5.748-12.954 2.25-4.675 8.11-6.924 12.48-4.788 4.89 2.394 7.07 7.96 4.87 12.45-2.23 4.55-7.25 6.836-11.62 5.293zm-51.155-8.225c-2.045-.62-2.91-1.185-4.567-2.984-3.703-4.01-3.214-9.79 1.146-13.52 1.78-1.52 3.65-2.11 6.34-2.02 2.45.09 3.34.42 5.56 2.1 2.93 2.21 4.33 6.63 3.16 9.95-1.07 3.04-3.3 5.35-6.04 6.26-2.34.78-3.62.83-5.59.23zm-280.05-.865c-.143-.232 1.713-4.794 4-9.835 2.03-4.477 3.2-7.224 3.2-7.515 0-.19-3.11-6.752-6.912-14.58-3.802-7.83-6.915-14.458-6.918-14.73-.004-.426.278-.494 2.043-.49 1.126 0 2.183.098 2.35.212.165.114 1.928 3.702 3.917 7.972s3.9 8.337 4.25 9.036c.35.7 1.293 2.66 2.095 4.355 1.23 2.598 1.518 3.02 1.83 2.682.206-.22 2.57-5.61 5.26-11.978 2.686-6.37 5.007-11.74 5.156-11.93.394-.52 4.124-.48 4.323.03.12.32-1.975 5.35-5.54 13.3-.28.62-3.706 8.37-7.617 17.22-3.91 8.85-7.26 16.19-7.44 16.3-.5.31-3.8.26-4-.07zm384.73-1.86c-3.078-.82-5.944-3.47-6.94-6.42-.653-1.93-.457-4.984.438-6.826.848-1.744 2.934-3.82 4.694-4.672 1.62-.784 4.898-1.064 6.5-.554 3.25 1.035 5.906 3.926 6.744 7.342.464 1.896.465 2.1.008 3.756-1.096 3.975-3.508 6.416-7.35 7.44-1.73.462-2.132.455-4.094-.067zm-413.54-15.3c-3.968-1.347-6.698-3.58-8.27-6.77l-.732-1.48 1.104-1.13c.607-.622 1.304-1.13 1.547-1.13.25 0 .69.446.98.993.72 1.337 2.82 3.472 4.5 4.574.84.548 2.2 1.085 3.49 1.37 4.8 1.07 8.74-.5 11.06-4.397.68-1.15.76-1.54.76-4.094 0-3.315-.28-4.01-2.5-6.15-1.11-1.07-2.55-1.936-6.11-3.67-7.6-3.7-9.29-4.995-10.94-8.382-.66-1.357-.76-1.918-.77-4.246 0-2.435.08-2.857.89-4.57 2.15-4.542 5.97-6.863 11.25-6.843 2.81.01 4.58.473 7.33 1.916 1.88.99 4.39 3.33 4.39 4.09 0 .55-1.95 2.59-2.48 2.59-.18 0-.88-.52-1.54-1.17-1.59-1.55-2.91-2.36-4.74-2.9-3.27-.97-6.61-.33-8.59 1.65-1.52 1.52-1.93 2.76-1.8 5.4.09 1.76.24 2.26.95 3.27 1.17 1.66 3.32 3.06 7.76 5.07 6.87 3.1 9.17 4.89 10.81 8.4.72 1.54.88 2.28.99 4.56.11 2.28.03 3.01-.49 4.54-1.22 3.59-3.16 5.99-6.11 7.55-2.56 1.36-4.37 1.78-7.57 1.78-2.34-.01-3.24-.14-5.11-.78zm61.707.218c-2.25-.825-4.4-2.41-5.67-4.186-.61-.854-1.11-1.697-1.11-1.874 0-.47 1.79-2.128 2.29-2.128.24 0 .83.56 1.33 1.247 1.05 1.47 3.13 3.053 4.66 3.545.61.2 1.97.305 3.15.246 1.81-.092 2.21-.214 3.15-.978 1.59-1.284 2.2-2.497 2.2-4.368 0-2.804-1.22-3.87-7.39-6.47-5.43-2.286-7.14-4.172-7.14-7.905-.01-3.304 1.64-5.73 4.93-7.244 1.45-.67 2.06-.78 4.23-.78s2.78.11 4.23.78c1.82.838 3.81 2.558 3.81 3.293 0 .455-1.67 2.257-2.09 2.257-.12 0-.8-.507-1.51-1.126-3.64-3.2-8.92-1.75-9.34 2.563-.13 1.372-.1 1.447 1.13 2.627.83.797 2.03 1.526 3.49 2.12 3.85 1.564 6.82 3.113 7.76 4.056.5.5 1.22 1.592 1.6 2.426.59 1.29.67 1.81.56 3.53-.24 3.66-2.18 6.46-5.58 8.05-2.16 1.01-6.44 1.16-8.77.31zm45.17.035c-6.71-2.146-10.72-7.81-10.72-15.142 0-10.89 9.54-18.22 19.81-15.21 6.07 1.79 10 7.18 10.2 13.97l.05 1.81-12.71.14c-14.5.16-13.22-.12-12.57 2.81.47 2.16 1.22 3.53 2.89 5.29 2.05 2.17 3.92 3 7.07 3.15 1.42.07 3.19-.02 4.04-.21 1.85-.41 4.45-2.25 5.75-4.06 1.12-1.55 1.3-1.63 2.86-1.25 1.95.48 2.04.65 1.18 2.23-1.58 2.9-5.33 5.64-9.05 6.61-2.25.59-6.85.53-8.85-.11zm14.5-18.953c-.1-2.81-2.69-6.377-5.55-7.658-1.23-.55-1.95-.658-4.44-.664-2.69-.01-3.12.067-4.59.788-2.11 1.037-4.06 3.007-5.06 5.13-.77 1.61-1.04 3.212-.62 3.632.1.105 4.71.158 10.24.117l10.04-.074-.05-1.27zm64 18.918c-2.25-.825-4.39-2.41-5.67-4.186-.61-.854-1.11-1.697-1.11-1.874 0-.47 1.78-2.128 2.29-2.128.24 0 .83.56 1.33 1.247 1.05 1.47 3.13 3.053 4.66 3.545.61.2 1.97.305 3.15.246 1.81-.092 2.21-.214 3.15-.978 1.59-1.284 2.2-2.497 2.2-4.368 0-2.804-1.22-3.87-7.39-6.47-5.43-2.286-7.13-4.172-7.14-7.905-.01-3.304 1.64-5.73 4.93-7.244 1.45-.67 2.06-.78 4.24-.78s2.78.11 4.23.78c1.82.838 3.81 2.558 3.81 3.293 0 .455-1.67 2.257-2.09 2.257-.13 0-.81-.507-1.51-1.126-3.64-3.2-8.92-1.75-9.34 2.563-.13 1.372-.1 1.447 1.13 2.627.83.792 2.04 1.532 3.5 2.125 6.33 2.585 8.3 3.965 9.43 6.583 1.28 2.982.15 7.54-2.44 9.813-1.98 1.735-3.84 2.394-7.02 2.477-2.26.06-3.13-.04-4.38-.497zm-100.87-.058c-.04-.046-.13-5.928-.21-13.072l-.15-12.99-1.56-.14-1.55-.14v-3.672l1.62-.085 1.62-.08v-4.85c0-2.67.11-5.02.23-5.22.16-.26.81-.34 2.18-.28l1.95.09.14 5.09.14 5.09 2.68.14 2.68.15v3.67l-2.45.08c-1.58.05-2.56.21-2.75.45-.21.25-.33 4.48-.38 13.05l-.07 12.68-2.05.08c-1.13.05-2.08.05-2.11 0zm48.24-.376c-.1-.252-.18-6.913-.18-14.8 0-12.012.06-14.398.4-14.675.24-.2 1.11-.3 2.19-.25l1.79.08.08 1.27c.05.7.19 1.37.32 1.5s.85-.4 1.62-1.16c1.77-1.77 3.64-2.47 6.58-2.44 2.77.02 5.1 1.02 6.91 2.96.7.75 1.27 1.5 1.27 1.67 0 .62.8.1 1.74-1.13 2.68-3.54 8.23-4.64 12.6-2.52 2 .97 3.04 2.18 4.06 4.72.63 1.57.64 1.78.64 13.31v11.72h-4.23l-.16-11.01c-.17-11.94-.24-12.44-1.75-14.17-1.19-1.35-2.32-1.79-4.67-1.79-2.38 0-3.97.74-5.16 2.4-1.51 2.11-1.68 3.49-1.68 14.25 0 5.36-.11 9.91-.24 10.12-.17.25-.82.34-2.19.28l-1.95-.09-.18-10.45c-.19-11.27-.35-12.69-1.65-14.48-1.1-1.51-2.34-2.04-4.8-2.04-2.26 0-3.11.33-4.43 1.74-2.16 2.29-2.4 3.7-2.61 15.48l-.18 9.74-2.01.08c-1.65.06-2.05 0-2.19-.38zm324.41-11.72c-3.23-1.25-5.71-4.08-6.37-7.26-.85-4.09 1.44-8.386 5.53-10.398 1.43-.702 2.01-.824 3.93-.823 1.92 0 2.49.12 3.81.797 5.71 2.927 7.39 9.7 3.56 14.396-2.8 3.432-6.84 4.7-10.48 3.288zm-398.58-41.04c-.09-.09-5.91-.227-12.94-.302-7.03-.075-12.91-.22-13.08-.323-.17-.11-2.16-.17-4.43-.16-2.28.02-6.49-.09-9.36-.24-2.88-.16-6.69-.33-8.47-.38-5.56-.18-11.5-.49-15.53-.82-3.47-.29-6.08-1.48-8.65-3.94-4.05-3.89-5.08-9-2.74-13.61 1.12-2.23 4.09-5.14 5.93-5.83 4.65-1.75 9.19-1.93 14.6-.6.61.15 1.2.22 1.31.15.11-.07 3.93.32 8.48.86 12.62 1.49 17.92 1.98 37.09 3.4 3.26.24 9.48.87 13.83 1.4 7.74.95 21.08 2.35 28.09 2.95 1.94.17 4.86.42 6.49.57 1.63.14 4.05.32 5.37.4 1.32.07 5.71.34 9.74.59 16.41 1.01 27.45 1.33 46.05 1.32 14.99 0 20.02-.12 34.28-.77 18.64-.85 31.88-1.6 36.99-2.09 1.48-.14 3.76-.33 5.08-.43 10.08-.71 34.56-3.74 45.88-5.69 7.83-1.35 13.15-2.21 19.91-3.23 7.82-1.18 17.9-3.24 23.58-4.82 11.86-3.3 19.44-6.15 27.39-10.29 1.86-.97 3.42-1.95 3.47-2.17.05-.28-.47-.56-1.7-.89-2.61-.72-7.145-3.01-9.7-4.91-9.28-6.9-14.97-19.11-15.56-33.39-.37-8.93 1.21-16.87 4.87-24.43 5.124-10.6 14.49-17.78 25.21-19.35 3.49-.51 10.57-.22 13.45.56 7.11 1.92 13.51 6.28 17.93 12.22 2.15 2.88 4.8 8.08 6.08 11.9 5.79 17.3 1.93 37.54-9.32 48.91-3.918 3.96-8.718 6.88-13.916 8.47-1.89.58-2.99 1.17-5.785 3.15-4.62 3.25-10.49 6.75-15.31 9.11-7.35 3.6-24.46 8.77-45.18 13.65-17.275 4.07-44.335 8.63-66.36 11.18-19.76 2.29-37.26 3.84-57.46 5.09-7.7.47-20.903 1.15-23.014 1.17-4.4.05-9.07.22-9.61.36-.32.08-4.954.22-10.31.32s-13.42.29-17.92.42c-7.89.24-15.9.37-21.67.35h-3.45c-3.74.06-36.28.02-36.71-.04-.31-.05-1.07 0-1.69.1-.62.1-1.2.11-1.29.02zm430.43-8.373c-1.62-.64-3.97-2.6-4.88-4.06-1.44-2.32-1.79-5.4-.89-7.77 2.56-6.73 10.48-8.77 15.46-3.98 1.88 1.81 2.96 4.08 3.14 6.57.12 1.67.03 2.1-.73 3.72-1.06 2.28-2.69 4.07-4.64 5.13-2.02 1.1-5.29 1.28-7.48.41zm-503.12-35.73c-6.01-1.33-12.15-5.01-16.13-9.66-4.62-5.39-8.31-13.6-9.75-21.73-.83-4.66-1.03-12.86-.42-17.48 1.61-12.25 6.92-22.52 14.63-28.33 2.81-2.12 6.47-3.98 9.74-4.96 3.35-1 9.54-1.26 13.08-.54 6.91 1.4 13.53 5.83 17.4 11.65.85 1.29 1.67 2.42 1.81 2.51.15.1.26-2.37.26-6 0-3.38.11-6.32.23-6.51.17-.27 1.37-.34 5.01-.28l4.78.08v79.91l-4.78.08c-3.64.06-4.84-.01-5.01-.28-.13-.2-.24-3.28-.25-6.85-.02-7.32.08-7.15-1.97-3.51-1.21 2.14-3.94 5.15-6.3 6.92-2.22 1.67-5.86 3.5-8.95 4.51-2.14.7-2.9.79-6.92.88-3.34.07-5.03-.02-6.49-.35zm12.67-10.27c3.5-.89 5.86-2.31 8.95-5.37 3.97-3.93 6.34-8.15 7.87-13.97 3.14-12.03 1.62-24.66-3.96-32.93-1.6-2.36-4.23-5.09-6.34-6.6-3.93-2.79-7.21-3.81-12.21-3.81-6.68 0-10.95 1.8-15.49 6.54-4.19 4.36-6.33 8.8-7.81 16.15-.84 4.17-.9 12.5-.13 16.43 1.74 8.83 5.28 15.24 10.87 19.69 4.09 3.25 7.45 4.42 12.78 4.45 2.37.01 3.87-.13 5.45-.54zm138.53 10.19c-7.25-1.6-13.89-6.14-18.3-12.53-3-4.35-5.82-11.05-7.07-16.86-1.38-6.38-1.53-15.76-.36-22.36 2.8-15.79 11.78-27.06 24.31-30.48 2.11-.57 3.02-.65 7.48-.64 4.8.01 5.21.06 7.48.81 2.97.99 6.37 2.68 8.64 4.29 2.25 1.61 5.6 5.13 7.14 7.52.67 1.05 1.34 1.83 1.47 1.75.14-.08.24-15.43.24-34.98 0-31.49.04-34.84.44-34.99.66-.25 8.95-.2 9.36.06.28.18.34 14.11.28 68.69l-.07 68.46h-9.88l-.08-6.62c-.04-3.64-.19-6.74-.33-6.88-.15-.15-.54.3-.96 1.12-3 5.92-9.17 10.93-16.29 13.25-2.11.69-2.92.79-6.78.88-3.51.08-4.86-.01-6.78-.43zm13.2-10.29c6.9-1.91 12.93-8.24 15.99-16.79.41-1.14 1.08-3.68 1.49-5.64.66-3.13.75-4.25.77-9.08.01-4.3-.09-6.02-.49-7.87-1.5-6.92-3.84-11.73-7.72-15.85-3.29-3.48-6.62-5.53-10.64-6.53-3.38-.84-9.25-.64-12.5.42-5.24 1.72-10.7 6.79-13.13 12.19-.98 2.17-1.08 2.43-1.68 4.21-1.35 3.99-1.83 7.6-1.81 13.58.02 6.21.39 8.67 2.08 13.69 3.16 9.45 9.95 16.29 17.8 17.96 2.24.48 7.67.33 9.82-.27zM348 176.78c-6.44-1.22-12.927-5-17.33-10.1-10.11-11.71-13.33-31.607-7.8-48.14 3.524-10.53 9.62-18 18.05-22.11 4.675-2.28 6.4-2.638 12.865-2.648 4.85-.01 5.79.063 7.905.63 3.03.81 8.06 3.245 10.448 5.06 6.883 5.236 11.706 14.237 13.67 25.515.527 3.036 1.114 10.786.873 11.545-.17.56-.45.566-28.32.64l-28.14.07-.08.9c-.15 1.51.75 7.487 1.52 10.146 1.52 5.26 4.74 10.57 8.24 13.594 4.93 4.257 9.62 5.91 15.99 5.64 4.02-.17 6.74-.922 9.71-2.7 3.53-2.102 7.93-6.96 10.37-11.415.57-1.05 1.19-1.897 1.37-1.885.18.01 1.98.555 4 1.207 2.53.81 3.7 1.32 3.76 1.64.14.71-2.2 5.49-4.06 8.3-1.95 2.95-6 7.15-8.54 8.86-3.8 2.55-8.3 4.43-12.53 5.23-2.76.52-9.16.52-11.93 0zm28.51-49.62c-.36-2.608-1.818-7.91-2.8-10.19-3.056-7.06-7.87-11.657-13.815-13.177-5.84-1.49-11.946-.794-16.548 1.89-2.21 1.29-6.18 5.004-7.63 7.14-2.33 3.43-3.89 7.336-4.79 11.99-.32 1.653-.58 3.19-.58 3.414 0 .355 3.126.41 23.18.41h23.183l-.203-1.474zM.17 175.064c-.1-.255-.18-28.33-.18-62.39C-.003 59.17.05 50.71.4 50.42c.307-.255 4.044-.31 15.318-.227 16.722.123 17.412.188 23.703 2.22 8.08 2.61 15.26 7.105 21.01 13.15 8.88 9.326 14.38 21.452 16.71 36.8.51 3.313.5 17.642-.01 21.035-1.2 8-3.4 15.368-6.52 21.742-7.96 16.32-20.71 26.466-37.29 29.683-1.99.386-5.01.487-17.68.59-14.03.113-15.29.085-15.46-.345zm25.66-11.145c8.434-.53 14.168-2.33 20.172-6.34 11.616-7.76 18.274-19.86 20.24-36.77.564-4.85.41-14.21-.31-18.88-1.336-8.67-3.997-16.01-7.984-22.03-6.082-9.18-14.733-15.2-24.995-17.38-3.226-.69-11.25-1.18-17.43-1.07l-4.658.09-.073 50.97c-.04 28.03-.012 51.13.062 51.32.165.44 8.54.48 14.976.08zm147.15 11.13c-.262-.69-.2-78.99.063-79.41.174-.28 1.374-.34 5.008-.28l4.78.08.08 5.35c.05 2.94.19 5.47.33 5.61.15.15.51-.26.88-.98 1-1.99 3.3-4.93 5.17-6.63 2.13-1.93 6.58-4.2 9.36-4.78 2.55-.53 7.92-.53 10.44.01 2.43.51 5.72 2.05 7.75 3.61 3.05 2.35 5.97 7.18 7.47 12.36 1.55 5.33 1.62 7.17 1.53 37.53l-.08 27.81-4.78.08c-3.63.06-4.83-.01-5-.28-.12-.2-.23-12.21-.23-26.7 0-27.11-.09-29.74-1.16-33.9-1.99-7.79-7.02-11.52-14.79-10.97-8.15.57-13.75 7.44-16.03 19.67-.58 3.12-.61 4.24-.76 27.68l-.15 24.42-4.84.07c-4.22.07-4.86.02-5.01-.37zm228.72 0c-.096-.25-.174-31.04-.174-68.43 0-52.49.077-68.05.34-68.31.387-.39 8.88-.49 9.473-.11.28.18.33 14.1.28 68.68l-.07 68.45-4.84.08c-4.23.07-4.86.02-5.01-.37zm31.593-.19c-.085-.35-.12-25.36-.077-55.56l.077-54.92h9.883v110.97l-4.864.07c-4.854.07-4.864.07-5.02-.57zm108.74.19c-.262-.69-.2-78.99.063-79.41.174-.28 1.374-.34 5.008-.28l4.78.08.076 5.35c.043 2.94.19 5.47.33 5.61.15.15.54-.31.954-1.13 1.035-2.04 3.107-4.68 5.082-6.47 2.137-1.94 6.578-4.21 9.37-4.79 2.55-.53 7.92-.53 10.448.01 2.438.51 6.01 2.21 7.962 3.78 2.964 2.38 5.78 7.12 7.246 12.19 1.544 5.34 1.62 7.18 1.532 37.53l-.08 27.81-4.78.08c-3.634.06-4.834-.01-5.007-.28-.126-.2-.23-12.22-.233-26.7-.003-16.74-.114-27.33-.305-29.05-.66-5.84-2.12-9.62-4.72-12.23-1.94-1.94-3.4-2.74-5.96-3.29-6.54-1.39-12.09.76-15.93 6.15-2.53 3.55-3.99 7.33-5.08 13.2-.58 3.12-.62 4.24-.76 27.68l-.16 24.42-4.84.07c-4.23.06-4.86.02-5.01-.38zm86.287-14.08c-2.962-.74-6.014-3.57-7.016-6.51-.627-1.84-.426-4.97.433-6.73.873-1.79 2.94-3.87 4.69-4.73 1.843-.9 4.896-1.09 6.827-.44 4.256 1.44 7.446 6.44 6.605 10.37-.54 2.5-1.42 4.13-3.03 5.6-2.43 2.22-5.67 3.15-8.52 2.44zm-8.885-55.24c-3.747-.94-6.783-4.09-7.57-7.86-.636-3.05 1.012-6.97 3.838-9.1 4.836-3.65 11.608-1.89 14.22 3.7 1.008 2.16 1.05 5.72.092 7.67-2.006 4.07-6.71 6.56-10.58 5.59zm-29.967-43.9c-3.117-.86-5.877-3.7-6.82-7.02-1.822-6.42 4.92-13.21 11.372-11.47 1.945.52 2.814 1.02 4.382 2.48 1.516 1.41 2.024 2.23 2.633 4.24.84 2.77.312 5.47-1.61 8.23-1.16 1.66-2.445 2.54-4.977 3.41-1.8.62-3.025.64-4.98.11zm-43.67-30.41c-2.825-.8-5.195-2.81-6.544-5.54-.928-1.89-.915-5.81.027-7.72 2.71-5.5 9.75-7.19 14.47-3.49 2.77 2.17 4.31 5.95 3.67 8.97-.39 1.83-1.69 4.2-2.92 5.33-2.3 2.12-6.07 3.18-8.69 2.44zm-108.85-.99c-1.72-.61-2.805-1.35-4.16-2.85-4.25-4.71-2.74-11.89 3.113-14.77 1.61-.79 2.18-.92 4.01-.92 1.8-.01 2.41.13 3.82.82 2.1 1.03 3.98 2.94 4.91 4.97 1.01 2.21 1.02 5.18.02 7.34-2.11 4.55-7.32 6.96-11.7 5.42zm56.474-11.86c-1.72-.61-2.805-1.35-4.162-2.86-1.865-2.07-2.31-3.24-2.313-6.1-.003-2.13.11-2.77.69-3.96 2.31-4.72 8.097-6.97 12.438-4.85 2.962 1.45 4.796 3.69 5.52 6.77.448 1.9.45 2.15.01 3.86-.805 3.14-2.532 5.26-5.53 6.79-1.718.87-4.693 1.02-6.653.33z" fill="#FFF"/>
</svg>
