<svg xmlns="http://www.w3.org/2000/svg" viewBox="0 10 328 152.07"  width="656" height="348.07"> 
  <path d="M243.786 151.933c-1.2-.273-2.175-.804-2.987-1.624-1.42-1.43-2.13-3.47-1.82-5.23.79-4.6 5.74-6.74 9.6-4.16 1.52 1.01 2.63 3.12 2.63 5.01 0 1.07-.51 2.59-1.2 3.61-1.27 1.86-3.98 2.9-6.24 2.39zm-141.78-.77c-7.486-.23-15.267-.603-22.805-1.09-5.44-.35-14.21-1.157-18.94-1.74-.64-.08-2.28-.28-3.64-.442-1.36-.16-2.87-.35-3.35-.43-.48-.07-1.86-.27-3.06-.44-1.2-.16-3.14-.53-4.3-.81l-2.12-.51-.84-.8c-.56-.53-.99-1.12-1.3-1.78-.41-.87-.46-1.11-.46-2.28 0-1.15.05-1.41.43-2.18.79-1.6 2.1-2.61 3.89-2.97.76-.16.96-.13 3.06.41 4.44 1.14 9.24 2.13 14.27 2.93 1.09.18 3.15.61 4.59.96 9.14 2.22 17.51 3.62 27.4 4.58 6.56.64 9.65.76 21.42.84 13.46.09 17.13-.01 26.45-.77 5.3-.42 10.23-.96 14.57-1.59 1.4-.2 4.09-.53 5.98-.72 19.89-2.07 37.34-7.37 53.26-16.17 6.16-3.41 12.49-7.79 17.12-11.86 8.14-7.14 12.26-11.33 16.05-16.28 1.49-1.94 3.18-4.43 3.18-4.66 0-.1-.15-.19-.34-.19-.78 0-3.03-.48-4.46-.96-5.86-1.96-9.95-6.66-11.23-12.91-1.26-6.2.39-12.43 4.4-16.65 1.39-1.46 2.63-2.39 4.5-3.34 2.66-1.36 4.84-1.93 7.94-2.08 7.52-.37 13.78 3.04 16.94 9.21.82 1.59 1.51 3.62 1.81 5.31.3 1.63.26 5.6-.07 7.14-.76 3.64-2.18 6.41-4.52 8.86-1.83 1.91-3.82 3.24-6.28 4.19-1.3.5-1.85 1.03-2.48 2.35-.64 1.34-2.19 3.57-4.5 6.47-2.35 2.95-4.69 5.51-7.56 8.26-12.3 11.8-22.77 18.75-39.08 25.94-5.67 2.5-12.54 5.117-15.6 5.94-1.12.3-2.46.67-2.98.817-.52.14-1.635.43-2.48.63-4.04.97-5 1.19-8.52 1.97-4.245.94-11.86 2.34-17.05 3.14-11.78 1.81-22.485 2.87-35.555 3.51-4.15.204-19.95.38-23.68.27zm167.04-1.894c-2.782-.69-4.774-3.23-4.73-6.05.042-2.85 1.87-5.17 4.626-5.88 1.2-.31 2.01-.29 3.206.07 2.606.78 4.423 3.17 4.423 5.82 0 .95-.46 2.62-.91 3.28-1.53 2.24-4.18 3.35-6.61 2.75zm-47.847-3.48c-1.37-.46-2.38-1.22-3.14-2.34-.77-1.14-1.09-2.18-1.09-3.49 0-3.36 2.64-6.07 5.97-6.11 2.66-.04 4.9 1.48 5.89 3.98.14.36.29 1.15.34 1.76.24 3.41-2.33 6.24-5.87 6.47-.83.05-1.23-.01-2.12-.3zm71.4-7.46c-3.2-.6-5.33-3.09-5.3-6.17.04-3.03 2.04-5.37 5.11-6 1.84-.38 4.02.36 5.41 1.84.91.96 1.4 1.97 1.64 3.38.47 2.77-1.29 5.65-4.04 6.6-.85.29-2.23.45-2.84.34zm-211.81-4.18c-.04-.11.78-2.14 1.82-4.52s1.9-4.35 1.9-4.39c0-.04-1.64-3.46-3.64-7.6s-3.61-7.59-3.56-7.66c.04-.07.56-.13 1.14-.13.8 0 1.11.06 1.26.23.11.13 1.48 2.96 3.04 6.28s2.9 6.05 2.98 6.06c.08 0 1.27-2.64 2.65-5.89s2.6-6.08 2.72-6.3c.21-.38.28-.4 1.25-.4.75 0 1.05.05 1.11.2.04.11-.64 1.83-1.52 3.82s-2.11 4.76-2.72 6.17c-.62 1.4-1.98 4.48-3.02 6.85-1.05 2.36-2.16 4.88-2.47 5.6-.77 1.76-.85 1.83-1.98 1.83-.64 0-.96-.06-1.01-.2zm117.09-5.39c-3.17-.72-5.38-3.84-4.86-6.87.22-1.28.76-2.41 1.59-3.3.82-.89 1.63-1.39 2.84-1.76 1.11-.35 1.98-.35 3.21-.01 4.96 1.37 6.18 7.73 2.08 10.84-1.31.98-3.34 1.44-4.88 1.09zm-130.2-2.95c-.16-.04-.66-.14-1.1-.23-1.35-.27-2.84-1.08-3.84-2.08-1.1-1.1-1.78-2.29-1.56-2.7.13-.26 1.2-1.19 1.35-1.19.03 0 .34.42.67.94.75 1.16 1.55 1.87 2.78 2.46.9.43 1.03.45 2.69.45s1.78-.02 2.52-.43c.94-.53 1.55-1.2 2.04-2.26.3-.66.37-1.03.37-1.98-.01-2.33-.98-3.4-4.71-5.21-3.91-1.9-5.02-2.74-5.82-4.46-.34-.73-.39-1.01-.39-2.36 0-1.42.03-1.6.46-2.51 1.19-2.53 3.45-3.76 6.53-3.57 2.09.13 3.69.82 5.04 2.17.39.39.71.81.71.93 0 .26-1.02 1.51-1.24 1.51-.09 0-.51-.33-.93-.73-2.08-1.95-5.05-2.32-6.91-.85-.78.62-1.16 1.44-1.24 2.66-.06.91-.02 1.11.36 1.82.26.51.68 1 1.14 1.35.7.54 1.26.83 4.75 2.49 3.34 1.59 4.78 3.58 4.78 6.58 0 3.96-2.89 6.9-7.01 7.13-.67.04-1.36.04-1.52 0zm30.31-.26c-1.48-.49-2.88-1.6-3.5-2.78l-.29-.55.55-.51c.3-.28.64-.49.74-.47.1.02.48.4.84.84.94 1.16 2.12 1.75 3.53 1.75.91 0 1.14-.06 1.73-.43.85-.54 1.27-1.33 1.27-2.36 0-1.36-.67-2.02-3.02-2.99-3.49-1.44-4.42-2.37-4.41-4.39 0-1.28.43-2.24 1.37-3.07.92-.81 1.88-1.13 3.43-1.12 1.04 0 1.38.07 2.11.4.94.43 1.96 1.31 1.96 1.69 0 .25-.87 1.16-1.11 1.16-.09 0-.31-.17-.51-.38-.52-.56-1.7-1.07-2.47-1.07-1.43 0-2.47.89-2.59 2.2-.07.69-.05.74.57 1.33.44.42 1.06.79 2.02 1.18 2.89 1.19 3.93 1.88 4.56 3.06.48.9.45 2.64-.07 3.75-.49 1.05-1.39 1.95-2.44 2.43-.69.32-1.07.39-2.28.42-.93.03-1.67-.03-2.04-.15zm22.86-.15c-1.99-.65-3.49-1.95-4.38-3.81-1.62-3.38-1.02-7.44 1.46-9.91 2.42-2.42 6.24-2.9 9.46-1.2 2.05 1.08 3.52 3.72 3.63 6.52l.03.94-6.56.07-6.56.07-.05.4c-.06.53.35 1.92.79 2.68.46.79 1.44 1.68 2.4 2.19.73.38.89.41 2.53.41 1.56 0 1.82-.04 2.4-.35.9-.48 1.78-1.22 2.25-1.9.48-.71.61-.76 1.41-.56 1.04.25 1.12.41.58 1.25-1.01 1.56-2.77 2.82-4.64 3.3-1.3.34-3.54.28-4.79-.13zm7.87-9.11c.12-.2-.42-1.81-.84-2.54-.48-.82-1.41-1.65-2.27-2.05-.55-.26-.96-.31-2.21-.31-1.39 0-1.61.04-2.4.42-1.05.51-1.98 1.4-2.48 2.39-.39.77-.7 1.89-.58 2.09.1.16 10.65.15 10.75-.02zm32.94 9.26c-1.47-.49-2.87-1.6-3.5-2.76l-.29-.54.49-.52c.62-.65.91-.65 1.31-.02.8 1.29 2.31 2.12 3.87 2.12.88 0 1.11-.06 1.7-.43.85-.54 1.27-1.32 1.27-2.35 0-1.36-.67-2.02-3.02-2.99-3.51-1.45-4.42-2.35-4.42-4.39 0-1.76.84-2.99 2.55-3.78.75-.35 1.05-.41 2.19-.4 1.11 0 1.44.06 2.18.4.93.42 1.96 1.31 1.96 1.69 0 .25-.87 1.16-1.11 1.16-.09 0-.31-.18-.51-.39-.52-.56-1.7-1.07-2.47-1.07-1.43 0-2.47.89-2.6 2.21-.06.69-.04.73.58 1.33.44.42 1.07.79 2.02 1.18 2.89 1.19 3.93 1.88 4.56 3.06.24.46.31.85.31 1.76 0 1.03-.06 1.28-.48 2.14-.53 1.08-1.14 1.66-2.36 2.26-.68.33-1.01.4-2.26.43-.92.02-1.68-.04-2.05-.16zm-52.32-.27c-.04-.11-.09-3.14-.11-6.75l-.04-6.56-.8-.08-.8-.08v-1.9l.8-.08.8-.07.07-2.62.07-2.63h2.18l.07 2.62.07 2.62 1.38.07 1.38.07v1.89l-1.39.07-1.38.07-.08 6.7-.07 6.71-1.06.04c-.77.03-1.08-.01-1.13-.15zm24.91 0c-.04-.11-.06-3.6-.04-7.77l.04-7.58h2.18l.04.76c.02.42.09.76.15.76s.39-.29.74-.65c.93-.95 1.84-1.3 3.36-1.3 1.6-.01 2.76.47 3.72 1.55.35.39.65.78.65.85 0 .31.4.06.81-.5.52-.72 1.6-1.48 2.45-1.74.33-.1 1.17-.18 1.86-.18 1.12 0 1.36.05 2.23.48 1.09.53 1.61 1.14 2.15 2.47.32.8.33.93.33 6.87v6.04h-2.19l-.09-5.68c-.06-3.86-.14-5.86-.26-6.23-.42-1.29-1.52-2-3.08-2-1.23 0-2.03.36-2.62 1.17-.86 1.19-.92 1.58-1.01 7.42l-.09 5.32h-2.18l-.08-5.76-.08-5.76-.41-.84c-.576-1.18-1.26-1.57-2.73-1.57-1.3 0-2.02.34-2.63 1.23-.83 1.21-.916 1.84-1 7.5l-.08 5.17-1.06.04c-.76.03-1.07-.01-1.13-.14zm173.62-4.17c-2.28-.6-3.97-2.39-4.46-4.71-.8-3.8 2.16-7.36 6.06-7.31 2.91.03 5.28 1.96 5.91 4.83.21.94.22 1.26.07 2.12-.23 1.35-.72 2.38-1.57 3.28-.86.92-1.7 1.42-2.95 1.76-1.18.32-1.85.32-3.09 0zM185.82 109c-1.924-.55-3.42-2.035-4.05-4.017-.42-1.323-.44-2.16-.082-3.45.472-1.702 1.693-3.205 3.167-3.898.964-.453 2.488-.77 3.182-.665 3.077.474 5.087 2.366 5.617 5.285.394 2.173-.708 4.644-2.675 5.997-.81.556-2.41 1.033-3.42 1.02-.45-.006-1.24-.13-1.74-.273zm133.23-9.918c-1.513-.325-2.656-.965-3.61-2.02-.928-1.028-1.564-2.684-1.564-4.07 0-1.025.514-2.567 1.184-3.554 1.358-2 4.25-3.043 6.55-2.36 1.078.318 1.787.698 2.485 1.328 4.06 3.67 1.82 10.195-3.683 10.726-.43.042-1.043.02-1.363-.05zM58.8 92.894c-3.148-.59-5.84-1.962-8.135-4.148-2.58-2.46-4.21-5.46-5.076-9.345-.46-2.04-.5-6.5-.08-8.43 1.58-7.17 6.29-12.08 12.96-13.49 5.82-1.23 12.39.98 15.5 5.22.28.39.57.7.64.7.07 0 .15-1.19.17-2.66l.04-2.66 2.58-.04 2.59-.04-.04 17.16-.04 17.16h-5.1l-.04-2.8c-.02-1.54-.1-2.8-.17-2.8s-.34.33-.59.72c-.26.4-.94 1.18-1.53 1.73-1.95 1.85-4.38 3.08-7.3 3.69-1.56.33-4.83.36-6.41.06zm7.69-4.627c2.273-.752 4.645-2.582 6.014-4.64 2.31-3.478 3.115-8.544 2.023-12.756-1.154-4.44-4.544-7.89-8.88-9.03-1.567-.41-5.003-.38-6.528.06-5.55 1.6-8.99 6.6-8.99 13.1-.01 5.87 3.17 10.99 8.04 12.97 1.57.64 2.46.77 4.92.73 1.96-.04 2.4-.09 3.39-.42zm70.162 4.562c-1.748-.38-2.597-.68-4.1-1.42-5.744-2.83-9.273-9.06-9.273-16.38 0-3.38.61-6.07 2.03-8.96 1.42-2.9 3.44-5.11 6.07-6.65 5.18-3.04 11.9-3.06 16.99-.04.85.5 1.68 1.19 2.84 2.35.9.9 1.67 1.64 1.71 1.64s.09-6.77.11-15.05l.04-15.05h5.1V92.3h-5.1l-.04-2.88c-.03-1.602-.1-2.876-.18-2.876-.08 0-.28.215-.46.476-1.8 2.582-4.68 4.583-8.07 5.59-1.16.345-1.61.396-3.87.44-2.09.04-2.78 0-3.82-.227zm6.297-4.25c3.01-.48 6.03-2.38 7.71-4.85 1.84-2.72 2.78-6.32 2.59-9.85-.35-6.3-4.63-11.19-10.6-12.13-1.43-.23-3.99-.09-5.43.29-5.63 1.46-9.13 6.86-8.81 13.55.16 3.45 1.16 6.16 3.19 8.72 1.69 2.12 4.5 3.8 7.13 4.23 1.08.18 3.08.18 4.19.01zm36.17 4.3c-4.23-.77-7.99-3.08-10.53-6.47-1.38-1.85-2.59-4.67-3.15-7.38-.33-1.6-.38-5.71-.09-7.29 1.14-6.16 4.73-10.9 10.02-13.23 3.87-1.7 9.05-1.86 13.32-.39 5.3 1.82 8.97 6.3 10.26 12.56.36 1.74.58 4.74.37 4.99-.15.18-2.25.21-14.62.24l-14.45.03.04 1.09c.06 1.6.53 3.38 1.33 5.03 2.04 4.18 5.9 6.66 10.71 6.88 4.57.2 8.07-1.52 11.01-5.44.72-.97 1.11-1.37 1.33-1.37.57 0 3.78.92 3.85 1.1.08.23-.54 1.47-1.3 2.6-.78 1.14-2.42 2.85-3.6 3.74-2.01 1.52-5.03 2.78-7.79 3.26-1.59.28-5.26.28-6.76.01zm15.04-20.76c.05-.08-.05-.7-.21-1.39-1.54-6.47-5.81-9.8-12.18-9.5-2.09.1-3.06.34-4.81 1.19-2.66 1.28-4.52 3.32-5.74 6.24-.46 1.1-.96 3.22-.82 3.45.12.19 23.63.18 23.74-.01zM.09 92.29C.047 92.237 0 80.184 0 65.507c0-20.56.04-26.726.174-26.86.222-.22 12.916-.244 15.417-.026 5.75.5 11.08 2.69 15.38 6.3 4.74 3.98 7.92 9.88 8.88 16.46.29 1.94.29 5.93.02 8-.94 7.1-4.58 13.39-10.21 17.65-3.76 2.85-8.7 4.71-13.89 5.22-1.65.17-15.5.21-15.66.05zm17.49-5.347c7.5-1.61 13.066-6.364 15.464-13.207 1.04-2.97 1.415-5.58 1.31-9.138-.19-6.34-2.137-11.175-6.063-15.053-2.95-2.918-6.37-4.707-10.75-5.63-1.82-.387-2-.398-6.9-.407l-5.02-.01-.03 21.786c-.02 11.982 0 21.873.04 21.982.07.163.97.185 5.14.127 4.77-.066 5.17-.092 6.84-.45zm71.554 5.35c-.055-.055-.1-7.757-.1-17.115 0-13.456.038-17.04.182-17.13.1-.06 1.263-.103 2.586-.09l2.405.02.04 2.34c.02 1.29.1 2.343.17 2.343.073 0 .28-.21.464-.47 1.64-2.34 3.86-3.89 6.63-4.65 1.66-.45 5.46-.46 7.07-.01 4.46 1.23 7.06 4.55 7.7 9.8.12.97.15 4.93.12 13.19l-.04 11.81h-5.1l-.07-12.09c-.06-11.14-.09-12.18-.34-13.18-.73-2.97-2.4-4.8-4.92-5.38-.98-.22-3.73-.18-4.71.07-2.83.74-5.13 3.3-6.18 6.9-.64 2.19-.65 2.34-.73 13.21l-.08 10.49-2.48.04c-1.37.02-2.53 0-2.59-.06zm118.18 0c-.055-.055-.1-13.293-.1-29.42 0-24.78.03-29.345.2-29.486.14-.115.953-.155 2.588-.127l2.386.04v59.016l-2.486.04c-1.368.02-2.532-.006-2.588-.06zm16.174 0c-.182-.182-.12-34.12.064-34.232.25-.15 4.79-.12 4.947.04.08.09.12 6.7.1 17.18l-.04 17.04-2.49.04c-1.37.03-2.53 0-2.59-.06zm56.246 0c-.055-.055-.1-7.753-.1-17.106 0-13.44.038-17.033.182-17.134.1-.07 1.264-.095 2.587-.055l2.405.073.04 2.3c.02 1.27.092 2.3.16 2.3s.466-.46.89-1.03c1.406-1.89 3.704-3.4 6.21-4.09 1.645-.45 5.44-.45 7.07-.01 4.444 1.22 7.055 4.54 7.693 9.8.12.97.16 4.93.13 13.19l-.04 11.81h-5.1l-.07-12.09c-.07-11.13-.09-12.18-.34-13.19-.72-2.92-2.28-4.69-4.68-5.31-1.3-.33-4.02-.3-5.21.07-2.53.78-4.69 3.12-5.73 6.19-.84 2.52-.83 2.36-.93 13.77l-.08 10.57-2.48.04c-1.36.02-2.53 0-2.58-.06zm40.41-17.52c-1.48-.474-2.482-1.207-3.29-2.4-2.762-4.084.132-9.6 5.038-9.6 4.61 0 7.53 4.884 5.408 9.038-1.262 2.48-4.5 3.82-7.153 2.97zM223.16 54.877c-1.273-.554-.807-2.562.594-2.562 1.415 0 1.86 1.935.585 2.54-.58.272-.61.272-1.18.022zm7.423-1.567c-.172-.083-.385-.31-.474-.507-.67-1.464 1.14-2.756 2.18-1.56 1.01 1.15-.32 2.745-1.72 2.067zm-41.436-3.28c-.915-.154-2.176-.678-2.838-1.18-3.69-2.79-3.14-8.46 1.01-10.448 1.76-.846 3.6-.824 5.4.064.99.485 2.31 1.775 2.73 2.66.35.73.69 2.12.69 2.81 0 .756-.35 2.093-.75 2.872-.44.85-1.6 2.036-2.46 2.503-1.09.6-2.71.9-3.8.72zm28.896-.22c-.423-.204-.808-1.03-.694-1.483.22-.882 1.28-1.317 2.05-.84.61.384.8.97.54 1.644-.31.77-1.12 1.06-1.9.68zm6.656-.488c-2.5-1.117-2.64-4.625-.25-5.818.91-.456 2.21-.497 3.09-.097 2.26 1.028 2.46 4.26.34 5.663-.5.326-.8.408-1.64.44-.7.027-1.2-.034-1.55-.188zm87.04-.59c-3.24-.795-5.33-3.99-4.66-7.147.26-1.277.66-2.067 1.45-2.925.85-.924 1.62-1.418 2.78-1.775 1.26-.39 2.27-.39 3.53-.002 4.34 1.343 5.8 6.553 2.79 9.98-1.39 1.583-3.86 2.367-5.89 1.87zm-78.27-.862c-1.09-.473-1.07-1.938.02-2.458.49-.233.56-.234 1.02-.014.29.14.59.44.73.735.22.464.22.537-.02 1.027-.16.336-.43.6-.73.73-.57.235-.45.237-1.05-.02zm-14.39-4.644c-.86-.38-1.05-1.468-.37-2.142.48-.476.97-.542 1.6-.215 1.49.77.3 3.03-1.23 2.35zm11.92-1.43c-.18-.086-.43-.375-.55-.642-.2-.42-.21-.55-.03-.964.27-.66.62-.91 1.26-.91s.99.25 1.27.91c.47 1.12-.8 2.162-1.95 1.605zm-6.4-2.094c-.87-.432-1.04-1.44-.36-2.116.81-.816 2.11-.39 2.29.757.07.44.01.6-.33.978-.52.56-1.01.68-1.6.39zm72.58-9.396c-2.72-.557-4.54-2.462-5.03-5.247-.28-1.57.3-3.5 1.42-4.81 1.2-1.41 3.38-2.32 5.11-2.13 2.64.28 4.63 1.89 5.4 4.38.38 1.26.38 2.27-.01 3.53-.36 1.15-.85 1.93-1.78 2.78-.84.77-1.64 1.18-2.85 1.43-1.07.22-1.42.23-2.28.06zm-92.38-.247c-3.68-.5-6.21-3.94-5.41-7.37.55-2.35 1.98-3.92 4.23-4.61 1.8-.56 3.69-.28 5.24.78 3.54 2.42 3.48 7.82-.11 10.14-1.2.77-2.81 1.19-3.96 1.04zm20.02-12.83c-2.45-.66-4.08-2.38-4.6-4.87-.24-1.15-.19-1.77.25-3.11.98-3.03 4.35-4.78 7.43-3.87 2.1.62 3.58 2.1 4.2 4.16.48 1.62.34 3.08-.45 4.63-1.2 2.36-4.29 3.73-6.84 3.05zm49.12-.02c-1.09-.35-1.66-.67-2.36-1.3-1.85-1.67-2.53-4.17-1.75-6.47 1.53-4.54 7.2-5.73 10.4-2.18 1.93 2.13 2.04 5.45.28 7.8-1.49 1.96-4.3 2.88-6.58 2.14zm-23.62-5.09c-1.02-.28-2.4-1.03-2.97-1.64-1.13-1.19-1.94-3.46-1.75-4.87.29-2.12 1.55-4.02 3.24-4.88.76-.39 2.19-.75 2.99-.75.96 0 2.52.53 3.48 1.18 1.45.98 2.59 3.16 2.59 4.92 0 .83-.33 2.15-.74 2.94-1.23 2.4-4.29 3.77-6.86 3.08z" fill="#FFF"/>
</svg>
