<svg xmlns="http://www.w3.org/2000/svg" width="640" height="355.97" viewBox="0 10 640 335.97">
  <g fill="#fff">
    <path d="M620.465 325.46c-10.407-1.92-25.45-6.38-37.68-11.172-7.307-2.864-24.204-11.127-32.17-15.73-27.835-16.092-55.362-39.968-76.373-66.243-13.174-16.474-24.51-34.966-32.586-53.153-5.694-12.823-6.864-18.5-6.86-33.274.007-18.146 2.438-26.237 10.222-34.022 11.057-11.057 30.24-12.72 43.678-3.787 9.17 6.09 14.76 18.02 14.017 29.91-.543 8.72-3.76 15.96-9.72 21.86-6.428 6.37-14.28 9.46-24.166 9.5-6.216.03-10.216-.85-15.695-3.44-2.067-.98-3.838-1.7-3.937-1.6-.54.54 7.722 18.62 11.827 25.89 5.332 9.44 13.76 21.42 20.325 28.9 1.636 1.86 5.03 5.75 7.544 8.63 10.3 11.82 15.23 16.42 32.01 29.84 20.25 16.18 33.38 23.55 56.39 31.62 17.91 6.28 30.89 9.17 48.48 10.8 8.8.82 9.38 1.06 12.07 5.03 2.3 3.39 2.95 6.94 1.91 10.44-1.04 3.49-2.85 6.23-5.21 7.86-4.26 2.95-7.12 3.37-14.05 2.09zm-494.958-48.15c-.406-.487.494-2.993 3.508-9.778l4.054-9.122-7.65-15.904c-4.21-8.747-7.52-16.12-7.35-16.383.44-.71 5.11-.583 5.68.156.27.34 3.07 6.17 6.23 12.95 3.15 6.77 5.83 12.32 5.95 12.32.28 0 2.54-4.97 5.99-13.21 1.58-3.77 3.46-8.17 4.17-9.78l1.3-2.92h2.48c1.57 0 2.58.24 2.74.66.14.36-2.02 5.79-4.8 12.06-2.78 6.27-7.72 17.46-10.99 24.86-3.27 7.4-6.18 13.74-6.46 14.09-.69.83-4.19.82-4.88-.02zm317.482-4.61c-2.42-.876-5.5-3.605-6.69-5.923-1.36-2.654-1.37-7.456-.03-10.087 1.15-2.266 4.09-4.975 6.45-5.964.92-.384 2.71-.698 3.99-.698 2.88 0 5.1.902 7.61 3.107 2.54 2.23 3.79 5.07 3.79 8.577 0 3.58-1.3 6.42-3.97 8.71-3.29 2.812-7.39 3.65-11.18 2.278zm30.66-.252c-2.53-1.153-5.52-4.41-6.35-6.914-2.92-8.836 6.09-17.974 14.53-14.75 10.49 4.01 10.78 17.565.46 21.876-2.4 1-6.2.907-8.65-.212zm-61.72-7.48c-2.29-.99-4.91-3.508-6.14-5.903-1.17-2.266-1.29-6.78-.26-9.263 1.86-4.468 7.85-7.914 12.33-7.1 9.04 1.642 13.03 11.58 7.53 18.786-2.86 3.744-9.12 5.362-13.48 3.48zm-316.37-5.54c-4.96-1.388-8.33-3.823-10.56-7.626-1.39-2.363-1.27-3.342.56-4.538 1.75-1.147 1.98-1.05 3.95 1.69 3.61 5.027 11.03 6.93 16.05 4.113 2.86-1.605 4.6-4.72 4.6-8.225 0-4.777-2.38-7.288-10.68-11.268-9.62-4.61-12.19-7.635-12.18-14.314 0-2.984.24-3.93 1.54-6.197 1.74-3.03 4.74-5.445 7.81-6.273 3.17-.857 9.27-.326 11.98 1.043 2.73 1.38 6.09 4.484 6.09 5.627 0 .45-.68 1.466-1.51 2.26l-1.51 1.44-2.11-1.903c-2.72-2.46-5.17-3.46-8.42-3.435-5.62.045-8.95 3.914-7.79 9.052.65 2.87 2.77 4.598 9.95 8.104 6.83 3.335 9.96 5.73 11.73 8.958 1.43 2.63 1.29 10.61-.24 13.475-3.55 6.66-11.87 10.11-19.31 8.02zm66.91.068c-3.01-.81-5.78-2.55-7.35-4.612-1.61-2.108-1.6-3.595.03-4.662 1.27-.833 1.32-.812 3.49 1.45 2.51 2.622 5.1 3.675 8.06 3.278 2.64-.354 4.43-2.13 4.78-4.743.38-2.87-1.29-4.664-6.29-6.753-4.59-1.914-6.96-3.566-8.32-5.804-2.19-3.592-.52-9.007 3.52-11.38 1.96-1.156 2.96-1.388 5.92-1.388 2.97 0 3.95.23 5.96 1.413 3.19 1.875 3.72 2.913 2.37 4.628-1.29 1.638-1.64 1.643-3.72.055-1.32-1.005-2.26-1.27-4.5-1.27-2.46 0-2.98.178-3.89 1.338-1.27 1.615-1.37 3.868-.21 5.026.47.466 3.15 1.937 5.97 3.267 5.23 2.47 7.43 4.25 8.39 6.78 1.98 5.24-1.62 11.48-7.68 13.28-3.08.91-3.48.92-6.55.09zm49.77.193c-5.06-.89-9.76-4.45-11.98-9.08-1.99-4.14-2.28-10.76-.66-15.05 1.43-3.81 4.77-7.44 8.54-9.29 2.45-1.21 3.47-1.4 7.17-1.39 3.55.01 4.81.24 7.11 1.31 4.97 2.31 8.23 6.78 9.17 12.57.81 4.99 1.83 4.64-13.78 4.64h-13.68v1.24c0 .68.24 1.88.53 2.66 3.16 8.44 14.01 10.52 19.84 3.81.89-1.03 1.92-2.05 2.29-2.27.74-.45 4.25.85 4.25 1.56 0 .86-2.98 4.56-4.76 5.93-3.61 2.75-9.47 4.13-14.08 3.32zm13.57-21.09c.55-1.45-2.16-6-4.47-7.5-1.87-1.22-2.67-1.4-6.02-1.4-5.13 0-7.85 1.58-9.89 5.76-.76 1.55-1.24 3.04-1.07 3.32.18.3 4.43.52 10.72.54 8.9.03 10.46-.08 10.71-.74zm70.76 20.91c-2.71-.75-4.81-2.16-7.02-4.67-1.9-2.16-1.96-2.77-.41-4.22 1.58-1.49 2.03-1.41 3.62.68 3.36 4.41 9.38 5.03 12.33 1.29.77-.98.83-4.32.1-5.68-.31-.57-3.06-2.21-6.26-3.71-3.47-1.63-6.15-3.24-6.82-4.1-5.77-7.34 2.35-16.69 12.14-13.98 1 .27 2.68 1.25 3.75 2.17 1.56 1.35 1.86 1.89 1.56 2.82-.2.63-.91 1.4-1.57 1.7-1.01.46-1.45.33-2.79-.79-1.29-1.09-2.11-1.34-4.35-1.34-3.05 0-4.5.95-5.1 3.33-.55 2.16 1.14 3.79 6.2 5.97 7.88 3.4 9.59 5.4 9.25 10.78-.26 4.02-1.87 6.59-5.3 8.45-3.08 1.67-6.35 2.11-9.38 1.27zm29.74-.25c-4.63-2.18-7.36-6.41-7.35-11.38.01-3.95 1.16-6.63 3.89-9.1 5.35-4.83 12.73-4.45 17.41.88 2.27 2.59 3.06 4.71 3.05 8.18-.02 4.69-2.65 8.99-6.85 11.18-2.41 1.26-7.73 1.38-10.18.23zm9.41-3.41c5.93-3.03 6.04-12.38.19-15.81-1.93-1.13-2.71-1.29-5.43-1.12-2.49.15-3.57.5-5.02 1.6-5.81 4.43-3.83 14.39 3.21 16.09 2.02.49 5.26.13 7.05-.78zm-9.94-2.44c-.14-.37-.19-3.28-.11-6.48l.14-5.81 3.59-.15c3.02-.13 3.8.02 4.95.92 1.5 1.18 1.82 3.33.75 5.04-.51.81-.42 1.33.51 2.98.62 1.1 1.12 2.49 1.12 3.1 0 .94-.25 1.08-1.65.95-1.34-.13-1.87-.56-2.83-2.32-1.4-2.54-2.64-2.86-2.64-.68 0 .81-.14 1.84-.31 2.28-.38.98-3.17 1.09-3.54.14zm5.78-8.09c-.24-1.69-1.94-1.84-1.94-.17 0 .98.26 1.31 1.05 1.31.8 0 1.01-.28.89-1.14zm-145.95 13.24c-.14-.37-.31-6.71-.38-14.09l-.13-13.43-1.68-.44c-1.6-.42-1.68-.54-1.53-2.57.14-1.93.31-2.16 1.68-2.4l1.53-.26.15-5.32c.15-5.72.34-6.1 2.9-6.1s2.74.38 2.9 6.1l.14 5.31 2.79.25 2.79.25.15 2.14c.17 2.34-.05 2.5-3.97 2.8l-1.78.14-.25 13.97-.25 13.97-2.42.15c-1.64.1-2.5-.06-2.67-.51zm52.31-.01c-.14-.37-.2-7.87-.12-16.67l.13-16h2.79c2.52 0 2.81.11 2.96 1.15l.16 1.16 1.5-1.27c3.91-3.3 10.38-2.94 14.3.79l2.05 1.95 2.16-2c2.56-2.37 5.52-3.3 9.26-2.91 4.56.46 7.55 3.03 8.75 7.49.3 1.12.46 7.04.38 14.27l-.14 12.36h-5.08l-.28-12.45c-.31-13.47-.55-14.72-3.1-16.04-1.7-.88-5-.94-6.78-.13-.72.33-1.82 1.42-2.44 2.42-1.07 1.71-1.14 2.44-1.27 12.99-.08 6.14-.26 11.7-.4 12.34-.24 1.05-.52 1.15-2.66 1.01l-2.4-.16-.3-11.69c-.33-12.535-.72-14.818-2.85-16.49-1.69-1.327-6.01-1.4-7.58-.12-2.83 2.3-2.97 2.98-3.24 16.09l-.25 12.22-2.68.156c-1.85.103-2.75-.05-2.93-.51zm147.84-8.47c-8.08-3.68-9.96-13.33-3.75-19.22 7.36-6.98 19.49-1.69 19.45 8.48-.03 7.96-8.73 13.91-15.7 10.73zm148.59-.01c-5.47-1.78-9.15-6.54-9.14-11.8 0-.95.54-2.86 1.2-4.26 2.17-4.58 5.71-6.87 10.59-6.85 8.02.03 13.8 8.4 10.79 15.62-2.12 5.08-8.91 8.75-13.44 7.28zM553.4 230c-3.03-1.425-4.41-2.83-5.8-5.9-2.646-5.834.306-12.956 6.43-15.514 6.393-2.67 14.602 2.177 15.663 9.252.997 6.64-5.016 13.38-11.914 13.363-1.02 0-2.99-.54-4.38-1.2zm-189.36.01c-4.74-1.77-8-6.35-8-11.24 0-5.646 5.154-10.91 11.09-11.325 7.78-.544 13.954 7.35 11.6 14.823-.87 2.756-3.525 5.92-6.075 7.24-2.126 1.1-6.348 1.342-8.616.5zm-17.907-25.67c-5.727-2.657-8.423-9.516-5.91-15.036 1.01-2.216 4.45-5.6 6.48-6.37 2.203-.84 7.166-.58 9.23.482 3.77 1.94 6.683 6.49 6.695 10.46.012 4.17-3.36 9.025-7.46 10.744-2.316.97-6.628.84-9.035-.28zm224.955.637c-1.644-.355-5.65-4.085-6.79-6.315-2.09-4.1-1.014-9.52 2.593-13.045 2.38-2.33 4.52-3.17 8.06-3.17 5.43 0 9.42 3.06 10.98 8.41 1.41 4.85-.36 9.55-4.76 12.64-1.84 1.29-2.71 1.545-5.58 1.628-1.88.052-3.91-.01-4.52-.144zm9.487-27.91c-3.834-1.66-7.11-6.563-7.097-10.62.025-7.435 8.615-13.86 14.987-11.208 3.56 1.48 5.74 3.34 7.08 6.03 3.886 7.8-1.72 16.65-10.507 16.58-1.477-.01-3.485-.37-4.463-.79zm-470.663-7.86c-6.87-1.02-12.29-3.797-17.36-8.9-6.31-6.36-9.42-14.463-9.42-24.595 0-9.7 2.84-17.278 8.83-23.61 5.61-5.928 12.34-9.127 20.42-9.718 7.96-.584 16.58 2.433 21.96 7.685 1.57 1.53 2.94 2.78 3.06 2.78.117 0 .21-1.92.21-4.26 0-4.96-.08-4.88 5.08-4.88 1.91 0 3.836.14 4.278.31.72.27.803 3.54.803 31.65 0 23.7-.15 31.49-.61 31.95-.635.63-7.28.86-8.747.3-.65-.25-.805-1.18-.805-4.83 0-2.49-.1-4.52-.22-4.52s-1.39 1.23-2.82 2.74c-5.62 5.94-15.8 9.2-24.64 7.89zm15.02-10.504c5.72-2.85 9.46-7.33 11.52-13.8 1.82-5.71 2.05-11.01.73-16.257-1.68-6.645-4.348-10.575-9.38-13.83-3.896-2.52-7.424-3.49-12.617-3.484-6.9.004-11.47 1.883-15.77 6.483-8.93 9.55-8.533 27.1.825 36.46 4.748 4.745 9.025 6.364 16.327 6.18 4.59-.118 5.44-.296 8.38-1.76zm129.51 10.554c-11.13-1.57-19.92-8.06-24.32-17.95-2.48-5.574-2.86-7.685-2.83-15.856.028-7.9.35-9.68 2.75-15.2 6.403-14.73 24.24-21.88 39.32-15.75 3.856 1.57 8.09 4.46 10.306 7.05l1.71 2 .06-25.87c.038-14.23.028-26.15-.02-26.5-.04-.35.17-1.1.48-1.67.51-.95.96-1.03 5.23-.89l4.67.15.13 54.05c.09 39.52-.03 54.23-.448 54.74-.67.81-7.863.96-9.08.19-.57-.36-.78-1.6-.84-4.95-.05-2.46-.11-4.5-.13-4.54-.03-.04-1.478 1.33-3.22 3.06-6.16 6.09-15.31 9.16-23.75 7.96zm13.34-10.146c7.66-2.95 12.68-10.1 14.06-20.05 1.468-10.51-3.75-21.36-12.15-25.29-12.593-5.89-26.34-.7-31.023 11.73-1.38 3.65-1.87 11.47-1 15.9.9 4.6 4.16 10.59 7.33 13.45 2.49 2.26 7.26 4.85 9.97 5.41 2.9.61 9.92-.02 12.82-1.14zM333.2 169.4c-10.32-1.29-19.163-6.72-24.06-14.78-2.403-3.956-4.31-9.867-4.82-14.95-1.655-16.486 7.226-30.95 21.984-35.8 3.386-1.11 5.087-1.353 9.694-1.385 6.57-.046 9.706.625 15.24 3.264 9.19 4.38 14.983 13.36 16.5 25.56.896 7.21 4.136 6.43-26.694 6.43H314.4l.013 1.65c.037 4.9 2.918 11.37 6.726 15.1 6.71 6.58 17.32 8.38 26.01 4.4 3.09-1.42 7.24-5.06 9.49-8.33 1.68-2.45 2.26-2.56 6.51-1.23 3.54 1.11 3.7 1.95 1.12 5.94-3.91 6.05-11.51 11.3-18.91 13.08-3.67.88-9.46 1.37-12.19 1.02zm24.386-39.99c0-.392-.563-2.38-1.252-4.415-3.384-10.01-10.21-14.57-21.04-14.057-6.844.324-9.884 1.585-14.255 5.913-3.39 3.36-5.35 6.93-6.36 11.63l-.36 1.65h21.63c18.23 0 21.63-.11 21.63-.71zm-357 38.263c-.5-.52-.634-11.196-.634-49.85V68.64l1.303-.495c1.623-.615 17.048-.613 25.875.005 23.54 1.65 41.11 16.257 46.33 38.51 1.227 5.226 1.21 17.496-.024 22.942-3.127 13.763-12.914 26.57-24.96 32.665-3.62 1.83-8.9 3.693-13.464 4.75-4.655 1.074-33.49 1.63-34.42.662zm28.775-10.14c9.1-1.14 16.73-4.844 23.01-11.175 3.12-3.14 4.36-4.88 6.21-8.68 3.52-7.25 4.53-12.26 4.26-21.26-.19-6.497-.4-7.916-1.76-12.023-3.4-10.27-9.29-17.37-17.98-21.654-7.42-3.66-9.33-4.04-21.41-4.29l-10.54-.21v79.85h7c3.85 0 8.91-.24 11.24-.53zm135.29 10.083c-.46-.46-.61-8.25-.61-31.95 0-28.11.08-31.38.8-31.65 1.05-.4 7.51-.4 8.56 0 .63.24.81 1.08.81 3.81 0 1.92.13 3.5.29 3.5.16 0 1.45-1.15 2.87-2.55 5.11-5.027 12.74-7.39 20.15-6.24 8.75 1.352 14.04 6.105 16.72 15.01.67 2.207.84 6.66 1.01 26.01.19 21.86.15 23.39-.69 24.004-1.21.886-8.51.89-9.24.003-.36-.43-.6-8.33-.71-23.494-.19-25.16-.22-25.38-3.45-29.31-2.75-3.33-9.98-4.59-15.62-2.72-2.88.95-6.41 4.32-8.19 7.82-2.57 5.03-2.75 6.68-2.97 27.77-.15 14.34-.37 19.91-.8 20.18-.99.63-8.203.45-8.873-.22zm217.38-.08c-.42-.51-.54-15.23-.45-54.74l.13-54.05h9.65l.13 54.32c.1 43.123 0 54.407-.51 54.73-1.12.71-8.32.494-8.96-.27zm30.01.08c-.46-.46-.61-8.19-.61-31.65s.15-31.19.61-31.65c.68-.68 7.89-.84 8.91-.2.93.592.95 63.08.02 63.672-1.04.656-8.24.51-8.93-.18zm103.65.27c-.5-.2-.63-7.06-.63-31.91 0-28.4.09-31.69.81-31.96 1.47-.57 8.11-.34 8.75.3.35.34.61 2 .61 3.81 0 1.76.1 3.2.22 3.2s1.43-1.18 2.91-2.62c8.6-8.37 23.97-8.61 31.56-.49 2.86 3.05 4.21 5.66 5.24 10.08.67 2.87.79 7.22.76 26.27-.03 17.706-.18 22.92-.67 23.23-1.08.68-8.32.495-8.92-.234-.36-.43-.6-8.202-.72-22.986-.2-25.23-.3-25.935-3.97-29.917-2.38-2.58-4.74-3.41-9.87-3.43-8.32-.04-13.59 5.14-15.71 15.43-.65 3.15-.8 7.45-.8 22.12 0 13.48-.16 18.36-.61 18.82-.6.6-7.58.81-8.92.27zm68.45-20.29c-6.06-2.625-9.1-10.266-6.24-15.7 2.08-3.94 6.54-6.83 10.56-6.84 4.17-.016 9.03 3.36 10.75 7.46.89 2.11.88 6.32-.01 8.45-2.44 5.844-9.58 8.992-15.05 6.63zm-3.54-29.96c-2.92-1.266-5.05-3.198-6.3-5.707-1.7-3.41-1.92-5.24-1.01-8.32 1.01-3.39 4.57-7.15 7.55-7.97 4.63-1.29 8.2-.41 11.66 2.85 6.16 5.8 4.27 15.25-3.78 18.89-2.69 1.22-5.66 1.31-8.1.25zm-233-26.84c-8.19-2.56-10.97-12.9-5.11-19 2.74-2.857 5.09-3.777 9.06-3.55 4.17.233 6.98 1.933 9.24 5.59 2.97 4.803 2.3 9.693-1.91 13.91-3.51 3.52-6.86 4.427-11.27 3.05zm221.56-1.1c-6.19-3.368-8.49-9.925-5.55-15.833 3.43-6.87 11.99-8.637 17.66-3.646 6.06 5.335 5.57 13.658-1.09 18.445-1.9 1.363-2.7 1.6-5.84 1.722-2.62.102-4.07-.09-5.17-.687zm-154.05-.56c-.63-.12-1.94-.974-2.92-1.896-1.59-1.5-1.78-1.954-1.78-4.333 0-2.345.21-2.86 1.73-4.384 1.55-1.543 2.03-1.727 4.51-1.727 3.34 0 4.95 1.065 6.16 4.086.79 1.966.78 2.194-.17 4.343-.78 1.77-1.48 2.483-3.18 3.256-2.23 1.02-2.37 1.04-4.34.66zm-52.5-23.68c-2.94-1.554-5.31-4.724-6.07-8.133-.52-2.353-.49-3.108.28-5.427 1.9-5.704 8.17-9.555 13.36-8.202 5.56 1.448 9.22 5.967 9.24 11.412 0 1.72-.33 3.623-.81 4.572-1.17 2.328-4.23 5.392-6.22 6.236-2.69 1.137-7.14.928-9.76-.458zm189.5-1.23c-7.6-3.858-9.11-12.643-3.19-18.623 7.11-7.178 19.43-1.974 19.47 8.224.02 4.75-2.43 8.55-6.82 10.59-3.41 1.59-6.04 1.54-9.45-.19zM386.65 46.08c-4.983-1.555-8.24-5.98-8.24-11.194 0-3.28 1.118-5.81 3.638-8.226 6.49-6.22 17.09-2.952 19.22 5.925 1.33 5.528-2.45 11.75-8.17 13.447-3.15.937-3.59.94-6.44.05zm145.172-.743c-6.318-1.922-10.045-7.865-8.63-13.762.83-3.454 3.04-6.315 6.07-7.85 10.16-5.15 20.91 5.985 15.273 15.818-1.73 3.016-3.682 4.573-6.984 5.567-2.55.767-3.79.816-5.73.227zM410.637 29.6c-1.42-.815-3.235-2.438-4.065-3.636-1.276-1.84-1.526-2.737-1.674-6.017-.17-3.66-.09-3.98 1.52-6.38 3.17-4.725 7.83-6.582 12.84-5.124 8.41 2.445 11.33 12.518 5.43 18.743-4.04 4.258-9.28 5.157-14.07 2.413zm92.42-.25c-5.226-2.432-8.134-8.87-6.26-13.858.99-2.647 3.184-5.295 5.522-6.67 1.89-1.11 2.93-1.36 5.62-1.347 3.76.02 5.43.74 8.23 3.556 3.49 3.51 4.28 8.83 1.98 13.32-1.26 2.46-2.82 3.88-5.65 5.17-3.06 1.39-6.25 1.33-9.46-.16zm-60.363-6.525c-2.78-.734-6.633-4.662-7.416-7.56-.9-3.304-.32-7.355 1.4-9.798 4.64-6.61 12.6-7.21 18.07-1.367 4.57 4.887 4.33 11.336-.59 15.938-3.46 3.232-6.76 4.034-11.48 2.787zm31.476-.177c-4.33-1.588-7.57-6.234-7.57-10.872 0-7.89 8.58-13.927 15.62-10.986 2.48 1.036 5.44 3.846 6.49 6.155 1.21 2.653 1.2 7.02-.01 9.685-1.77 3.913-6.65 6.905-11.08 6.794-.78-.02-2.33-.37-3.45-.776z"/>
    <path d="M621.99 324.9c-16.308-2.93-39.883-10.845-55.12-18.507-44.192-22.225-82.24-56.382-108.05-97.005-9.473-14.91-19.09-34.588-21.51-44.01-1.607-6.262-2.32-18.715-1.58-27.678 1.062-12.926 3.266-18.496 9.93-25.108 6.97-6.916 14.63-9.725 25.186-9.235 14.325.664 24.74 8.174 29.24 21.084 1.822 5.24 2.276 13.5 1.043 19.04-2.98 13.39-13.09 22.6-27.24 24.8-7.4 1.16-16.58-.51-22.31-4.04-3.22-1.97-3.8-2-3.43-.16.72 3.61 8.98 21.14 13.82 29.31 4.95 8.38 12.56 19.08 18.11 25.47 18.04 20.78 21.92 24.58 38.77 38.07 16.51 13.21 22.63 17.28 36.07 23.99 6.9 3.45 12.55 5.75 23.37 9.51 17.49 6.09 30.26 8.87 48.23 10.49 6.52.59 7.21.75 8.65 2.01 4.17 3.66 5.35 10.56 2.65 15.46-1.71 3.09-4.3 5.26-7.72 6.44-2.99 1.04-2.9 1.04-8.13.1zm-496.063-48.15c0-.113 1.714-4.056 3.81-8.764 2.093-4.708 3.808-9.045 3.81-9.636 0-.592-3.315-7.87-7.368-16.175-4.06-8.304-7.24-15.306-7.09-15.56.34-.556 2.78-.602 3.61-.068.58.37 2.43 4.144 9.15 18.655 3.6 7.79 3.73 7.995 4.52 7.47.29-.197 2.89-5.96 5.77-12.804 2.88-6.846 5.46-12.732 5.74-13.08.59-.75 3.23-.853 3.67-.145.29.47-1.67 5.04-15.59 36.466l-6.13 13.84h-1.96c-1.08 0-1.97-.09-1.97-.21zm348.91-4.652c-4.062-1.27-7.534-6.217-7.534-10.735 0-2.463 2.54-6.835 4.935-8.495 6.956-4.82 16.942.47 16.898 8.954-.037 7.22-7.324 12.456-14.3 10.276zm-32.684-.666c-6.454-2.932-8.328-11.35-3.7-16.622 5.54-6.307 15.67-4.498 18.417 3.29.43 1.218.78 2.844.78 3.612 0 2.156-1.415 5.67-2.94 7.295-3.026 3.227-8.475 4.28-12.557 2.425zm-29.206-6.803c-3.922-1.31-7.608-6.48-7.617-10.69-.007-3.55 3.046-7.93 6.587-9.46 10.307-4.44 19.552 7.08 13.11 16.32-2.268 3.26-8.155 5.11-12.08 3.81zm-83.82-5.45c-3.197-.59-6.91-3.3-8.365-6.11-1.974-3.81-1.302-9.28 1.55-12.61 7.06-8.25 20.227-3.52 20.233 7.27.004 7.25-6.42 12.73-13.418 11.44zm6.612-2.48c5.6-2.98 7.06-10.03 3.16-15.25-3.35-4.49-11.32-4.75-15.22-.51-1.23 1.33-2.69 4.99-2.68 6.72.01 3.56 2.5 7.55 5.7 9.13 2.28 1.12 6.82 1.07 9.03-.1zm-9.09-3.78c-.35-.34-.57-2.53-.57-5.49 0-5.91.3-6.35 4.07-5.85 3.47.46 4.05.74 4.62 2.24.39 1.03.28 1.58-.55 2.7l-1.04 1.4 1.27 1.87c1.3 1.92 1.57 3.01.86 3.45-.64.39-1.42-.31-2.33-2.08-1.72-3.35-4.39-3.48-4.39-.22 0 2.08-.93 3-1.97 1.96zm5.05-5.97c1.49-.8 1.28-2.94-.35-3.56-1.61-.61-2.73.11-2.73 1.76 0 1.12.85 2.32 1.65 2.32.24 0 .88-.24 1.42-.53zm-237.11 11.3c-3.78-1.35-6.45-3.28-8.33-6.01-1.71-2.49-1.67-3.32.23-4.48.7-.43.99-.33 1.44.47 1.15 2.1 4.92 5.21 7.29 6.02 5.24 1.78 11.03.59 13.55-2.8 3.31-4.46 3.14-9.85-.42-13.41-.98-.98-4.32-3.05-7.42-4.6-7.25-3.64-9.17-4.94-10.81-7.29-1.82-2.62-2.47-5.28-2.07-8.46.9-7.22 8.26-11.94 16.19-10.37 3.63.71 5.24 1.47 7.69 3.62 2 1.76 2.23 2.93.82 4.21-.92.83-1.05.8-2.73-.68-4.05-3.56-9.27-4.54-13.44-2.52-3.79 1.83-5.33 6.83-3.38 10.94 1.04 2.2 3.57 3.94 10.39 7.15 9.03 4.25 11.85 7.67 11.83 14.37 0 2.34-.32 4.52-.81 5.65-1.19 2.73-4.31 5.92-7.23 7.42-3.46 1.76-9.05 2.09-12.83.74zm67.44.32c-2.43-.7-5.71-3.08-6.77-4.91-.82-1.4-.83-1.61-.09-2.34 1.09-1.09 1.14-1.07 3.22 1.15 2.24 2.4 5.89 3.89 8.39 3.42 2.33-.44 4.65-2.43 5.37-4.62 1.19-3.62-.47-5.62-7.37-8.89-2.8-1.32-5.6-2.97-6.24-3.66-2.62-2.85-2.43-7.02.45-10.31 3.31-3.78 11.17-3.83 14.61-.09 1.01 1.09 1.1 1.45.57 2.1-.87 1.03-1.18.99-3.37-.5-2.74-1.86-6.23-1.78-8.44.2-1.37 1.22-1.65 1.84-1.65 3.61 0 2.69 1.04 3.59 7.39 6.36 3.21 1.4 5.17 2.62 6.41 3.98 1.72 1.9 1.77 2.07 1.58 5.39-.16 2.8-.46 3.76-1.65 5.32-2.67 3.5-7.86 5.06-12.46 3.74zm49.46.14c-5-1.3-8.57-4.32-10.83-9.18-1.09-2.34-1.31-3.56-1.31-7.14 0-3.68.22-4.8 1.46-7.53 1.55-3.41 4.43-6.38 7.79-8.05 2.86-1.43 11.28-1.32 14.12.18 2.6 1.37 5.63 4.69 6.9 7.58 1.35 3.04 1.82 7.25.88 7.85-.39.24-6.59.45-13.76.45-7.35 0-13.18.21-13.34.47-.16.25-.04 1.61.26 3.02 1.42 6.62 8.39 10.84 15.2 9.21 2-.48 3.32-1.28 5.64-3.44 2.79-2.58 3.13-2.76 4.31-2.22 1.28.58 1.28.59.36 2.16-2.86 4.91-11.63 8.18-17.71 6.61zm15.18-20.49c-.17-2.46-2.41-6.17-4.69-7.77-2.01-1.42-2.5-1.53-6.61-1.53-4.01 0-4.65.13-6.59 1.42-3.44 2.27-6.27 7.69-4.8 9.17.19.19 5.39.29 11.55.21l11.21-.14-.09-1.38zm69.94 20.46c-2.41-.74-4.42-2.02-6.02-3.84-1.78-2.03-1.97-2.88-.84-3.82.64-.53 1.17-.26 3.23 1.67 3.5 3.27 6.81 4.11 10.08 2.56 3.71-1.76 4.88-6.49 2.3-9.29-.77-.83-3.34-2.35-5.72-3.38-5.4-2.33-6.78-3.29-7.81-5.48-2.67-5.62 1.83-11.51 8.78-11.48 4.35.02 8.73 2.38 7.99 4.31-.53 1.36-1.84 1.45-3.15.22-.94-.88-2.02-1.23-4.27-1.4-2.82-.2-3.12-.11-4.57 1.33-1.2 1.19-1.55 1.99-1.55 3.53 0 2.61.98 3.46 7.7 6.66 5.77 2.74 7.2 4.07 7.79 7.24 1.32 7.03-6.63 13.38-13.97 11.14zm-110.17-.71c-.38-.45-.61-5.3-.7-14.35l-.14-13.67-1.52-.27c-2.6-.45-2.12-3.56.54-3.56 1.17 0 1.19-.12 1.33-5.46l.14-5.46h4.06l.14 5.46.14 5.46h2.46c2.72 0 3.88.85 3.36 2.49-.26.81-.85 1.04-2.96 1.16l-2.64.15-.14 13.67c-.09 9.05-.33 13.9-.7 14.35-.31.37-1.08.68-1.71.68-.63 0-1.4-.31-1.71-.68zm52.88.26c-.5-.33-.62-3.91-.51-16.14l.13-15.72h1.77c1.56 0 1.8.18 2.06 1.52.3 1.61 1.39 1.82 2.19.41.71-1.27 4.47-2.68 7.15-2.69 3.05-.02 6.47 1.53 7.94 3.58 1.33 1.87 1.75 1.86 3.41-.12 2.92-3.48 8.99-4.54 13.32-2.34 1.7.86 2.56 1.76 3.53 3.68 1.25 2.46 1.29 2.88 1.46 14.62.19 12.81.07 13.57-2.16 13.57-2.22 0-2.33-.6-2.33-12.93 0-10.13-.12-11.95-.89-13.49-1.2-2.39-3.76-3.67-6.83-3.41-3.04.26-4.68 1.35-6.11 4.05-1.06 2.01-1.15 2.91-1.33 13.69-.18 10.81-.25 11.55-1.16 11.84-.53.17-1.43.16-1.98-.01-.98-.31-1.02-.77-1.02-11.59 0-6.2-.23-12.09-.51-13.08-.81-2.91-3.05-4.68-6.21-4.91-3.37-.25-5.47.95-7.08 4.03-1.06 2.02-1.16 3.05-1.42 13.86l-.28 11.68-1.27.13c-.7.08-1.56-.05-1.91-.28zm146.7-8.77c-2.51-1.06-4.73-3.21-5.91-5.76-2.08-4.46-1.34-8.3 2.32-12.07 2.96-3.05 6.4-3.95 10.49-2.74 3.04.9 6.29 4.06 7.29 7.1 1.46 4.44-.46 9.56-4.63 12.32-1.6 1.05-2.82 1.41-5.21 1.52-1.71.08-3.68-.1-4.37-.39zm146.54-.94c-6.59-3.05-8.49-12-3.66-17.26 1.47-1.61 5.79-3.61 7.77-3.62 6.8-.02 12.41 6.79 10.87 13.22-1.58 6.58-9.05 10.4-14.98 7.65zm20.68-19.42c-7.91-3.91-7.82-15.28.14-19.36 6.88-3.53 15.5 1.84 15.5 9.64 0 7.95-8.52 13.24-15.65 9.71zm-190.5-.51c-3.86-1.91-6.55-6.85-5.96-10.92.65-4.49 4.86-8.74 9.43-9.54 2.26-.4 6.07.71 8.3 2.42 3.25 2.48 4.86 8.57 3.25 12.36-.88 2.07-3.96 5.2-5.94 6.03-2.53 1.07-6.54.91-9.11-.36zM347.16 204c-5.33-1.954-8.33-7.974-6.57-13.23 2.97-8.893 14.22-10.455 19.36-2.688 1.62 2.438 2.13 6.518 1.18 9.385-.93 2.814-4.37 6.033-7.23 6.75-2.96.75-4.19.71-6.72-.217zm224.09.065c-2.234-.797-5.096-3.346-6.29-5.604-.48-.9-.81-2.76-.81-4.57 0-3.45.798-5.31 3.31-7.72 3.406-3.27 7.776-4.05 11.875-2.12 6.89 3.24 8.41 12.09 3.01 17.5-3.01 3.02-7.097 3.94-11.097 2.52zm10.72-27.36c-4.47-1.39-7.46-5.5-7.46-10.248 0-10.2 12.227-14.667 18.877-6.9 4.96 5.8 2.61 14.488-4.62 17.04-2.58.91-4.14.932-6.8.107zm-474.334-8.752c-11.708-2.51-20.97-12.656-23.115-25.312-.97-5.72-.96-8.79.03-14.1 2.67-14.24 13.83-24.37 27.77-25.2 8.65-.51 16.57 2.37 21.91 7.96 4.04 4.24 4.03 4.24 3.9-1.35-.12-5.15-.07-5.21 4.55-5.21 3.16 0 4.04.17 4.29.81.17.44.31 14.14.31 30.44s-.14 30-.31 30.44c-.24.64-1.12.81-4.26.81-4.68 0-4.57.14-4.57-5.88 0-3.37-.15-4.27-.73-4.27-.4 0-.87.45-1.04.99-.51 1.63-5.66 5.97-9.04 7.63-5.87 2.89-13 3.71-19.67 2.28zm16.2-7.78c5.88-2.232 10.58-7.284 13.12-14.098 1.89-5.07 2.23-13.894.73-18.844-2.498-8.21-8.43-14.13-16.157-16.11-10.49-2.68-20.82 1.53-26.07 10.64-4.51 7.82-4.27 20.5.54 28.49 3.13 5.21 9.25 9.71 14.84 10.9 3.23.69 9.96.19 12.99-.96zm127.814 7.753c-15.748-3.247-26.037-19.3-23.635-36.88 1.28-9.354 4.495-15.643 10.726-20.973 6.59-5.632 16.64-8.123 25.46-6.31 4.67.96 10.5 4.11 13.96 7.533 1.72 1.7 3.37 3.092 3.67 3.092.4 0 .56-7.932.56-27.423v-27.42l1.17-.292c.64-.16 2.53-.222 4.19-.137l3.03.156.13 53.995.13 53.995-4.19-.148-4.19-.147-.14-5.207c-.16-5.913-.65-6.48-2.8-3.236-2.74 4.15-9.28 8.182-15.34 9.456-4.38.92-8.06.906-12.7-.05zm15.486-7.69c9.43-3.134 15.74-13.17 15.75-25.02 0-9.86-4.89-18.17-13.09-22.22l-3.87-1.91h-13.31L248.75 113c-6.745 3.334-10.54 8.86-12.007 17.475-2.955 17.37 9.092 32.157 25.074 30.78 1.677-.143 4.073-.602 5.326-1.018zm62.24 7.723c-11.43-2.48-20.21-11.13-23.46-23.11-1.2-4.45-1.2-13.3 0-17.75 3.2-11.81 11.69-20.29 23.21-23.19 2.5-.63 4.67-.77 8.89-.56 9.2.45 15.3 3.11 20.83 9.09 4.69 5.07 7.56 12.18 8.22 20.35l.31 3.93H341.01c-15.28 0-26.677.2-27.11.48-.64.4-.653.99-.11 4.18 1.62 9.51 7.225 16.3 15.87 19.21 2.77.93 4.132 1.07 8.86.91 5.124-.18 5.87-.33 9.02-1.9 2.44-1.22 4.456-2.79 6.983-5.45 1.957-2.06 3.556-4 3.556-4.32 0-.65 3.48-.32 5.75.54 1.84.7 1.72 1.59-.69 5.13-3.7 5.45-10.41 10.07-17.38 11.97-4.12 1.13-12.21 1.34-16.39.43zm28.83-38.75c-.22-2.76-2.1-7.72-4.04-10.64-3.55-5.35-8.95-8.18-16.47-8.63-7.01-.43-13.13 1.9-17.867 6.77-2.21 2.27-5.31 8.19-5.77 10.98-.6 3.71-2.16 3.47 22.29 3.33l21.98-.13-.13-1.69zM1.09 118.07l.13-49.147 12.443-.147c6.95-.083 14.31.094 16.66.4 8.23 1.075 16.983 4.352 23.444 8.78 3.808 2.61 9.813 8.985 12.43 13.198 8.766 14.108 10.02 33 3.173 47.816-5.844 12.648-16.093 21.615-29.56 25.862-6.212 1.96-10.776 2.388-25.42 2.388H.957l.13-49.15zm25.262 40.5c11.596-.884 19.04-4.153 26.443-11.615 7.1-7.156 10.468-15.34 10.998-26.72.426-9.094-1.42-17.357-5.452-24.425-3.58-6.274-11.21-12.683-18.44-15.49-6.27-2.435-10.73-3.062-20.64-2.902l-8.89.144-.13 40.076c-.1 29.185.02 40.264.44 40.767.7.85 5.98.905 15.68.166zm138.44 7.53c-.154-.64-.218-14.65-.14-31.134l.14-29.972h8.635l.14 3.556c.075 1.955.25 3.87.388 4.255.166.46 1.278-.422 3.25-2.573 2.283-2.492 3.886-3.688 6.722-5.017 3.595-1.685 3.937-1.745 9.82-1.745 5.645 0 6.33.108 9.263 1.462 3.45 1.593 7 4.978 8.66 8.244 2.42 4.77 2.68 8.04 2.53 31.696l-.14 22.098h-8.128l-.255-22.098c-.225-19.582-.36-22.454-1.195-25.22-1.81-6.006-5.485-8.824-12.013-9.21-2.1-.125-4.74.025-5.88.33-5.04 1.365-9.42 6.028-11.54 12.3-1.04 3.064-1.12 4.467-1.37 23.578l-.27 20.32-4.18.147c-3.99.14-4.19.095-4.46-1.016zm217.802-52.83l.13-53.996 3.026-.156c1.66-.085 3.55-.024 4.19.137l1.17.293-.13 53.71-.13 53.712-4.2.147-4.192.148.13-53.996zm29.847 22.712v-31.284l4.19.148 4.19.148v61.976l-4.19.147-4.19.148v-31.283zM515.8 166.59c-.134-.35-.184-14.36-.11-31.12l.13-30.48 4.17-.15 4.17-.15.148 3.95c.17 4.51.974 5.31 2.688 2.67 1.643-2.53 6.595-5.95 10.254-7.08 3.934-1.22 9.837-1.348 13.757-.3 5.264 1.4 9.494 4.882 11.747 9.68 2.34 4.99 2.63 8.673 2.48 31.76l-.14 21.59-4.15.142-4.145.147-.23-22.25c-.25-24.29-.4-25.7-3.28-29.86-2.94-4.24-10.36-6.03-16.7-4.04-3.46 1.09-7.55 4.81-9.21 8.38-2.67 5.74-2.82 7.04-3.06 28.03l-.23 19.68h-4.04c-2.76 0-4.11-.2-4.28-.64zm69.788-19.26c-2.497-.68-5.938-3.71-7.088-6.24-2.45-5.4.18-11.9 5.757-14.23 3.672-1.54 8.666-.71 11.507 1.9 1.57 1.44 3.62 5.77 3.62 7.66.03 7.04-7.14 12.71-13.79 10.9zm-6.06-31.07c-2.674-1.4-5.297-5.02-5.802-8.01-.882-5.23 3.15-11.02 8.44-12.118 10.067-2.09 17.237 9.87 10.51 17.53-3.382 3.85-8.73 4.906-13.15 2.593zm-232.47-26.42c-4.27-1.56-7.708-7.26-6.94-11.5.794-4.388 4-8.03 8.07-9.17 6.42-1.797 13.454 3.566 13.454 10.26 0 7.72-7.43 13.022-14.59 10.405zm223.742-.49c-5.645-1.81-8.89-7.68-7.29-13.18.897-3.08 4.056-6.5 6.87-7.44 5.252-1.747 10.718.6 13.36 5.735 1.462 2.85 1.125 7.54-.746 10.37-2.53 3.83-8.01 5.86-12.19 4.517zm-157.21-1.94c-3.37-2.156-3.33-7.07.08-9.146 2.902-1.77 6.175-.974 7.98 1.943 1.442 2.336.97 4.66-1.37 6.713-2.13 1.87-4.294 2.03-6.69.493zm-48.96-21.98c-3.004-1.073-4.857-2.704-6.25-5.5-2.796-5.61-.794-11.5 4.87-14.32 3.425-1.71 6.064-1.703 9.523.02 6.747 3.363 8.038 11.637 2.655 17.013-3.288 3.283-6.845 4.2-10.8 2.787zm187.636-1.864c-6.964-3.54-8.276-11.748-2.78-17.39 6.595-6.766 18.4-1.64 18.4 7.99 0 2.585-2.493 6.924-4.963 8.636-2.952 2.046-7.492 2.372-10.657.764zm-167.218-19.1c-6.75-3.362-8.04-11.633-2.655-17.016 3.942-3.94 8.728-4.447 13.494-1.424 5.66 3.59 6.427 11.64 1.574 16.494-3.48 3.48-7.93 4.178-12.41 1.947zm144.987-.62c-4.138-1.88-6.664-6.23-6.23-10.736.33-3.457 1.863-6.092 4.633-7.97 5.317-3.607 11.742-2.213 15.28 3.314 5.55 8.666-4.243 19.683-13.683 15.394zm-117.13-13.97c-2.616-.935-4.04-2.055-5.64-4.437-3.726-5.55-1.746-12.66 4.314-15.48 3.21-1.5 5.96-1.55 8.97-.18 2.85 1.29 3.93 2.26 5.13 4.61 2.36 4.62 1.67 9.02-2 12.69-3.28 3.27-6.85 4.2-10.78 2.79zm92.67-.284c-2.763-.685-4.938-2.27-6.7-4.883-1.596-2.37-1.687-2.74-1.517-6.13.227-4.51 1.918-7.28 5.584-9.13 5.712-2.9 12.797-.21 15.14 5.75 1.077 2.73.472 7.38-1.288 9.88-2.39 3.4-7.46 5.44-11.22 4.51zm-63.67-7.96c-8.2-3.554-8.445-15.436-.405-19.56 2.043-1.046 6.56-1.302 8.694-.49 2.03.77 5.007 3.684 6 5.87 2.382 5.244-.52 12.455-5.817 14.45-2.042.77-6.395.632-8.473-.27zm31.746-.153c-7.17-3.32-8.5-12.53-2.56-17.75 2.45-2.15 3.76-2.63 7.19-2.63 5.97 0 10.89 4.96 10.86 10.98 0 1.89-2.05 6.22-3.61 7.66-2.94 2.7-8.13 3.46-11.87 1.73z"/>
  </g>
</svg>
