<?xml version="1.0" encoding="UTF-8" standalone="no"?>
<svg id="svg2" xmlns:rdf="http://www.w3.org/1999/02/22-rdf-syntax-ns#" xmlns="http://www.w3.org/2000/svg" viewBox="0 0 170 170" version="1.1" xmlns:cc="http://creativecommons.org/ns#" xmlns:dc="http://purl.org/dc/elements/1.1/">
 <defs id="defs4"></defs>
 <metadata id="metadata7">
  <rdf:RDF>
   <cc:Work rdf:about="">
    <dc:format>image/svg+xml</dc:format>
    <dc:type rdf:resource="http://purl.org/dc/dcmitype/StillImage"/>
    <dc:title/>
   </cc:Work>
  </rdf:RDF>
 </metadata>
 <g id="layer1" transform="translate(-282.64286,-19.719329)">
  <g id="g2844" transform="matrix(0.17913593,0,0,0.17913593,308.27209,10.377767)">
   <path id="path2848" fill="#69538a" d="m-143.07,526.65,0-474.5,474.5,0,474.5,0,0,474.5,0,474.5-474.5,0-474.5,0,0-474.5zm444.04,466.86c10.586-2.9702,20.549-12.737,23.561-23.097,4.6806-16.101-2.6818-33.058-17.813-41.028-4.7584-2.5064-6.2791-2.7835-15.284-2.7842-9.1739-0.00071-10.434,0.2397-15.253,2.91-19.341,10.716-25.07,34.334-12.409,51.152,8.9712,11.916,23.111,16.8,37.199,12.847zm172.38-22.463c11.161-4.176,20.57-16.353,22.103-28.605,2.0145-16.104-9.5989-32.402-26.354-36.985-11.081-3.0308-23.477,0.40313-32.057,8.8807-14.533,14.359-14.019,36.664,1.1588,50.31,2.6618,2.3931,7.1786,5.2504,10.038,6.3495,7.13,2.7412,17.86,2.762,25.112,0.0489zm-336.27-27.13c10.197-4.7337,17.326-14.069,19.766-25.883,2.0295-9.8259-1.7016-21.454-9.4379-29.414-17.059-17.552-45.302-12.874-56.195,9.3076-2.418,4.9239-2.7806,6.8392-2.7763,14.664,0.006,10.615,1.9147,15.745,8.5271,22.919,7.9002,8.5706,15.347,11.687,26.968,11.287,5.598-0.19277,8.9323-0.92318,13.148-2.8802zm486.76-58.9c7.7012-1.6516,16.421-7.824,20.948-14.829,9.3033-14.394,7.2999-32.127-4.9212-43.559-7.2629-6.7936-12.057-8.829-21.938-9.3135-11.64-0.57077-18.073,1.8478-26,9.775-7.9273,7.9273-10.346,14.36-9.775,26,0.47796,9.747,2.4702,14.544,8.9674,21.593,5.114,5.548,9.0491,7.9798,15.889,9.8187,6.6576,1.79,10.354,1.9029,16.829,0.51422zm-220.91-67.97c60.747-5.5046,112.8-25.355,159.5-60.821,11.728-8.9079,37.225-33.984,46.904-46.13,17.836-22.383,36.096-54.591,45.523-80.297,25.032-68.258,25.256-145.45,0.62224-214.2-15.924-44.442-45.12-87.274-79.985-117.34-46.113-39.77-97.982-62.237-164.56-71.281-12.45-1.6911-175.61-2.4444-177.57-0.81991-1.2237,1.0156-1.4325,14.134-1.4325,89.98v88.791l-6.3694,5.0683c-25.534,20.318-43.935,50.507-51.265,84.104-2.6582,12.185-2.6575,45.833,0.001,57.973,7.2172,32.955,25.174,62.632,50.339,83.195l7.3781,6.0288-0.29183,7.1505-0.29182,7.1505-4,1.3819c-10.506,3.6296-70.976,19.331-95,24.668-3.3,0.73305-10.275,2.2848-15.5,3.4484s-12.65,2.7545-16.5,3.5355c-3.85,0.78095-12.4,2.5786-19,3.9949-6.6,1.4162-14.7,3.0152-18,3.5532-3.3,0.53806-8.925,1.6101-12.5,2.3823-7.6052,1.6428-23.407,4.5396-41,7.5165-6.875,1.1633-16.1,2.7588-20.5,3.5457-4.4,0.78684-12.95,2.1468-19,3.0221-12.029,1.7404-23.586,3.4865-39,5.8924-5.5,0.85848-18.814,2.686-29.588,4.0611-32.278,4.12-32.778,4.3052-36.69,13.593-1.9188,4.5557-2.2269,6.8244-1.9571,14.407,0.27475,7.7203,0.74076,9.7762,3.2774,14.459,1.8076,3.3367,4.2784,6.2246,6.3561,7.4291,3.3348,1.9332,3.6375,1.9376,16,0.23551,52.407-7.2155,79.05-11.12,93.101-13.643,5.775-1.0371,16.125-2.8428,23-4.0128s15.425-2.7427,19-3.4949,11.45-2.3028,17.5-3.4458c15.765-2.9785,46.45-9.2908,56-11.52,3.3-0.77035,12.3-2.7616,20-4.425,17.56-3.7934,56.965-13.682,78-19.575,8.8-2.465,19.183-5.3685,23.073-6.452,3.8903-1.0836,8.2316-2.4105,9.6472-2.9487,1.4156-0.53822,2.8451-0.7073,3.1767-0.37575,0.33155,0.33155,0.60282,25.863,0.60282,56.736,0,42.326,0.29517,56.428,1.2,57.333,1.5672,1.5672,152.69,1.7017,169.8,0.15109zm-108.33-55.62c-0.91854-0.91854-0.81592-77.551,0.10579-78.999,0.40801-0.64134,5.4636-2.7512,11.235-4.6887,5.7711-1.9374,15.893-5.5857,22.493-8.1073s16.371-6.1161,21.714-7.9878c28.45-9.9673,44.587-20.071,63.059-39.482,19.048-20.016,32.291-46.495,37.295-74.569,2.3858-13.386,2.3895-35.578,0.008-49-10.691-60.26-55.974-106.34-115.07-117.09-7.0374-1.2808-14.669-1.806-25.759-1.7728l-15.759,0.0472,0.25933-49.09,0.25933-49.09,44,0.1193c46.766,0.1268,60.562,0.95676,82,4.9333,24.982,4.6339,42.071,10.247,64.054,21.04,41.152,20.204,72.438,49.678,93.947,88.504,38.879,70.182,40.321,170.63,3.4954,243.53-18.331,36.29-43.862,64.081-78.631,85.588-34.053,21.065-71.588,32.492-117.37,35.734-15.988,1.132-90.272,1.4408-91.333,0.3797zm446.87-26.564c6.9486-3.5675,13.167-9.9,16.315-16.614,2.2532-4.806,2.6514-7.007,2.6514-14.655,0-7.8285-0.36372-9.7407-2.7942-14.69-11.733-23.892-44.572-26.307-59.653-4.386-6.686,9.7177-7.7515,23.539-2.6229,34.022,3.3325,6.8114,11.866,14.74,18.827,17.494,7.565,2.9923,20.229,2.4493,27.277-1.1695zm38.729-164.11c6.5067-3.1834,14.025-10.873,17.052-17.442,1.7218-3.7357,2.1742-6.5899,2.1742-13.717,0-7.1273-0.4524-9.9816-2.1742-13.717-3.0619-6.6432-10.564-14.271-17.189-17.477-4.8157-2.3306-6.9232-2.7288-14.626-2.763-7.8514-0.0349-9.7181,0.31266-14.626,2.723-6.6383,3.2599-14.143,10.908-17.189,17.517-3.0875,6.6987-3.0969,20.716-0.0184,27.393,2.4981,5.418,9.0561,12.871,14.03,15.945,9.1735,5.6695,22.808,6.3138,32.568,1.5389zm-32.76-175.12c6.565-3.2119,12.819-9.3422,16.315-15.993,2.3537-4.4772,2.6537-6.1723,2.6633-15.046,0.0127-11.847-2.0185-17.122-9.4465-24.532-7.3142-7.2967-12.751-9.4342-24.043-9.4518-11.151-0.0173-16.118,1.7865-23.399,8.4974-19.502,17.976-12.712,49.088,12.699,58.19,7.2428,2.5943,17.95,1.887,25.211-1.6653zm-109.06-155.41c6.8559-3.0327,11.522-7.0288,15.641-13.395,11.146-17.228,4.6286-40.335-13.951-49.459-4.9624-2.437-6.7851-2.7705-15.142-2.7705-11.388,0-16.711,2.1287-24.313,9.7227-18.35,18.331-9.9206,50.363,15.116,57.441,6.1464,1.7378,16.89,1.0074,22.648-1.5397zm-504.98-66.49c7.5172-3.4415,13.011-8.8396,16.772-16.48,2.9065-5.904,3.2597-7.5446,3.2597-15.142,0-7.1535-0.43028-9.4391-2.6811-14.241-3.1634-6.7494-9.9362-13.674-16.569-16.94-4.0199-1.9797-6.287-2.3392-14.75-2.3392s-10.73,0.35954-14.75,2.3392c-6.6326,3.2664-13.405,10.191-16.569,16.94-2.2933,4.893-2.6782,7.0221-2.6612,14.72,0.0162,7.3312,0.44387,9.8596,2.3066,13.636,8.7257,17.69,28.594,25.312,45.641,17.507zm341.25-26.15c11.535-3.4255,20.801-13.316,23.88-25.489,5.1152-20.227-9.9662-40.347-31.313-41.775-20.375-1.3632-36.852,14.303-36.576,34.775,0.30653,22.733,22.268,38.945,44.009,32.489zm-165.88-24.88c6.7524-3.456,13.068-9.741,16.215-16.136,2.1053-4.2783,2.4461-6.3725,2.4368-14.974-0.01-8.9812-0.29331-10.538-2.7843-15.284-3.5688-6.7996-9.4237-12.439-16.545-15.936-4.8442-2.3789-6.8874-2.7794-14.181-2.7794-7.6149,0-9.2321,0.35007-15.208,3.292-7.6474,3.7648-12.778,9.078-16.617,17.208-3.7037,7.8431-3.6996,19.124,0.01,27.12,4.4566,9.6073,11.913,16.478,21.161,19.499,6.8598,2.2407,19.092,1.2774,25.513-2.0093z"/>
   <path id="path2846" fill="#543c7b" d="m-143.07,526.65,0-474.5,474.5,0,474.5,0,0,474.5,0,474.5-474.5,0-474.5,0,0-474.5zm446.96,467.02c9.5806-3.3996,18.759-13.309,21.701-23.43,3.249-11.176-0.0217-24.953-8.028-33.815-1.9781-2.1895-6.4172-5.5105-9.8648-7.38-5.8773-3.187-6.861-3.3991-15.768-3.3991-8.2059,0-10.276,0.36374-15.196,2.6702-26.906,12.612-27.416,50.253-0.86409,63.799,8.3741,4.2722,18.74,4.8471,28.02,1.5541zm172.2-22.805c22.101-10.853,27.095-39.546,9.8791-56.761-5.4335-5.4335-11.714-8.6456-19.871-10.163-15.602-2.9014-32.69,7.3405-38.38,23.003-1.9292,5.3106-2.3181,16.767-0.75952,22.378,2.6755,9.6328,13.045,20.13,23.086,23.372,7.2563,2.3425,19.269,1.4989,26.045-1.829zm-339.14-25.97c10.844-5.054,18.363-14.609,20.848-26.495,2.9963-14.329-5.508-30.563-19.656-37.522-6.0561-2.9787-7.5273-3.2867-15.697-3.2861-7.6786,0.00056-9.8595,0.3964-14.711,2.6702-11.499,5.3887-19.557,16.884-20.555,29.324-1.3133,16.361,8.384,31.061,24.252,36.763,7.1486,2.569,18.244,1.9367,25.52-1.4544zm487.13-59.16c14.895-3.506,25.294-15.407,27.412-31.372,1.3892-10.472-4.9204-24.683-13.887-31.277-7.1072-5.2267-14.032-7.2416-23.28-6.7737-10.15,0.51355-17.172,3.7035-23.837,10.829-7.3001,7.8044-9.0547,12.543-9.0547,24.455,0,8.6293,0.32819,10.617,2.3943,14.5,5.4352,10.215,13.264,16.79,23.106,19.406,6.9523,1.848,10.104,1.8908,17.147,0.23306zm-208.15-68.976c37.889-5.507,67.409-14.395,98.547-29.671,81.62-40.043,139.48-118.25,155.37-209.99,3.6886-21.301,4.4807-31.276,4.447-56-0.0357-26.182-1.3457-40.169-5.8552-62.515-13.586-67.325-50.079-127.76-102.16-169.17-43.876-34.892-93.542-55.04-156.35-63.427-5.5034-0.73484-38.098-1.2956-92.455-1.5907-79.482-0.43146-84.024-0.36138-85.25,1.3152-1.0369,1.418-1.295,19.43-1.295,90.374v88.603l-5.1985,3.9555c-25.355,19.293-44.978,51.273-52.436,85.455-2.6582,12.185-2.6575,45.833,0.001,57.973,7.3687,33.646,26.325,64.725,51.583,84.568l6.0504,4.7534v6.6251,6.6251l-4.25,1.1415c-8.4261,2.2632-13.456,3.6426-25.75,7.062-6.875,1.9122-14.975,4.0471-18,4.7444-3.025,0.69724-10,2.4955-15.5,3.996-5.5,1.5006-13.6,3.5175-18,4.4821-4.4,0.96454-10.475,2.2955-13.5,2.9576-3.025,0.66214-7.75,1.8309-10.5,2.5973-2.75,0.76639-7.025,1.6764-9.5,2.0221-2.475,0.34576-6.525,1.2252-9,1.9544-2.475,0.72913-6.9403,1.6151-9.923,1.9689-2.9826,0.35376-6.1354,1.0245-7.0062,1.4905-0.87079,0.46603-5.4054,1.5571-10.077,2.4246-12.295,2.2831-18.301,3.438-28.994,5.575-17.654,3.5283-21.478,4.2285-30.039,5.5006-4.6962,0.69782-9.4349,1.5533-10.53,1.901-1.0956,0.34771-6.7032,1.3064-12.461,2.1304-5.7582,0.824-12.72,1.9414-15.47,2.4832-2.75,0.54174-11.75,1.914-20,3.0494s-19.95,2.9152-26,3.9551c-15.657,2.691-23.234,3.8032-37.91,5.5643-16.022,1.9226-26.324,4.0498-29.412,6.073-4.5714,2.9955-6.6786,9.7412-6.6786,21.382,0,11.653,1.8945,17.681,7.0623,22.47,4.7911,4.4402,6.2134,4.3919,47.938-1.628,7.7-1.111,18.05-2.436,23-2.9446,4.95-0.50859,11.224-1.3823,13.942-1.9416,2.7179-0.55929,9.3753-1.4719,14.794-2.028,5.419-0.55609,11.07-1.4832,12.558-2.0603,1.4881-0.57706,6.7556-1.6681,11.706-2.4246,23.035-3.5202,28.374-4.4488,33.5-5.8266,5.5613-1.4948,10.567-2.4694,26-5.0619,4.675-0.78534,9.85-1.9013,11.5-2.4799,1.65-0.57859,5.925-1.4974,9.5-2.0418,3.575-0.54438,8.3-1.4324,10.5-1.9733,2.2-0.54092,8.275-1.9041,13.5-3.0293,26.103-5.6213,41.297-9.0991,53-12.131,13.296-3.4451,34.157-8.8272,47.671-12.299,7.2438-1.861,13.662-3.6873,14.263-4.0585,0.60064-0.37121,4.1239-1.5662,7.8294-2.6556,3.7056-1.0894,7.5249-2.2368,8.4874-2.5498,1.6525-0.53747,1.75,2.5322,1.75,55.113,0,37.556,0.3475,56.332,1.0675,57.677,1.0563,1.9738,1.9642,1.9905,86.75,1.6017,73.369-0.33643,87.335-0.6331,97.182-2.0644zm-120.76-94.674,0.26169-39.203,11-3.7784c19.427-6.6731,31.974-11.229,33-11.984,0.55-0.40423,4.9572-2.1488,9.7937-3.8768,18.463-6.5964,31.267-12.609,38.706-18.176,1.925-1.4406,6.0822-4.5491,9.2382-6.9079,8.1956-6.1253,20.339-18.362,26.872-27.078,16.067-21.437,25.132-44.588,28.578-72.985,1.4066-11.59,1.4645-15.268,0.40883-25.999-2.1745-22.104-5.7825-35.249-14.736-53.687-15.524-31.967-42.795-57.261-75.8-70.306-17.082-6.7517-41.533-10.722-58.294-9.465l-9.2668,0.69476v-48.739-48.739l47.25,0.54087c34.495,0.39486,50.6,0.96932,59.661,2.1281,70.003,8.9522,126.5,40.634,162.67,91.215,50.318,70.37,57.646,180.34,17.453,261.89-21.412,43.44-54.118,75.793-98.536,97.471-27.535,13.438-48.475,19.479-83.5,24.087-4.6883,0.61681-30.142,1.3394-56.762,1.6113l-48.262,0.49306,0.2617-39.203zm445.9,13.804c7.752-3.549,13.287-8.8836,16.961-16.347,10.13-20.577-0.89094-44.308-23.284-50.136-17.714-4.6102-36.378,5.9655-41.913,23.749-3.3471,10.754-2.037,20.332,4.0744,29.788,9.3991,14.542,28.466,20.132,44.161,12.947zm39.076-164.04c7.1138-3.2568,13.627-9.6954,17.204-17.006,9.4703-19.357-1.3276-43.117-22.352-49.184-26.423-7.6257-51.43,17.646-43.589,44.05,3.1331,10.55,12.887,20.509,23.384,23.874,7.0265,2.2529,18.334,1.4797,25.353-1.7337zm-38.44-173.18c6.1667-1.6416,14.124-6.4848,17.766-10.814,1.4069-1.672,3.7702-5.3383,5.2518-8.1474,2.4048-4.5594,2.6939-6.1804,2.6946-15.107,0.00069-8.9293-0.29906-10.611-2.7996-15.703-3.1892-6.4944-10.296-13.393-17.42-16.908-3.9971-1.9724-6.3361-2.3613-14.28-2.3742-8.3833-0.0137-10.166,0.31141-15.164,2.7658-21.679,10.646-27.148,38.085-11.127,55.819,8.9034,9.855,22.329,13.862,35.077,10.469zm-101.15-158.56c14.148-6.9648,22.373-23.01,19.335-37.716-2.4226-11.727-9.4697-20.94-19.957-26.091-4.8116-2.3631-6.7059-2.7045-15.007-2.7045-8.3758,0-10.173,0.33065-15.19,2.7942-7.4063,3.637-14.989,11.911-17.835,19.459-2.9319,7.7768-2.4435,20.369,1.0761,27.747,8.4681,17.75,29.931,25.199,47.578,16.511zm-514.43-63.14c33.68-7.1387,39.008-51.691,8.0156-67.021-3.9836-1.9703-6.27-2.3346-14.716-2.3443-8.4256-0.01-10.734,0.35007-14.662,2.2852-7.4792,3.6844-13.415,9.598-17.051,16.988-3.0083,6.1139-3.2802,7.4436-3.2099,15.697,0.0911,10.695,2.0626,16.001,8.5671,23.058,5.1634,5.6017,11.424,9.3939,18.24,11.048,6.6245,1.6077,8.4282,1.6428,14.817,0.28857zm353.26-30.232c14.732-6.7446,23.263-22.597,20.465-38.028-1.3896-7.6633-3.9676-12.672-9.6468-18.744-17.342-18.54-49.365-11.929-58.361,12.049-2.8455,7.5847-2.4482,20.473,0.83712,27.155,8.7669,17.831,29.279,25.547,46.706,17.569zm-175.42-21.25c9.5942-2.8492,17.419-9.5905,22.048-18.996,2.0645-4.1944,2.4096-6.3371,2.3998-14.899-0.0138-11.932-2.0412-17.107-9.7208-24.812-7.2326-7.2562-14.285-10.145-24.768-10.145-10.052,0-17.043,2.6901-24.245,9.3287-7.9695,7.346-12.722,19.987-11.278,29.997,3.164,21.933,24.524,35.774,45.564,29.526z"/>
  </g>
 </g>
</svg>