<?xml version="1.0" encoding="UTF-8" standalone="no"?>
<svg id="svg2" xmlns:rdf="http://www.w3.org/1999/02/22-rdf-syntax-ns#" xmlns="http://www.w3.org/2000/svg" viewBox="0 0 170 170" version="1.1" xmlns:cc="http://creativecommons.org/ns#" xmlns:dc="http://purl.org/dc/elements/1.1/">
 <defs id="defs4"></defs>
 <metadata id="metadata7">
  <rdf:RDF>
   <cc:Work rdf:about="">
    <dc:format>image/svg+xml</dc:format>
    <dc:type rdf:resource="http://purl.org/dc/dcmitype/StillImage"/>
    <dc:title/>
   </cc:Work>
  </rdf:RDF>
 </metadata>
 <g id="layer1" transform="translate(711.07641,-1524.0247)">
  <path id="path2830" d="m-711.07,1674.8,0.004-19.204,0.18077,0.4865c0.21457,0.5775,0.30224,0.718,0.77701,1.2452,0.54457,0.6047,0.90387,0.7258,1.9314,0.6509,0.45221-0.033,1.0865-0.098,1.4095-0.1435,0.323-0.046,1.2039-0.1547,1.9576-0.2418,0.75368-0.087,1.8108-0.2117,2.3492-0.277,0.53834-0.065,1.2607-0.1515,1.6052-0.1915,1.7079-0.1984,3.5996-0.4403,5.8729-0.7509,1.3782-0.1884,3.4572-0.469,4.62-0.6236,1.1628-0.1547,2.5547-0.3495,3.093-0.4329,0.53835-0.083,1.3488-0.2058,1.801-0.2721,1.6821-0.2465,2.4289-0.362,4.0327-0.6234,0.90442-0.1474,2.1025-0.3401,2.6624-0.4281,0.55988-0.088,1.2294-0.1968,1.4878-0.2417,6.0486-1.0506,7.6131-1.3349,11.863-2.1558,1.2274-0.237,2.5488-0.4988,2.9364-0.5816,0.38761-0.083,1.7971-0.3821,3.1322-0.665,9.2456-1.9591,17.842-4.1564,26.076-6.6652,3.1596-0.9628,8.4201-2.734,9.1617-3.0848,0.56312-0.2664,0.926-0.3857,1.292-0.4248,2.6148-0.2795,6.4894-1.3006,9.1131-2.4016,4.3393-1.821,8.059-4.3099,11.33-7.5813,2.7858-2.7859,4.7337-5.4949,6.5354-9.0893,1.8943-3.779,3.0122-7.5834,3.5318-12.02,0.19288-1.6466,0.19288-5.4791,0-7.1257-0.75925-6.4816-2.9682-12.148-6.7304-17.266-1.8964-2.5798-4.5998-5.2832-7.1796-7.1796-2.2612-1.6623-4.7903-3.1023-7.3985-4.2126-2.0467-0.8713-5.2114-1.787-7.5578-2.1868-2.2461-0.3827-3.3228-0.4687-5.8729-0.4687-3.2035,0-5.3354,0.2516-8.3003,0.9793-4.4714,1.0975-8.7409,3.1042-12.529,5.8888-2.5798,1.8964-5.2832,4.5998-7.1796,7.1796-3.766,5.123-5.9704,10.778-6.7304,17.266-0.19288,1.6466-0.19288,5.4791,0,7.1257,0.40502,3.4575,1.3299,7.0812,2.5186,9.8678,1.8573,4.3539,4.3024,7.995,7.5486,11.241,2.777,2.7769,5.4874,4.728,9.0454,6.5112,1.63,0.8169,2.2291,1.0758,3.8353,1.6572,0.72868,0.2638,1.3384,0.5203,1.355,0.5701,0.035,0.1049-0.0721,0.1375-2.8929,0.8823-9.8467,2.5999-18.871,4.5546-30.913,6.6962-2.0588,0.3661-6.0682,1.0337-7.5173,1.2517-0.45222,0.068-1.157,0.1766-1.5661,0.2414-0.80066,0.1266-1.7256,0.2659-3.093,0.4656-0.47374,0.069-1.1785,0.177-1.5661,0.2396-0.38761,0.063-2.0261,0.2916-3.6412,0.509-5.1233,0.6895-5.9365,0.7935-11.589,1.4828-2.2655,0.2763-5.4861,0.6216-6.5776,0.7053-1.4207,0.1089-2.4916,0.234-2.7942,0.3264-0.43234,0.1321-0.95344,0.7923-1.2453,1.5777l-0.18077,0.4865-0.004-64.895-0.004-64.895h85,85v84.843,84.843h-0.71207c-0.64622,0-0.71587,0.015-0.75304,0.1566-0.0409,0.1565-0.10681,0.1566-84.288,0.1566h-84.247l0.004-19.204zm80.586,17.642c0.74744-0.1726,1.1643-0.3199,1.6836-0.5949,0.84887-0.4496,1.1853-0.7174,2.1554-1.716,0.65812-0.6774,0.81902-0.8991,1.1942-1.6457,0.2704-0.538,0.47734-1.076,0.5497-1.4293,0.0638-0.3116,0.14306-0.6816,0.17608-0.8222,0.0743-0.3166,0.0795-2.2919,0.007-2.5839-0.0293-0.1178-0.11137-0.4987-0.18233-0.8467-0.1593-0.781-0.83673-2.1448-1.3133-2.6439-1.4078-1.4744-1.7149-1.7256-2.7233-2.227-0.94357-0.4692-1.9532-0.6971-3.2881-0.7421-0.88328-0.03-1.0866-0.01-2.0109,0.2029-0.78643,0.1805-1.1907,0.322-1.7189,0.6017-0.84935,0.4499-1.1856,0.7176-2.1559,1.7163-0.65811,0.6774-0.81901,0.8991-1.1942,1.6456-0.2704,0.538-0.47734,1.0761-0.5497,1.4294-0.0638,0.3116-0.14306,0.6815-0.17609,0.8222-0.0743,0.3165-0.0795,2.2918-0.007,2.5839,0.0293,0.1177,0.11137,0.4987,0.18233,0.8466,0.1593,0.781,0.83673,2.1449,1.3133,2.644,1.4077,1.4743,1.7148,1.7254,2.7232,2.227,0.53905,0.2682,0.96171,0.4122,1.5602,0.5316,0.45149,0.09,0.83616,0.1792,0.85484,0.1979,0.0187,0.019,0.45973,0.034,0.98013,0.033,0.76576-0.0008,1.1356-0.045,1.9396-0.2304zm29.076-3.6356c0.12921-0.03,0.52629-0.1236,0.88241-0.2072,0.70885-0.1665,1.7938-0.6982,2.3672-1.1601,0.19381-0.1561,0.69464-0.6361,1.113-1.0666,0.65811-0.6774,0.81901-0.8992,1.1942-1.6457,0.27041-0.538,0.47734-1.0761,0.54971-1.4293,0.0638-0.3116,0.14306-0.6816,0.17608-0.8222,0.0779-0.3317,0.0779-2.2939,0-2.6256-0.033-0.1406-0.11226-0.5106-0.17608-0.8222-0.0724-0.3532-0.2793-0.8913-0.54971-1.4293-0.37522-0.7466-0.53612-0.9683-1.1942-1.6457-0.96882-0.9972-1.3068-1.2665-2.149-1.7125-0.61175-0.324-0.96182-0.4372-2.2527-0.7286-0.15073-0.034-0.74977-0.062-1.3312-0.062-1.4083-0.0001-2.4159,0.2112-3.4384,0.7207-0.90378,0.4505-1.3168,0.7709-2.2946,1.7801-0.65733,0.6785-0.81939,0.9022-1.1937,1.6479-0.60197,1.1992-0.85289,2.3658-0.80473,3.7413,0.0185,0.5271,0.0585,1.0624,0.0891,1.1894,0.0305,0.1271,0.10634,0.4794,0.16849,0.7831,0.0691,0.3377,0.28137,0.887,0.54665,1.4148,0.37445,0.745,0.53746,0.9699,1.1942,1.6478,0.97863,1.0102,1.3863,1.3262,2.2921,1.7767,0.53905,0.2681,0.96172,0.4121,1.5602,0.5316,0.45148,0.09,0.83867,0.1817,0.86042,0.2034,0.0555,0.056,2.1053-0.013,2.3906-0.08zm-58.885-5.0116c0.1292-0.03,0.52629-0.1235,0.8824-0.2071,0.70884-0.1665,1.7938-0.6982,2.3672-1.1601,0.19381-0.1561,0.69464-0.6361,1.113-1.0667,0.65811-0.6774,0.81901-0.8991,1.1942-1.6456,0.27039-0.538,0.47733-1.0761,0.5497-1.4293,0.0638-0.3116,0.14306-0.6816,0.17608-0.8222,0.0779-0.3317,0.0779-2.2939,0-2.6256-0.033-0.1406-0.11226-0.5106-0.17608-0.8222-0.0724-0.3533-0.27931-0.8913-0.5497-1.4293-0.37523-0.7466-0.53613-0.9683-1.1942-1.6457-0.96882-0.9972-1.3068-1.2665-2.149-1.7125-0.61175-0.324-0.96181-0.4372-2.2527-0.7287-0.15074-0.034-0.74977-0.062-1.3312-0.062-1.4083-0.0001-2.416,0.2112-3.4384,0.7207-0.90377,0.4505-1.3168,0.7709-2.2946,1.7801-0.65732,0.6785-0.81938,0.9022-1.1937,1.6479-0.60197,1.1992-0.8529,2.3658-0.80473,3.7413,0.0184,0.5271,0.0585,1.0623,0.089,1.1894,0.0305,0.127,0.10633,0.4794,0.16849,0.783,0.0691,0.3377,0.28138,0.8871,0.54665,1.4149,0.37445,0.745,0.53746,0.9699,1.1942,1.6478,0.97863,1.0101,1.3863,1.3261,2.2921,1.7767,0.53905,0.2681,0.96172,0.4121,1.5602,0.5316,0.45148,0.09,0.83867,0.1817,0.86042,0.2034,0.0555,0.055,2.1053-0.013,2.3906-0.08zm86.754-10.463c0.77129-0.1781,1.1696-0.319,1.6836-0.5954,0.83719-0.4503,1.1788-0.7237,2.1386-1.7116,0.65812-0.6774,0.81902-0.8991,1.1942-1.6457,0.2704-0.538,0.47734-1.076,0.5497-1.4293,0.0638-0.3116,0.14306-0.6816,0.17609-0.8222,0.0779-0.3317,0.0779-2.2939,0-2.6255-0.033-0.1407-0.11226-0.5107-0.17609-0.8223-0.0724-0.3532-0.2793-0.8913-0.5497-1.4293-0.37445-0.745-0.53746-0.9699-1.1942-1.6478-0.97862-1.0101-1.3863-1.3261-2.2921-1.7767-1.0295-0.5121-2.0375-0.7242-3.4409-0.7242s-2.4114,0.2121-3.4409,0.7242c-0.90579,0.4506-1.3135,0.7666-2.2921,1.7767-0.65678,0.6779-0.81979,0.9028-1.1942,1.6478-0.2704,0.538-0.47734,1.0761-0.5497,1.4293-0.0638,0.3116-0.14306,0.6816-0.17609,0.8223-0.0779,0.3316-0.0779,2.2938,0,2.6255,0.033,0.1406,0.11226,0.5106,0.17609,0.8222,0.0724,0.3533,0.2793,0.8913,0.5497,1.4293,0.37522,0.7466,0.53612,0.9683,1.1942,1.6457,0.96011,0.9882,1.3013,1.2613,2.1399,1.7123,0.95512,0.5137,2.2629,0.8167,3.5539,0.8233,0.77601,0,1.1156-0.036,1.95-0.2286zm19.114-25.204c0.88347-0.193,2.0137-0.7111,2.6578-1.2183,0.21785-0.1716,0.73835-0.6652,1.1567-1.097,0.65733-0.6785,0.81939-0.9022,1.1937-1.6479,0.60196-1.1992,0.85289-2.3658,0.80473-3.7413-0.0185-0.5271-0.0585-1.0623-0.089-1.1894-0.0305-0.127-0.10634-0.4794-0.16849-0.783-0.0691-0.3377-0.28137-0.8871-0.54665-1.4149-0.37445-0.745-0.53746-0.9699-1.1942-1.6478-0.97863-1.0101-1.3863-1.3261-2.2921-1.7767-1.0295-0.512-2.0374-0.7242-3.4409-0.7242-1.4034,0-2.4114,0.2122-3.4409,0.7242-0.90579,0.4506-1.3135,0.7666-2.2921,1.7767-0.65677,0.6779-0.81978,0.9028-1.1942,1.6478-0.26528,0.5278-0.47753,1.0772-0.54665,1.4149-0.0621,0.3036-0.13797,0.656-0.16849,0.783-0.0305,0.1271-0.0706,0.6623-0.089,1.1894-0.0482,1.3755,0.20277,2.5421,0.80474,3.7413,0.37429,0.7457,0.53635,0.9694,1.1937,1.6479,0.97863,1.0101,1.3863,1.3261,2.2921,1.7766,0.53905,0.2682,0.96172,0.4122,1.5602,0.5317,0.45148,0.09,0.83868,0.1816,0.86042,0.2034,0.10364,0.1036,2.2095-0.037,2.9387-0.1964zm6.57-29.296c0.77129-0.1781,1.1696-0.319,1.6836-0.5954,0.83718-0.4503,1.1788-0.7237,2.1386-1.7116,0.65812-0.6774,0.81902-0.8992,1.1942-1.6457,0.2704-0.538,0.47734-1.0761,0.5497-1.4293,0.0638-0.3116,0.14306-0.6816,0.17608-0.8222,0.033-0.1406,0.06-0.7314,0.06-1.3128s-0.027-1.1722-0.06-1.3128-0.11226-0.5106-0.17608-0.8222c-0.0724-0.3532-0.2793-0.8913-0.5497-1.4293-0.37446-0.745-0.53746-0.97-1.1942-1.6479-0.97862-1.0101-1.3863-1.3261-2.2921-1.7766-1.0295-0.5121-2.0374-0.7242-3.4408-0.7242s-2.4114,0.2121-3.4409,0.7242c-0.9058,0.4505-1.3135,0.7665-2.2921,1.7766-0.65678,0.6779-0.81978,0.9029-1.1942,1.6479-0.2704,0.538-0.47734,1.0761-0.5497,1.4293-0.0638,0.3116-0.14306,0.6816-0.17608,0.8222-0.0779,0.3317-0.0779,2.2939,0,2.6256,0.033,0.1406,0.11226,0.5106,0.17608,0.8222,0.0724,0.3532,0.2793,0.8913,0.5497,1.4293,0.37522,0.7465,0.53612,0.9683,1.1942,1.6457,0.96011,0.9882,1.3013,1.2613,2.1399,1.7123,0.95511,0.5137,2.2629,0.8166,3.5539,0.8232,0.77601,0,1.1156-0.036,1.95-0.2285zm-5.4737-30.45c0.88347-0.193,2.0137-0.7111,2.6578-1.2183,0.21785-0.1716,0.73835-0.6652,1.1567-1.097,0.65677-0.6779,0.81978-0.9028,1.1942-1.6478,0.26528-0.5278,0.47753-1.0772,0.54665-1.4149,0.0621-0.3036,0.13797-0.656,0.16849-0.783,0.0305-0.1271,0.0706-0.6623,0.089-1.1894,0.0482-1.3755-0.20277-2.5421-0.80474-3.7413-0.37429-0.7457-0.53635-0.9694-1.1937-1.6479-0.97784-1.0093-1.3909-1.3297-2.2946-1.78-0.93818-0.4675-1.9463-0.694-3.2817-0.7373-0.87294-0.028-1.0902-0.01-2.009,0.2019-0.79528,0.1803-1.1881,0.3172-1.7227,0.6004-0.93814,0.4968-1.2242,0.7361-2.589,2.1654-0.47655,0.4991-1.154,1.863-1.3133,2.644-0.071,0.3479-0.15301,0.7289-0.18233,0.8466-0.0727,0.2921-0.0676,2.2674,0.007,2.5839,0.033,0.1407,0.11226,0.5107,0.17608,0.8223,0.0724,0.3532,0.2793,0.8913,0.5497,1.4293,0.37523,0.7465,0.53613,0.9682,1.1942,1.6456,0.97045,0.9989,1.3065,1.2664,2.1568,1.7167,0.5016,0.2657,0.95309,0.4285,1.6444,0.593,0.85143,0.2027,1.0656,0.2243,2.0101,0.2029,0.71637-0.016,1.3095-0.079,1.8402-0.1951zm-18.245-27.328c0.5222-0.1141,1.0293-0.2935,1.5224-0.5387,1.0084-0.5015,1.3155-0.7526,2.7233-2.227,0.47655-0.4991,1.154-1.8629,1.3133-2.644,0.071-0.3479,0.15301-0.7289,0.18233-0.8466,0.0727-0.2921,0.0676-2.2674-0.007-2.5839-0.033-0.1406-0.11226-0.5106-0.17608-0.8222-0.0724-0.3533-0.2793-0.8914-0.5497-1.4294-0.37522-0.7465-0.53612-0.9682-1.1942-1.6456-0.97027-0.9987-1.3066-1.2664-2.1559-1.7162-0.52815-0.2798-0.93246-0.4213-1.7189-0.6018-0.92432-0.2122-1.1277-0.2327-2.0109-0.2029-1.3348,0.045-2.3445,0.2729-3.2881,0.7421-1.0084,0.5015-1.3155,0.7526-2.7233,2.227-0.47655,0.4991-1.154,1.8629-1.3133,2.644-0.071,0.3479-0.15301,0.7289-0.18233,0.8466-0.0727,0.2921-0.0676,2.2674,0.007,2.5839,0.033,0.1406,0.11226,0.5106,0.17608,0.8222,0.0724,0.3533,0.2793,0.8914,0.5497,1.4294,0.37522,0.7465,0.53612,0.9682,1.1942,1.6456,0.97045,0.9989,1.3065,1.2664,2.1568,1.7167,0.50159,0.2656,0.95309,0.4285,1.6444,0.593,0.85142,0.2026,1.0656,0.2243,2.0101,0.2028,0.71637-0.016,1.3095-0.079,1.8402-0.195zm-89.111-12.059c0.5222-0.114,1.0293-0.2935,1.5224-0.5387,1.0084-0.5014,1.3155-0.7526,2.7232-2.227,0.47656-0.4991,1.154-1.8629,1.3133-2.6439,0.071-0.3479,0.15301-0.7289,0.18233-0.8467,0.0727-0.292,0.0676-2.2673-0.007-2.5839-0.033-0.1406-0.11225-0.5106-0.17608-0.8222-0.0724-0.3533-0.2793-0.8913-0.5497-1.4293-0.37522-0.7466-0.53612-0.9683-1.1942-1.6457-0.97028-0.9987-1.3066-1.2664-2.1559-1.7162-0.52816-0.2797-0.93246-0.4213-1.7189-0.6018-0.92432-0.2121-1.1276-0.2327-2.0109-0.2029-1.3348,0.045-2.3445,0.2729-3.2881,0.7422-1.0084,0.5014-1.3155,0.7526-2.7232,2.2269-0.47656,0.4991-1.154,1.863-1.3133,2.644-0.071,0.3479-0.15301,0.7289-0.18233,0.8466-0.0727,0.2921-0.0676,2.2674,0.007,2.584,0.033,0.1406,0.11225,0.5106,0.17608,0.8222,0.0724,0.3532,0.2793,0.8913,0.5497,1.4293,0.37522,0.7465,0.53612,0.9683,1.1942,1.6457,0.97046,0.9988,1.3066,1.2664,2.1568,1.7166,0.50159,0.2657,0.95309,0.4285,1.6444,0.593,0.85142,0.2027,1.0656,0.2243,2.0101,0.2029,0.71636-0.016,1.3095-0.079,1.8402-0.1951zm61.469-4.3469c0.1292-0.03,0.52628-0.1236,0.8824-0.2072,0.70885-0.1665,1.7938-0.6982,2.3672-1.16,0.19381-0.1561,0.69464-0.6361,1.113-1.0667,0.65811-0.6774,0.81901-0.8991,1.1942-1.6457,0.26528-0.5278,0.47753-1.0771,0.54665-1.4148,0.0622-0.3036,0.13797-0.656,0.16849-0.7831,0.0305-0.127,0.0706-0.6623,0.0891-1.1894,0.0482-1.3755-0.20277-2.5421-0.80474-3.7413-0.37429-0.7456-0.53635-0.9694-1.1937-1.6478-0.97777-1.0093-1.3908-1.3297-2.2946-1.7801-1.0224-0.5096-2.03-0.7208-3.4384-0.7208-1.4083,0-2.416,0.2112-3.4384,0.7208-0.90378,0.4504-1.3168,0.7708-2.2946,1.7801-0.65677,0.6779-0.81978,0.9028-1.1942,1.6478-0.2704,0.538-0.47734,1.0761-0.5497,1.4293-0.0638,0.3116-0.14306,0.6816-0.17608,0.8222-0.0779,0.3317-0.0779,2.2939,0,2.6256,0.033,0.1406,0.11226,0.5106,0.17608,0.8222,0.0724,0.3533,0.2793,0.8913,0.5497,1.4293,0.37446,0.745,0.53747,0.97,1.1942,1.6479,0.97777,1.0092,1.3908,1.3296,2.2946,1.7801,0.54077,0.2695,0.95525,0.4104,1.5577,0.5296,0.45148,0.089,0.83867,0.1802,0.86042,0.2019,0.0555,0.056,2.1053-0.013,2.3906-0.08zm-30.852-4.4232c0.88347-0.193,2.0137-0.7111,2.6578-1.2183,0.21785-0.1716,0.73835-0.6652,1.1567-1.097,0.65677-0.6779,0.81978-0.9028,1.1942-1.6479,0.27041-0.5379,0.47734-1.076,0.5497-1.4293,0.0638-0.3116,0.14307-0.6816,0.17609-0.8222,0.0743-0.3165,0.0795-2.2919,0.007-2.5839-0.0293-0.1177-0.11136-0.4987-0.18232-0.8466-0.15931-0.7811-0.83674-2.1449-1.3133-2.644-1.4077-1.4743-1.7148-1.7255-2.7232-2.2271-1.0295-0.512-2.0374-0.7242-3.4409-0.7242-1.4083,0-2.416,0.2112-3.4384,0.7208-0.90378,0.4504-1.3168,0.7709-2.2946,1.7801-0.65733,0.6785-0.81939,0.9022-1.1937,1.6478-0.60197,1.1992-0.8529,2.3658-0.80474,3.7413,0.0185,0.5272,0.0585,1.0624,0.0891,1.1895,0.0305,0.127,0.10633,0.4794,0.16848,0.783,0.0691,0.3377,0.28138,0.8871,0.54666,1.4148,0.37445,0.7451,0.53746,0.97,1.1942,1.6479,0.97777,1.0092,1.3908,1.3297,2.2946,1.7801,0.54077,0.2695,0.95525,0.4104,1.5577,0.5296,0.45148,0.089,0.83867,0.1802,0.86042,0.202,0.10364,0.1036,2.2095-0.037,2.9387-0.1964zm-13.295,91.167c-0.031-0.031-0.0564-11.945-0.0564-26.476v-26.419l7.6935,0.03c6.7011,0.026,7.8096,0.047,8.594,0.1616,4.256,0.6237,7.6415,1.7959,10.893,3.7715,6.88,4.18,11.349,11.482,12.126,19.811,0.118,1.2648,0.0982,4.4372-0.0355,5.6975-0.63812,6.0128-3.0434,11.272-7.0977,15.518-3.7012,3.8766-8.8669,6.591-14.32,7.5247-2.227,0.3812-2.0525,0.3742-10.104,0.4064-4.2004,0.017-7.6624,0.01-7.6935-0.026zm16.651-8.6356c3.8904-0.6141,7.1664-2.1676,9.6704-4.5857,2.3406-2.2603,3.7859-4.8452,4.6299-8.2805,0.43914-1.7874,0.50949-2.4749,0.50716-4.9565-0.002-2.4489-0.089-3.249-0.54832-5.061-1.47-5.7991-5.2525-9.9022-10.896-11.819-1.7935-0.6092-3.5198-0.9021-5.9762-1.0137-1.811-0.082-5.7952-0.1019-5.9839-0.03-0.11245,0.043-0.12387,1.6982-0.12387,17.958,0,9.8507,0.0264,17.937,0.0587,17.969s1.7501,0.043,3.8174,0.025c3.379-0.031,3.8683-0.052,4.8446-0.2058z" fill="#FFF"/>
 </g>
</svg>