<?xml version="1.0" encoding="UTF-8" standalone="no"?>
<svg id="svg2" xmlns:rdf="http://www.w3.org/1999/02/22-rdf-syntax-ns#" xmlns="http://www.w3.org/2000/svg" viewBox="0 0 340 337.86" version="1.1" xmlns:cc="http://creativecommons.org/ns#" xmlns:dc="http://purl.org/dc/elements/1.1/">
 <defs id="defs4"></defs>
 <metadata id="metadata7">
  <rdf:RDF>
   <cc:Work rdf:about="">
    <dc:format>image/svg+xml</dc:format>
    <dc:type rdf:resource="http://purl.org/dc/dcmitype/StillImage"/>
    <dc:title/>
   </cc:Work>
  </rdf:RDF>
 </metadata>
 <g id="layer1" transform="translate(-193.65257,-46.779293)">
  <path id="path2836" fill="#FFF" d="m340.85,384.04c-8.3026-2.2256-12.595-11.19-9.012-18.82,1.9588-4.1711,5.5161-6.9119,10.263-7.9077,2.4937-0.52305,5.1559-0.0677,8.1403,1.3924,5.6106,2.745,8.7912,9.7517,7.0872,15.613-2.1062,7.2451-9.4832,11.597-16.479,9.722zm39.506,0.26324c-5.5702-1.3128-10.024-6.4845-10.564-12.267-0.56731-6.0752,3.6546-12.174,9.7564-14.093,6.2472-1.965,13.344,1.3607,16.283,7.6302,0.83259,1.7764,0.96288,2.5162,0.96288,5.4675,0,2.937-0.13206,3.6948-0.94675,5.4323-2.7948,5.9605-9.3551,9.2764-15.492,7.8302zm38.841-6.9091c-4.5191-1.5404-7.4534-4.4528-8.9349-8.8683-2.064-6.1518,0.97914-13.225,6.9559-16.167,4.1131-2.0249,7.8448-2.0286,11.941-0.0118,6.0368,2.9719,9.1463,10.223,7.0016,16.327-1.5198,4.3255-4.8131,7.4567-9.3004,8.8427-2.954,0.91242-4.7105,0.88439-7.6637-0.12219zm-116.59-2.7826c-8.1234-2.5749-12.031-11.211-8.4585-18.696,2.553-5.3493,8.8619-8.8475,14.17-7.8572,8.4014,1.5673,13.748,10.132,11.074,17.741-1.5198,4.3255-4.813,7.4567-9.3004,8.8427-2.8437,0.87832-4.6414,0.87095-7.4855-0.0305zm218.85,0.31897c-1.6365-0.33941-3.8697-0.96419-17.245-4.8246-2.3712-0.68437-8.6765-2.6856-14.012-4.4473-5.3352-1.7616-12.126-3.9945-15.09-4.9619-5.5987-1.8273-7.9611-2.7455-13.114-5.0968-1.6796-0.76648-5.7533-2.5328-9.0525-3.9252-7.3636-3.1077-13.42-5.9147-17.092-7.9212-14.247-7.7867-25.386-14.099-27.927-15.824-0.7904-0.5368-3.3311-2.1384-5.646-3.5592s-5.0633-3.2663-6.1077-4.1011c-1.0444-0.83486-2.5455-1.935-3.3359-2.4447-2.6348-1.6992-11.804-8.6664-15.986-12.147-6.1169-5.0909-15.192-13.957-23.445-22.905-2.3742-2.5743-10.651-12.526-12.664-15.226-0.39521-0.53018-1.3785-1.8331-2.185-2.8954-1.3618-1.7936-2.5037-3.3946-5.3491-7.5002-4.0814-5.889-5.1672-9.0889-5.9314-17.48-0.27714-3.0434-0.28703-5.2489-0.0326-7.2777,0.5051-4.0282,3.4553-12.609,5.4436-15.833,2.2309-3.6174,2.7167-4.5513,3.7002-7.1131,2.8227-7.3526,9.5289-13.637,17.123-16.047,6.1382-1.9476,11.127-1.8876,17.452,0.20977,8.0724,2.6768,14.35,8.9588,17.349,17.361,1.251,3.5049,1.2871,3.7522,1.2892,8.8156,0.002,5.0017-0.0468,5.3511-1.2266,8.76-2.1036,6.0782-5.6438,10.741-10.745,14.154-3.6707,2.4553-7.1529,3.8297-11.684,4.6116-4.4783,0.77283-7.5989,0.44313-12.809-1.3533-6.0666-2.0919-5.4084-2.1286-7.3628,0.41123-1.9661,2.5551-1.9631,2.5832,0.60715,5.7515,0.88167,1.0868,2.789,3.7544,4.2386,5.928,10.801,16.196,24.634,30.727,40.241,42.273,4.3694,3.2322,19.587,13.265,24.251,15.988,9.0608,5.2906,17.426,9.8727,22.095,12.102,19.132,9.1362,20.767,9.8348,35.389,15.117,4.7424,1.7134,9.431,3.4185,10.419,3.7892,0.98801,0.37068,3.0898,1.0821,4.6706,1.5809,1.5808,0.49881,6.1077,1.9576,10.06,3.2416,12.254,3.9816,13.789,4.4412,21.736,6.5099,9.5611,2.4887,11.068,3.3789,12.216,7.2173,0.86927,2.9064-1.198,6.9638-4.3953,8.6264-1.3544,0.70425-3.7058,0.87976-5.8444,0.4362zm-251.73-18.92c-2.5909-0.85633-4.0554-1.7731-5.9289-3.7117-1.8548-1.9192-2.8118-3.7482-3.571-6.8244-0.5462-2.2134-0.54529-2.574,0.0129-5.083,3.2313-14.524,22.887-14.653,26.676-0.17483,0.54815,2.0944,0.57025,2.6897,0.17341,4.6706-0.68041,3.3964-1.9631,5.7328-4.371,7.9621-3.6337,3.3642-8.6698,4.5896-12.991,3.1613zm209.19-24.531c-4.8613-1.539-8.1122-4.8254-9.5223-9.626-0.77286-2.6313-0.72172-4.3626,0.21475-7.2702,1.8919-5.8741,7.0618-9.7308,13.044-9.7308,6.3878,0,11.854,4.5274,13.297,11.013,0.5279,2.3728,0.52971,2.8206,0.0203,5.017-1.2859,5.5446-4.4783,8.9986-9.8522,10.659-2.8363,0.87657-4.2744,0.86405-7.2017-0.0627zm-236.8-0.60218c-5.0899-1.6912-8.4079-5.4071-9.5034-10.643-1.9888-9.5056,7.8986-18.39,17.208-15.462,6.0883,1.915,10.343,8.0378,9.7793,14.073-0.8008,8.5756-9.6197,14.644-17.484,12.031zm-21.12-31.284c-4.2822-1.4791-7.4752-4.72-8.8878-9.021-2.0856-6.3503,1.2264-13.447,7.6899-16.478,1.7128-0.80313,2.5097-0.94676,5.2526-0.94676,2.7721,0,3.5327,0.14017,5.3302,0.98226,2.8264,1.3241,4.6071,2.7953,5.9881,4.9475,1.3503,2.1043,2.5138,5.5955,2.5138,7.543,0,1.9583-1.1659,5.4424-2.5352,7.5764-3.1412,4.8952-9.9124,7.2755-15.352,5.3966zm278-0.0591c-4.055-1.4724-7.2221-4.6948-8.6116-8.7622-2.3681-6.9317,1.5804-14.618,8.7712-17.075,6.4564-2.2057,13.67,1.0356,16.666,7.4888,0.80092,1.7249,0.93985,2.522,0.94838,5.4416,0.009,3.1524-0.0827,3.6091-1.1726,5.8228-1.444,2.9331-4.3728,5.6855-7.2443,6.808-2.8064,1.097-6.7734,1.2138-9.3573,0.27559zm-290.35-34.225c-4.5191-1.5404-7.4534-4.4528-8.9349-8.8683-2.5713-7.6637,2.8433-16.261,11.059-17.559,4.027-0.63659,8.7471,1.0831,11.732,4.2746,7.0324,7.5182,3.8082,19.186-6.1517,22.263-2.9956,0.92526-4.7424,0.90045-7.7051-0.10941zm303.74,0.33189c-7.3386-2.395-11.472-10.168-9.1199-17.149,1.4946-4.4348,4.6332-7.5202,9.1236-8.9689,6.8495-2.2099,14.342,1.7792,16.746,8.9155,2.1862,6.4897-1.0217,13.6-7.4687,16.555-2.444,1.12-6.8846,1.4298-9.2815,0.64757zm-308.53-36.45c-4.758-1.4241-8.2599-4.953-9.6662-9.7409-0.72687-2.4747-0.72548-4.4099,0.005-6.8755,1.5787-5.3288,5.7434-9.0092,11.372-10.05,4.3925-0.812,10.129,1.7095,12.87,5.6568,3.3704,4.854,3.3978,10.786,0.0718,15.547-3.3522,4.7983-9.3725,7.0425-14.653,5.4622zm312.52-0.44556c-9.4525-2.9964-12.849-13.981-6.7116-21.707,1.8597-2.3411,5.6543-4.3758,9.2751-4.9736,3.3341-0.5504,8.4656,1.5523,11.266,4.6164,2.488,2.7223,3.4358,5.2427,3.4414,9.1517,0.004,2.5687-0.15001,3.387-0.96748,5.1505-1.9051,4.11-4.6066,6.4788-8.9201,7.8213-2.7289,0.84932-4.5638,0.83463-7.3833-0.0591zm-306.95-35.32c-5.9727-1.2809-10.194-5.7314-11.201-11.81-0.34555-2.0853-0.2998-2.6426,0.40827-4.9738,1.9456-6.4056,6.8034-10.168,13.128-10.168,6.3235,0,11.183,3.7626,13.127,10.165,0.91124,3.0001,0.82984,4.8425-0.351,7.9441-2.3872,6.2704-9.0166,10.149-15.112,8.8423zm302.15-2.0803c-4.7618-1.5059-7.9571-4.7215-9.3976-9.4572-0.84908-2.7915-0.83186-4.1089,0.0945-7.2346,3.3431-11.28,18.044-13.505,24.387-3.6921,1.8501,2.8624,2.6915,6.4246,2.1761,9.2126-1.0527,5.6947-4.4867,9.5203-10.119,11.273-2.7304,0.84981-4.1971,0.82885-7.1406-0.10199zm-288.76-33.002c-5.5168-1.1264-9.7894-5.3132-11.042-10.82-0.4541-1.9965-0.49788-2.9528-0.20714-4.5255,1.0527-5.6947,4.4867-9.5203,10.119-11.273,2.778-0.86461,3.862-0.85227,7.0068,0.0798,4.5367,1.3446,7.9385,4.6875,9.4056,9.2429,0.98195,3.0488,0.98695,4.2465,0.0312,7.4711-1.9671,6.6371-8.9587,11.123-15.314,9.8252zm275.41-1.3773c-2.6737-0.88348-4.1964-1.8551-6.0375-3.8524-1.7936-1.9458-3.1551-4.7565-3.5857-7.4025-1.2401-7.6194,5.448-15.345,13.308-15.374,7.1452-0.0257,13.008,5.3229,13.877,12.66,0.42362,3.5768-2.0589,9.2386-5.0487,11.515-3.7207,2.8322-8.5195,3.7732-12.513,2.4536zm-255.73-29.55c-5.2922-1.7245-8.6996-5.6471-9.7254-11.196-0.29196-1.5793-0.24671-2.5301,0.21754-4.5713,1.2038-5.2926,5.355-9.414,10.674-10.597,2.4199-0.53838,2.8614-0.54118,5.0564-0.0321,5.582,1.2946,8.98,4.394,10.613,9.6803,0.93299,3.0207,0.94732,4.4377,0.0739,7.3096-0.88911,2.9236-1.8002,4.3442-4.1827,6.5216-3.547,3.2418-8.315,4.3226-12.727,2.8851zm234.24-1.7772c-5.4338-1.9822-9.3412-7.3854-9.3412-12.917,0-3.9962,2.3334-8.5079,5.6606-10.945,7.0432-5.1587,16.68-2.5484,20.511,5.5557,0.79816,1.6886,0.93547,2.4725,0.94401,5.3891,0.009,2.9637-0.1168,3.6836-0.95288,5.4675-1.361,2.9039-3.8796,5.4573-6.7295,6.8227-3.0979,1.4842-7.0662,1.7308-10.092,0.62707zm-207.13-23.35c-4.3416-1.3931-7.8072-5.0239-9.1668-9.6033-0.71076-2.3942-0.75816-2.969-0.41538-5.0376,1.01-6.0954,5.1654-10.515,11.043-11.744,2.168-0.4536,2.8035-0.45372,4.9751-0.001,5.7794,1.205,9.7981,5.3688,11.08,11.48,0.72792,3.4703-0.88541,8.2438-3.8038,11.255-3.7612,3.8803-8.8099,5.2249-13.712,3.6518zm180.52-1.0017c-5.789-1.5114-9.7402-6.0609-10.569-12.169-0.56994-4.2012,2.3658-10.049,6.2738-12.497,1.7668-1.1067,5.6228-2.3427,7.3084-2.3427,3.8792,0,8.4443,2.4318,11.059,5.8908,1.6869,2.2319,2.9996,6.4751,2.7238,8.8041-0.72352,6.109-5.1277,11.064-11.027,12.405-2.9689,0.67528-2.8201,0.67765-5.7684-0.0921zm-147.36-18.001c-5.5258-1.7668-8.9598-5.6209-9.9943-11.217-1.5471-8.369,7.0924-16.981,15.446-15.396,5.6442,1.0704,9.4454,4.5038,11.189,10.106,0.86462,2.778,0.85227,3.862-0.0798,7.0068-1.3729,4.6321-4.8048,8.064-9.4369,9.4369-3.0813,0.91325-4.4279,0.92516-7.1244,0.063zm115.1-0.38972c-3.9582-0.82881-8.0516-3.8239-9.7344-7.1224-1.3077-2.5633-1.9077-5.9176-1.4768-8.2559,1.0285-5.5813,4.5703-9.5185,10.115-11.244,2.778-0.86461,3.862-0.85227,7.0068,0.0798,4.6321,1.3729,8.064,4.8048,9.4369,9.4369,0.41742,1.4084,0.75895,3.0458,0.75895,3.6386,0,1.9935-1.4833,6.1535-2.8289,7.9338-3.191,4.2221-8.6584,6.5006-13.277,5.5334zm-77.74-9.3107c-5.3556-1.7124-8.6865-5.3274-9.7964-10.632-1.4752-7.0508,3.2848-14.114,10.639-15.787,1.9966-0.45411,2.9528-0.49788,4.5256-0.20715,11.028,2.0387,15.623,14.451,8.3108,22.452-2.1774,2.3824-3.5981,3.2936-6.5216,4.1827-2.759,0.83905-4.5118,0.83689-7.1568-0.009zm39.593,0.0198c-3.5256-1.1335-5.8126-2.7365-7.5901-5.3199-3.395-4.9344-3.3047-11.114,0.23271-15.933,2.792-3.8035,8.376-6.1836,12.652-5.3931,5.6461,1.0437,9.874,4.8283,11.426,10.228,1.1825,4.1138-0.0217,8.8389-3.1154,12.224-2.1774,2.3824-3.5981,3.2936-6.5216,4.1827-2.7432,0.83427-4.5148,0.837-7.0842,0.0109z"/>
 </g>
</svg>